STARTFONT 2.1
FONT -FontForge-IBM Plex Mono-Bold-R-Normal--75-720-75-75-P-425-ISO10646-1
SIZE 72 75 75
FONTBOUNDINGBOX 71 107 -23 -20
COMMENT "Generated by fontforge, http://fontforge.sourceforge.net"
COMMENT "Copyright 2017 IBM Corp. All rights reserved."
STARTPROPERTIES 41
FOUNDRY "FontForge"
FAMILY_NAME "IBM Plex Mono"
WEIGHT_NAME "Bold"
SLANT "R"
SETWIDTH_NAME "Normal"
ADD_STYLE_NAME ""
PIXEL_SIZE 75
POINT_SIZE 720
RESOLUTION_X 75
RESOLUTION_Y 75
SPACING "P"
AVERAGE_WIDTH 425
CHARSET_REGISTRY "ISO10646"
CHARSET_ENCODING "1"
FONTNAME_REGISTRY ""
CHARSET_COLLECTIONS "ISO8859-2 ISO8859-5 ISO8859-9 ISO8859-4 ISO10646-1"
FONT_NAME "IBMPlexMono-Bold"
FACE_NAME "IBM Plex Mono Bold"
COPYRIGHT "Copyright 2017 IBM Corp. All rights reserved."
FONT_VERSION "2.1"
FONT_ASCENT 58
FONT_DESCENT 17
UNDERLINE_POSITION -11
UNDERLINE_THICKNESS 8
X_HEIGHT 38
CAP_HEIGHT 51
DEFAULT_CHAR 1
RAW_ASCENT 780
RAW_DESCENT 220
NORM_SPACE 45
RELATIVE_WEIGHT 70
RELATIVE_SETWIDTH 50
SUPERSCRIPT_X 0
SUPERSCRIPT_Y 26
SUPERSCRIPT_SIZE 45
SUBSCRIPT_X 0
SUBSCRIPT_Y 5
SUBSCRIPT_SIZE 45
FIGURE_WIDTH 45
AVG_LOWERCASE_WIDTH 450
AVG_UPPERCASE_WIDTH 450
ENDPROPERTIES
CHARS 847
STARTCHAR .null
ENCODING 0
SWIDTH 0 0
DWIDTH 0 0
BBX 1 1 0 0
BITMAP
00
ENDCHAR
STARTCHAR uni000D
ENCODING 13
SWIDTH 600 0
DWIDTH 45 0
BBX 1 1 0 0
BITMAP
00
ENDCHAR
STARTCHAR space
ENCODING 32
SWIDTH 600 0
DWIDTH 45 0
BBX 1 1 0 0
BITMAP
00
ENDCHAR
STARTCHAR exclam
ENCODING 33
SWIDTH 600 0
DWIDTH 45 0
BBX 15 53 15 -1
BITMAP
7FFC
7FFC
7FFC
7FFC
7FFC
7FFC
7FFC
7FFC
7FFC
7FFC
7FFC
7FFC
7FFC
7FFC
7FFC
3FF8
3FF8
3FF8
3FF8
1FF0
1FF0
1FF0
1FF0
1FF0
0FE0
0FE0
0FE0
0FE0
07C0
07C0
07C0
07C0
0380
0000
0000
0000
0000
0000
0FE0
3FF8
7FFC
7FFC
FFFE
FFFE
FFFE
FFFE
FFFE
FFFE
FFFE
7FFC
7FFC
3FF8
0FE0
ENDCHAR
STARTCHAR quotedbl
ENCODING 34
SWIDTH 600 0
DWIDTH 45 0
BBX 27 24 9 32
BITMAP
FFC07FE0
FFC07FE0
FFC07FE0
FFC07FE0
FFC07FE0
FFC07FE0
FFC07FE0
FFC07FE0
FFC07FE0
FFC07FE0
FFC07FE0
FFC07FE0
FFC07FE0
FFC07FE0
FFC07FE0
FFC07FE0
FFC07FE0
FFC07FE0
FFC07FE0
FFC07FE0
FFC07FE0
FFC07FE0
FFC07FE0
FFC07FE0
ENDCHAR
STARTCHAR numbersign
ENCODING 35
SWIDTH 600 0
DWIDTH 45 0
BBX 43 52 1 0
BITMAP
0003FE07FC00
0003FE07FC00
0003FE07F800
0003FE0FF800
0003FC0FF800
0007FC0FF800
0007FC0FF800
0007FC0FF000
0007FC1FF000
0007FC1FF000
0007F81FF000
000FF81FF000
000FF81FF000
000FF81FE000
1FFFF83FFFE0
1FFFF03FFFE0
1FFFF03FFFE0
1FFFF03FFFE0
1FFFF03FFFE0
1FFFF03FFFE0
1FFFF07FFFE0
1FFFE07FFFE0
1FFFE07FFFE0
003FE07FC000
003FE07F8000
003FE0FF8000
003FE0FF8000
003FC0FF8000
007FC0FF8000
FFFFC0FFFF00
FFFFC0FFFF00
FFFFC1FFFF00
FFFF81FFFF00
FFFF81FFFF00
FFFF81FFFF00
FFFF81FFFF00
FFFF81FFFF00
FFFF83FFFF00
00FF03FE0000
00FF03FE0000
01FF03FE0000
01FF03FC0000
01FF07FC0000
01FF07FC0000
01FE07FC0000
03FE07FC0000
03FE07FC0000
03FE07F80000
03FE0FF80000
03FC0FF80000
07FC0FF80000
07FC0FF80000
ENDCHAR
STARTCHAR dollar
ENCODING 36
SWIDTH 600 0
DWIDTH 45 0
BBX 41 70 2 -9
BITMAP
00007FC00000
00007FC00000
00007FC00000
00007FC00000
00007FC00000
00007FC00000
00007FC00000
00007FC00000
0003FFF80000
001FFFFF0000
007FFFFFC000
01FFFFFFF000
03FFFFFFF800
07FFFFFFFC00
0FFFFFFFFE00
0FFFFFFFFC00
1FFFFFFFF800
1FFF3FBFF800
1FFC3F8FF000
3FF83F83E000
3FF83F81C000
3FF83F808000
3FF03F800000
3FF03F800000
3FF83F800000
3FF83F800000
3FFC3F800000
3FFE3F800000
1FFFBF800000
1FFFFF800000
0FFFFFC00000
0FFFFFFC0000
07FFFFFF8000
03FFFFFFC000
01FFFFFFF000
00FFFFFFF800
003FFFFFFC00
000FFFFFFC00
0000FFFFFE00
00003FFFFE00
00003FBFFF00
00003F8FFF00
00003F87FF00
00003F83FF00
00003F83FF80
00003F83FF80
00003F83FF80
02003F83FF00
03003F83FF00
07803F87FF00
0FE03F87FF00
1FF83F8FFE00
3FFE3FBFFE00
7FFFFFFFFC00
FFFFFFFFFC00
7FFFFFFFF800
3FFFFFFFF000
0FFFFFFFE000
07FFFFFFC000
01FFFFFF0000
007FFFFC0000
0007FFC00000
00007FC00000
00007FC00000
00007FC00000
00007FC00000
00007FC00000
00007FC00000
00007FC00000
00007FC00000
ENDCHAR
STARTCHAR percent
ENCODING 37
SWIDTH 600 0
DWIDTH 45 0
BBX 45 54 0 -1
BITMAP
007F00000000
03FFC0000FF8
07FFF0000FF0
0FFFF8001FF0
1FFFFC001FE0
3FFFFC003FE0
3FFFFE003FC0
3FC3FE007FC0
7F81FE00FF80
7F80FF00FF00
7F80FF01FF00
7F00FF01FE00
7F00FF03FE00
7F00FF03FC00
7F00FF07FC00
7F00FF07F800
7F00FF0FF800
7F80FF0FF000
7F80FF1FF000
7F81FE1FE000
3FC3FE3FE000
3FFFFE3FC000
3FFFFC7FC000
1FFFFC000000
0FFFF8000000
07FFF0000000
03FFC007F800
00FF001FFE00
0000007FFF00
000000FFFF80
000001FFFFC0
001FF1FFFFE0
001FE3FFFFE0
003FE3FE1FE0
003FC3FC0FF0
007FC7F80FF0
007F87F80FF0
00FF87F807F0
00FF07F807F0
01FF07F807F0
01FE07F807F0
03FE07F807F0
03FC07F807F0
07FC07F80FF0
07F807F80FF0
0FF803FC0FF0
1FF003FE1FE0
1FE003FFFFE0
3FE001FFFFE0
3FC001FFFFC0
7FC000FFFF80
7F80007FFF00
FF80001FFE00
00000007F000
ENDCHAR
STARTCHAR ampersand
ENCODING 38
SWIDTH 600 0
DWIDTH 45 0
BBX 44 54 1 -1
BITMAP
0003FE000000
000FFF800000
003FFFE00000
00FFFFF80000
01FFFFFC0000
01FFFFFE0000
03FFFFFE0000
07FFFFFF0000
07FFFFFF0000
0FFF07FF8000
0FFE01FF0000
0FFC00FC0000
0FFC00700000
0FFC00600000
0FFC00000000
0FFC00000000
07FC00000000
07FE00000000
07FF00000000
03FF00000000
03FF80000000
01FFC0000000
00FFE007FFE0
00FFF007FFE0
007FF807FFE0
01FFF807FFE0
03FFFC07FFE0
07FFFE07FFE0
0FFFFF07FFE0
1FFFFF87FFE0
3FFFFF87FFE0
3FFBFFC7F800
7FF1FFE7F800
7FE0FFEFF800
7FE07FFFF800
FFE07FFFF000
FFC03FFFF000
FFC01FFFF000
FFC00FFFE000
FFC007FFE000
FFE007FFC000
FFE003FFC000
FFE001FFE000
7FF003FFF000
7FFC0FFFF800
7FFFFFFFFC00
3FFFFF9FFE00
3FFFFF9FFE00
1FFFFF8FFF00
0FFFFF07FF80
07FFFF03FFC0
03FFFE01FFE0
00FFF800FFF0
003FE0000000
ENDCHAR
STARTCHAR quotesingle
ENCODING 39
SWIDTH 600 0
DWIDTH 45 0
BBX 9 24 18 32
BITMAP
FF80
FF80
FF80
FF80
FF80
FF80
FF80
FF80
FF80
FF80
FF80
FF80
FF80
FF80
FF80
FF80
FF80
FF80
FF80
FF80
FF80
FF80
FF80
FF80
ENDCHAR
STARTCHAR parenleft
ENCODING 40
SWIDTH 600 0
DWIDTH 45 0
BBX 27 67 13 -10
BITMAP
0001FFE0
0003FF80
0007FE00
000FFC00
001FF800
003FF000
007FE000
00FFC000
00FF8000
01FF8000
03FF0000
03FE0000
07FE0000
07FC0000
0FF80000
0FF80000
1FF00000
1FF00000
1FF00000
3FE00000
3FE00000
3FE00000
7FC00000
7FC00000
7FC00000
7FC00000
7FC00000
FF800000
FF800000
FF800000
FF800000
FF800000
FF800000
FF800000
FF800000
FF800000
FF800000
FF800000
FF800000
FF800000
7FC00000
7FC00000
7FC00000
7FC00000
7FC00000
3FE00000
3FE00000
3FE00000
1FF00000
1FF00000
1FF00000
0FF80000
0FF80000
07FC0000
07FE0000
03FE0000
03FF0000
01FF8000
00FF8000
00FFC000
007FE000
003FF000
001FF800
000FFC00
0007FE00
0003FF80
0001FFE0
ENDCHAR
STARTCHAR parenright
ENCODING 41
SWIDTH 600 0
DWIDTH 45 0
BBX 27 67 5 -10
BITMAP
FFF00000
3FF80000
0FFC0000
07FE0000
03FF0000
01FF8000
00FFC000
007FE000
003FE000
003FF000
001FF800
000FF800
000FFC00
0007FC00
0003FE00
0003FE00
0001FF00
0001FF00
0001FF00
0000FF80
0000FF80
0000FF80
00007FC0
00007FC0
00007FC0
00007FC0
00007FC0
00003FE0
00003FE0
00003FE0
00003FE0
00003FE0
00003FE0
00003FE0
00003FE0
00003FE0
00003FE0
00003FE0
00003FE0
00003FE0
00007FC0
00007FC0
00007FC0
00007FC0
00007FC0
0000FF80
0000FF80
0000FF80
0001FF00
0001FF00
0001FF00
0003FE00
0003FE00
0007FC00
000FFC00
000FF800
001FF800
003FF000
003FE000
007FE000
00FFC000
01FF8000
03FF0000
07FE0000
0FFC0000
3FF80000
FFF00000
ENDCHAR
STARTCHAR asterisk
ENCODING 42
SWIDTH 600 0
DWIDTH 45 0
BBX 41 38 2 5
BITMAP
0000FF800000
0000FF800000
0000FF800000
0000FF800000
0000FF800000
0000FF800000
0000FF800000
0000FF800000
0000FF800000
1800FF800C00
1F00FF807C00
3FE0FF83FE00
3FFCFF9FFE00
3FFFFFFFFE00
7FFFFFFFFF00
7FFFFFFFFF00
7FFFFFFFFF00
FFFFFFFFFF80
0FFFFFFFF800
01FFFFFFC000
003FFFFE0000
0007FFF00000
000FFFF80000
000FFFF80000
001FFFFC0000
003FFFFE0000
007FFFFF0000
007FF7FF0000
00FFE3FF8000
01FFE3FFC000
03FFC1FFE000
03FF80FFE000
07FF007FF000
07FF007FF000
01FE003FC000
00FC001F8000
003C001E0000
0018000C0000
ENDCHAR
STARTCHAR plus
ENCODING 43
SWIDTH 600 0
DWIDTH 45 0
BBX 35 37 5 4
BITMAP
0007FC0000
0007FC0000
0007FC0000
0007FC0000
0007FC0000
0007FC0000
0007FC0000
0007FC0000
0007FC0000
0007FC0000
0007FC0000
0007FC0000
0007FC0000
0007FC0000
FFFFFFFFE0
FFFFFFFFE0
FFFFFFFFE0
FFFFFFFFE0
FFFFFFFFE0
FFFFFFFFE0
FFFFFFFFE0
FFFFFFFFE0
FFFFFFFFE0
0007FC0000
0007FC0000
0007FC0000
0007FC0000
0007FC0000
0007FC0000
0007FC0000
0007FC0000
0007FC0000
0007FC0000
0007FC0000
0007FC0000
0007FC0000
0007FC0000
ENDCHAR
STARTCHAR comma
ENCODING 44
SWIDTH 600 0
DWIDTH 45 0
BBX 18 24 13 -11
BITMAP
0FFFC0
0FFFC0
0FFF80
1FFF80
1FFF00
1FFF00
1FFF00
1FFE00
1FFE00
3FFC00
3FFC00
3FF800
3FF800
3FF800
7FF000
7FF000
7FE000
7FE000
7FC000
7FC000
FFC000
FF8000
FF8000
FF0000
ENDCHAR
STARTCHAR hyphen
ENCODING 45
SWIDTH 600 0
DWIDTH 45 0
BBX 25 11 10 17
BITMAP
FFFFFF80
FFFFFF80
FFFFFF80
FFFFFF80
FFFFFF80
FFFFFF80
FFFFFF80
FFFFFF80
FFFFFF80
FFFFFF80
FFFFFF80
ENDCHAR
STARTCHAR period
ENCODING 46
SWIDTH 600 0
DWIDTH 45 0
BBX 15 15 15 -1
BITMAP
0FE0
3FF8
7FFC
FFFE
FFFE
FFFE
FFFE
FFFE
FFFE
FFFE
FFFE
FFFE
7FFC
3FF8
0FE0
ENDCHAR
STARTCHAR slash
ENCODING 47
SWIDTH 600 0
DWIDTH 45 0
BBX 35 67 5 -10
BITMAP
000000FFE0
000000FFC0
000000FFC0
000001FF80
000001FF80
000001FF80
000003FF00
000003FF00
000007FE00
000007FE00
000007FE00
00000FFC00
00000FFC00
00000FFC00
00001FF800
00001FF800
00001FF800
00003FF000
00003FF000
00003FF000
00007FE000
00007FE000
0000FFC000
0000FFC000
0000FFC000
0001FF8000
0001FF8000
0001FF8000
0003FF0000
0003FF0000
0003FF0000
0007FE0000
0007FE0000
0007FC0000
000FFC0000
000FFC0000
001FF80000
001FF80000
001FF80000
003FF00000
003FF00000
003FF00000
007FE00000
007FE00000
007FE00000
00FFC00000
00FFC00000
01FF800000
01FF800000
01FF800000
03FF000000
03FF000000
03FF000000
07FE000000
07FE000000
07FE000000
0FFC000000
0FFC000000
0FFC000000
1FF8000000
1FF8000000
3FF0000000
3FF0000000
3FF0000000
7FE0000000
7FE0000000
FFE0000000
ENDCHAR
STARTCHAR zero
ENCODING 48
SWIDTH 600 0
DWIDTH 45 0
BBX 41 54 2 -1
BITMAP
0001FFC00000
000FFFF80000
003FFFFE0000
00FFFFFF8000
01FFFFFFC000
03FFFFFFE000
07FFFFFFF000
07FFFFFFF000
0FFFFFFFF800
0FFF80FFF800
1FFE003FFC00
1FFC001FFC00
3FF8000FFE00
3FF8000FFE00
3FF8000FFE00
7FF00007FF00
7FF00007FF00
7FF00007FF00
7FF00007FF00
FFF00007FF00
FFF00007FF80
FFF00007FF80
FFF03E07FF80
FFF0FF07FF80
FFF0FF87FF80
FFF0FF87FF80
FFF0FF87FF80
FFF0FF87FF80
FFF0FF87FF80
FFF0FF07FF80
FFF03E07FF80
FFF00007FF80
FFF00007FF80
FFF00007FF80
7FF00007FF00
7FF00007FF00
7FF00007FF00
7FF00007FF00
7FF00007FF00
3FF8000FFE00
3FF8000FFE00
3FF8000FFE00
1FFC001FFC00
1FFE003FFC00
0FFF80FFF800
0FFFFFFFF800
07FFFFFFF000
07FFFFFFF000
03FFFFFFE000
01FFFFFFC000
00FFFFFF0000
003FFFFE0000
000FFFF80000
0001FFC00000
ENDCHAR
STARTCHAR one
ENCODING 49
SWIDTH 600 0
DWIDTH 45 0
BBX 41 52 3 0
BITMAP
000FFFF80000
001FFFF80000
003FFFF80000
003FFFF80000
007FFFF80000
00FFFFF80000
00FFFFF80000
01FFFFF80000
03FFFFF80000
03FFBFF80000
07FF3FF80000
0FFF3FF80000
0FFE3FF80000
1FFC3FF80000
3FFC3FF80000
7FF83FF80000
7FF03FF80000
FFF03FF80000
FFE03FF80000
7FC03FF80000
3F803FF80000
0F803FF80000
07003FF80000
02003FF80000
00003FF80000
00003FF80000
00003FF80000
00003FF80000
00003FF80000
00003FF80000
00003FF80000
00003FF80000
00003FF80000
00003FF80000
00003FF80000
00003FF80000
00003FF80000
00003FF80000
00003FF80000
00003FF80000
00003FF80000
00003FF80000
00003FF80000
0FFFFFFFFF80
0FFFFFFFFF80
0FFFFFFFFF80
0FFFFFFFFF80
0FFFFFFFFF80
0FFFFFFFFF80
0FFFFFFFFF80
0FFFFFFFFF80
0FFFFFFFFF80
ENDCHAR
STARTCHAR two
ENCODING 50
SWIDTH 600 0
DWIDTH 45 0
BBX 39 53 3 0
BITMAP
0003FF8000
001FFFF000
00FFFFFC00
01FFFFFF00
07FFFFFF80
0FFFFFFFC0
1FFFFFFFE0
3FFFFFFFE0
3FFFFFFFF0
7FFE07FFF0
7FF801FFF8
FFF000FFF8
FFE0007FF8
3FE0007FF8
07C0007FF8
01C0007FF8
0000007FFC
0000007FF8
0000007FF8
0000007FF8
0000007FF8
000000FFF0
000000FFF0
000001FFE0
000003FFE0
000007FFC0
00000FFF80
00001FFF80
00003FFF00
00007FFE00
0000FFFC00
0001FFF800
0003FFE000
000FFFC000
001FFF8000
003FFF0000
007FFC0000
00FFF80000
03FFF00000
07FFE00000
0FFFC00000
1FFF000000
7FFE000000
7FFC000000
7FFFFFFFFE
7FFFFFFFFE
7FFFFFFFFE
7FFFFFFFFE
7FFFFFFFFE
7FFFFFFFFE
7FFFFFFFFE
7FFFFFFFFE
7FFFFFFFFE
ENDCHAR
STARTCHAR three
ENCODING 51
SWIDTH 600 0
DWIDTH 45 0
BBX 40 54 2 -1
BITMAP
0003FFC000
001FFFF800
007FFFFE00
01FFFFFF80
03FFFFFFC0
0FFFFFFFE0
1FFFFFFFF0
3FFFFFFFF8
3FFFFFFFF8
3FFF01FFFC
0FFC007FFC
07F0003FFC
03E0003FFE
01C0001FFE
0080001FFE
0000001FFE
0000001FFC
0000001FFC
0000003FFC
0000003FF8
0000007FF8
000003FFF0
0003FFFFE0
0003FFFFC0
0003FFFF80
0003FFFC00
0003FFF800
0003FFFF00
0003FFFFC0
0003FFFFF0
0003FFFFF8
000001FFF8
0000007FFC
0000003FFE
0000001FFE
0000001FFE
0000000FFE
0000000FFF
0180000FFF
0380000FFF
0FC0001FFF
1FE0001FFE
3FF0003FFE
7FF8007FFE
FFFF01FFFC
7FFFFFFFFC
3FFFFFFFF8
3FFFFFFFF8
1FFFFFFFF0
07FFFFFFE0
03FFFFFF80
00FFFFFE00
003FFFF800
0007FF8000
ENDCHAR
STARTCHAR four
ENCODING 52
SWIDTH 600 0
DWIDTH 45 0
BBX 41 52 2 0
BITMAP
00000FFFC000
00000FFFC000
00001FFFC000
00003FFFC000
00003FFFC000
00007FFFC000
00007FFFC000
0000FFFFC000
0001FFFFC000
0001FFFFC000
0003FFFFC000
0007FFFFC000
0007FDFFC000
000FFDFFC000
001FF9FFC000
001FF1FFC000
003FF1FFC000
007FE1FFC000
007FC1FFC000
00FFC1FFC000
00FF81FFC000
01FF01FFC000
03FF01FFC000
03FE01FFC000
07FC01FFC000
0FFC01FFC000
0FF801FFC000
1FF801FFC000
3FF001FFC000
3FE001FFC000
7FE001FFC000
FFC001FFC000
FF8001FFC000
FFFFFFFFFF80
FFFFFFFFFF80
FFFFFFFFFF80
FFFFFFFFFF80
FFFFFFFFFF80
FFFFFFFFFF80
FFFFFFFFFF80
FFFFFFFFFF80
FFFFFFFFFF80
000001FFC000
000001FFC000
000001FFC000
000001FFC000
000001FFC000
000001FFC000
000001FFC000
000001FFC000
000001FFC000
000001FFC000
ENDCHAR
STARTCHAR five
ENCODING 53
SWIDTH 600 0
DWIDTH 45 0
BBX 40 53 3 -1
BITMAP
0FFFFFFFF0
0FFFFFFFF0
0FFFFFFFF0
0FFFFFFFF0
0FFFFFFFF0
0FFFFFFFF0
1FFFFFFFF0
1FFFFFFFF0
1FFFFFFFF0
1FF0000000
1FF0000000
1FF0000000
1FF0000000
1FF0000000
1FF0000000
1FF0000000
1FF0000000
1FF0000000
1FF00FF000
1FE07FFE00
1FE0FFFF00
3FE1FFFFC0
3FE3FFFFE0
3FE7FFFFF0
3FE7FFFFF8
3FEFFFFFF8
3FFFFFFFFC
3FFF01FFFC
3FFC007FFE
1FF0003FFE
0020001FFE
0000001FFE
0000001FFE
0000000FFE
0000000FFF
0000000FFF
0000000FFE
0180001FFE
03C0001FFE
07C0001FFE
1FE0003FFE
3FF0003FFC
7FFC007FFC
FFFF01FFF8
7FFFFFFFF8
3FFFFFFFF0
1FFFFFFFE0
0FFFFFFFE0
07FFFFFF80
03FFFFFF00
00FFFFFC00
003FFFF000
0003FF8000
ENDCHAR
STARTCHAR six
ENCODING 54
SWIDTH 600 0
DWIDTH 45 0
BBX 40 53 3 -1
BITMAP
00003FFFE0
00007FFF00
0000FFFE00
0003FFFC00
0007FFF000
000FFFE000
001FFFC000
003FFF0000
007FFE0000
007FFC0000
00FFF80000
01FFF00000
03FFE00000
03FFC00000
07FF800000
0FFF000000
0FFF000000
1FFE000000
1FFC0FF000
1FFC3FFE00
3FF8FFFF80
3FF9FFFFC0
7FFBFFFFE0
7FF3FFFFF0
7FF7FFFFF8
7FF7FFFFF8
FFFFFFFFFC
FFFF01FFFC
FFFC007FFE
FFF8003FFE
FFF8001FFE
FFF0001FFE
FFF0000FFF
FFF0000FFF
FFF0000FFF
FFF0000FFF
FFF0000FFF
FFF0000FFE
FFF0000FFE
7FF0001FFE
7FF8001FFE
7FF8003FFC
3FFC007FFC
3FFF01FFFC
1FFFFFFFF8
0FFFFFFFF0
0FFFFFFFE0
07FFFFFFE0
03FFFFFF80
00FFFFFF00
007FFFFC00
001FFFF000
0001FF8000
ENDCHAR
STARTCHAR seven
ENCODING 55
SWIDTH 600 0
DWIDTH 45 0
BBX 37 52 4 0
BITMAP
FFFFFFFFF8
FFFFFFFFF8
FFFFFFFFF8
FFFFFFFFF8
FFFFFFFFF8
FFFFFFFFF8
FFFFFFFFF8
FFFFFFFFF8
FFFFFFFFF8
FF80003FF8
FF80003FF8
FF80007FF8
FF80007FF0
FF8000FFF0
FF8000FFF0
FF8000FFE0
FF8001FFE0
FF8001FFC0
000003FFC0
000003FF80
000007FF80
000007FF80
000007FF00
00000FFF00
00000FFE00
00001FFE00
00001FFE00
00001FFC00
00003FFC00
00003FF800
00007FF800
00007FF800
0000FFF000
0000FFF000
0000FFE000
0001FFE000
0001FFE000
0003FFC000
0003FFC000
0003FF8000
0007FF8000
0007FF0000
000FFF0000
000FFF0000
001FFE0000
001FFE0000
001FFC0000
003FFC0000
003FFC0000
007FF80000
007FF80000
00FFF00000
ENDCHAR
STARTCHAR eight
ENCODING 56
SWIDTH 600 0
DWIDTH 45 0
BBX 39 54 3 -1
BITMAP
0003FF8000
003FFFF800
00FFFFFE00
03FFFFFF80
07FFFFFFC0
0FFFFFFFE0
1FFFFFFFF0
1FFFFFFFF0
3FFFFFFFF8
3FFF01FFF8
3FFC007FF8
7FF8003FFC
7FF0001FFC
7FF0001FFC
7FF0001FFC
7FF0001FFC
3FF0001FF8
3FF0001FF8
3FF0001FF8
1FF8003FF0
1FFC007FF0
0FFF01FFE0
07FFFFFFC0
03FFFFFF80
00FFFFFE00
003FFFF800
007FFFFC00
01FFFFFF00
07FFFFFFC0
0FFFFFFFE0
1FFFFFFFF0
3FFF01FFF8
7FFC007FFC
7FF8003FFC
FFF0001FFE
FFF0001FFE
FFF0001FFE
FFE0000FFE
FFE0000FFE
FFF0001FFE
FFF0001FFE
FFF0001FFE
FFF8003FFE
FFFC007FFE
7FFF01FFFC
7FFFFFFFFC
3FFFFFFFF8
1FFFFFFFF0
0FFFFFFFE0
07FFFFFFC0
03FFFFFF80
00FFFFFE00
003FFFF800
0003FF8000
ENDCHAR
STARTCHAR nine
ENCODING 57
SWIDTH 600 0
DWIDTH 45 0
BBX 40 53 2 0
BITMAP
0001FF8000
000FFFF800
003FFFFE00
00FFFFFF00
01FFFFFFC0
07FFFFFFE0
07FFFFFFF0
0FFFFFFFF0
1FFFFFFFF8
3FFF80FFFC
3FFE003FFC
3FFC001FFE
7FF8001FFE
7FF8000FFE
7FF0000FFE
7FF0000FFF
FFF0000FFF
FFF0000FFF
FFF0000FFF
FFF0000FFF
FFF0000FFF
7FF8000FFF
7FF8001FFF
7FFC001FFF
7FFE003FFF
3FFF80FFFF
3FFFFFFFFF
1FFFFFEFFE
1FFFFFEFFE
0FFFFFCFFE
07FFFFDFFE
03FFFF9FFC
01FFFF1FFC
007FFC3FF8
000FF03FF8
0000007FF8
000000FFF0
000000FFE0
000001FFE0
000003FFC0
000007FFC0
00000FFF80
00001FFF00
00003FFE00
00007FFE00
0000FFFC00
0003FFF800
0007FFF000
000FFFE000
003FFFC000
007FFF0000
00FFFE0000
07FFFC0000
ENDCHAR
STARTCHAR colon
ENCODING 58
SWIDTH 600 0
DWIDTH 45 0
BBX 15 40 15 -1
BITMAP
0FE0
3FF8
7FFC
FFFE
FFFE
FFFE
FFFE
FFFE
FFFE
FFFE
FFFE
FFFE
7FFC
3FF8
0FE0
0000
0000
0000
0000
0000
0000
0000
0000
0000
0000
0FE0
3FF8
7FFC
FFFE
FFFE
FFFE
FFFE
FFFE
FFFE
FFFE
FFFE
FFFE
7FFC
3FF8
0FE0
ENDCHAR
STARTCHAR semicolon
ENCODING 59
SWIDTH 600 0
DWIDTH 45 0
BBX 18 50 13 -11
BITMAP
03F800
0FFE00
1FFF00
3FFF80
3FFF80
3FFF80
3FFF80
3FFF80
3FFF80
3FFF80
3FFF80
3FFF80
1FFF00
0FFE00
03F800
000000
000000
000000
000000
000000
000000
000000
000000
000000
000000
000000
0FFFC0
0FFFC0
0FFF80
1FFF80
1FFF00
1FFF00
1FFF00
1FFE00
1FFE00
3FFC00
3FFC00
3FF800
3FF800
3FF800
7FF000
7FF000
7FE000
7FE000
7FC000
7FC000
FFC000
FF8000
FF8000
FF0000
ENDCHAR
STARTCHAR less
ENCODING 60
SWIDTH 600 0
DWIDTH 45 0
BBX 33 45 6 0
BITMAP
0000000080
0000000380
0000000F80
0000003F80
000000FF80
000003FF80
000007FF80
00001FFF80
00007FFF80
0001FFFF80
0007FFFF00
001FFFFE00
007FFFF800
01FFFFE000
03FFFF8000
0FFFFE0000
3FFFF80000
FFFFE00000
FFFF800000
FFFE000000
FFFC000000
FFF0000000
FFC0000000
FFF0000000
FFFC000000
FFFE000000
FFFF800000
FFFFE00000
3FFFF80000
0FFFFE0000
03FFFF8000
01FFFFE000
007FFFF800
001FFFFE00
0007FFFF00
0001FFFF80
00007FFF80
00001FFF80
00000FFF80
000003FF80
000000FF80
0000003F80
0000000F80
0000000380
0000000080
ENDCHAR
STARTCHAR equal
ENCODING 61
SWIDTH 600 0
DWIDTH 45 0
BBX 35 26 5 10
BITMAP
FFFFFFFFE0
FFFFFFFFE0
FFFFFFFFE0
FFFFFFFFE0
FFFFFFFFE0
FFFFFFFFE0
FFFFFFFFE0
FFFFFFFFE0
FFFFFFFFE0
0000000000
0000000000
0000000000
0000000000
0000000000
0000000000
0000000000
0000000000
FFFFFFFFE0
FFFFFFFFE0
FFFFFFFFE0
FFFFFFFFE0
FFFFFFFFE0
FFFFFFFFE0
FFFFFFFFE0
FFFFFFFFE0
FFFFFFFFE0
ENDCHAR
STARTCHAR greater
ENCODING 62
SWIDTH 600 0
DWIDTH 45 0
BBX 33 45 6 0
BITMAP
8000000000
E000000000
F800000000
FE00000000
FF80000000
FFE0000000
FFF8000000
FFFC000000
FFFF000000
FFFFC00000
7FFFF00000
3FFFFC0000
0FFFFF0000
03FFFFC000
00FFFFE000
003FFFF800
000FFFFE00
0003FFFF80
0000FFFF80
00003FFF80
00001FFF80
000007FF80
000001FF80
000007FF80
00001FFF80
00003FFF80
0000FFFF80
0003FFFF80
000FFFFE00
003FFFF800
00FFFFE000
03FFFFC000
0FFFFF0000
3FFFFC0000
7FFFF00000
FFFFC00000
FFFF000000
FFFC000000
FFF0000000
FFE0000000
FF80000000
FE00000000
F800000000
E000000000
8000000000
ENDCHAR
STARTCHAR question
ENCODING 63
SWIDTH 600 0
DWIDTH 45 0
BBX 35 54 5 -1
BITMAP
000FFC0000
007FFF8000
01FFFFE000
07FFFFF800
0FFFFFFC00
1FFFFFFE00
3FFFFFFF00
7FFFFFFF80
7FFFFFFF80
FFFC1FFFC0
FFF007FFC0
FFE003FFC0
3FC001FFC0
0F8001FFC0
018001FFE0
000001FFE0
000001FFC0
000001FFC0
000003FFC0
000003FFC0
000007FF80
00001FFF80
0000FFFF00
001FFFFE00
001FFFFC00
001FFFF800
001FFFF000
001FFFC000
001FFE0000
001FF80000
001FF80000
001FF80000
001FF80000
001FF80000
0000000000
0000000000
0000000000
0000000000
0000000000
000FF00000
001FF80000
003FFC0000
007FFE0000
007FFE0000
007FFE0000
007FFE0000
007FFE0000
007FFE0000
007FFE0000
007FFE0000
007FFE0000
003FFC0000
001FF80000
000FF00000
ENDCHAR
STARTCHAR at
ENCODING 64
SWIDTH 600 0
DWIDTH 45 0
BBX 38 61 3 -8
BITMAP
0001FF8000
001FFFF000
007FFFFC00
00FFFFFF00
01FFFFFF80
03FFFFFFC0
07FFFFFFE0
0FFF00FFF0
0FFC003FF0
1FF8001FF8
1FF0000FF8
3FE00007F8
3FC00007FC
3FC00003FC
7FC00003FC
7F800FC3FC
7F803FE3FC
7F807FF3FC
7F80FFFBFC
FF80FFFFFC
FF01FFFFFC
FF01FF0FFC
FF03FE03FC
FF03FE03FC
FF03FC03FC
FF03FC03FC
FF03FC03FC
FF03FC03FC
FF03FC03FC
FF03FC03FC
FF03FC03FC
FF03FC03FC
FF03FC03FC
FF03FC03FC
FF03FC03FC
FF03FC03FC
FF03FC03FC
FF03FC03FC
FF03FE03FC
FF03FE07FC
7F81FF0FFC
7F81FFFFFC
7F80FFFFFC
7F80FFFBFC
7F807FFBFC
7FC03FF3FC
3FC00FC000
3FC0000000
3FE0000000
1FF0000000
1FF8000000
0FFC000000
0FFE000000
07FFC00000
03FFFFFC00
01FFFFFC00
00FFFFFC00
007FFFFC00
001FFFFC00
0007FFFC00
00007FFC00
ENDCHAR
STARTCHAR A
ENCODING 65
SWIDTH 600 0
DWIDTH 45 0
BBX 45 52 0 0
BITMAP
0003FFFE0000
0003FFFE0000
0003FFFE0000
0003FFFE0000
0007FFFF0000
0007FFFF0000
0007FFFF0000
000FFFFF8000
000FFFFF8000
000FFFFF8000
000FFFFF8000
001FFDFFC000
001FF9FFC000
001FF9FFC000
001FF9FFC000
003FF8FFE000
003FF0FFE000
003FF0FFE000
007FF07FE000
007FF07FF000
007FE07FF000
007FE07FF000
00FFE03FF800
00FFE03FF800
00FFC03FF800
00FFC03FF800
01FFC01FFC00
01FF801FFC00
01FF801FFC00
03FF801FFC00
03FFFFFFFE00
03FFFFFFFE00
03FFFFFFFE00
07FFFFFFFF00
07FFFFFFFF00
07FFFFFFFF00
07FFFFFFFF00
0FFFFFFFFF80
0FFFFFFFFF80
0FFE0007FF80
1FFE0003FF80
1FFC0003FFC0
1FFC0003FFC0
1FFC0003FFC0
3FFC0001FFE0
3FF80001FFE0
3FF80001FFE0
3FF80001FFE0
7FF80000FFF0
7FF00000FFF0
7FF00000FFF0
FFF00000FFF8
ENDCHAR
STARTCHAR B
ENCODING 66
SWIDTH 600 0
DWIDTH 45 0
BBX 36 52 6 0
BITMAP
FFFFFE0000
FFFFFFC000
FFFFFFF000
FFFFFFFC00
FFFFFFFE00
FFFFFFFF00
FFFFFFFF00
FFFFFFFF80
FFE01FFF80
FFE007FF80
FFE003FFC0
FFE003FFC0
FFE003FFC0
FFE001FFC0
FFE001FFC0
FFE001FFC0
FFE001FFC0
FFE003FFC0
FFE003FF80
FFE003FF80
FFE007FF00
FFE01FFE00
FFFFFFFC00
FFFFFFF800
FFFFFFE000
FFFFFFC000
FFFFFFF800
FFFFFFFE00
FFFFFFFF00
FFFFFFFF80
FFE00FFFC0
FFE001FFC0
FFE001FFE0
FFE000FFE0
FFE000FFE0
FFE000FFF0
FFE000FFF0
FFE000FFF0
FFE000FFF0
FFE000FFF0
FFE000FFE0
FFE001FFE0
FFE001FFE0
FFE007FFE0
FFFFFFFFC0
FFFFFFFFC0
FFFFFFFF80
FFFFFFFF00
FFFFFFFE00
FFFFFFFC00
FFFFFFF000
FFFFFF8000
ENDCHAR
STARTCHAR C
ENCODING 67
SWIDTH 600 0
DWIDTH 45 0
BBX 39 54 3 -1
BITMAP
0000FFC000
000FFFF800
003FFFFE00
007FFFFF00
01FFFFFFC0
03FFFFFFE0
03FFFFFFE0
07FFFFFFF0
0FFFFFFFF8
0FFF81FFF8
1FFF007FFC
1FFE003FFC
3FFC001FFE
3FFC001FFE
3FF8000FFE
7FF8000FF8
7FF8000F80
7FF0000800
7FF0000000
7FF0000000
FFF0000000
FFF0000000
FFF0000000
FFF0000000
FFF0000000
FFF0000000
FFF0000000
FFF0000000
FFF0000000
FFF0000000
FFF0000000
FFF0000000
FFF0000000
FFF0000000
7FF0000000
7FF0000000
7FF0000800
7FF8000F80
7FF8000FF8
3FF8000FFE
3FFC001FFE
3FFC001FFE
1FFE003FFC
1FFF007FFC
0FFF81FFF8
0FFFFFFFF8
07FFFFFFF0
03FFFFFFE0
03FFFFFFE0
01FFFFFFC0
007FFFFF80
003FFFFE00
000FFFF800
0001FFC000
ENDCHAR
STARTCHAR D
ENCODING 68
SWIDTH 600 0
DWIDTH 45 0
BBX 37 52 5 0
BITMAP
FFFFFC0000
FFFFFF8000
FFFFFFF000
FFFFFFF800
FFFFFFFC00
FFFFFFFE00
FFFFFFFF00
FFFFFFFF80
FFFFFFFFC0
FFE01FFFC0
FFE003FFE0
FFE001FFE0
FFE001FFE0
FFE000FFF0
FFE000FFF0
FFE0007FF0
FFE0007FF8
FFE0007FF8
FFE0007FF8
FFE0003FF8
FFE0003FF8
FFE0003FF8
FFE0003FF8
FFE0003FF8
FFE0003FF8
FFE0003FF8
FFE0003FF8
FFE0003FF8
FFE0003FF8
FFE0003FF8
FFE0003FF8
FFE0003FF8
FFE0007FF8
FFE0007FF8
FFE0007FF8
FFE0007FF8
FFE0007FF0
FFE000FFF0
FFE000FFF0
FFE001FFE0
FFE001FFE0
FFE003FFE0
FFE01FFFC0
FFFFFFFFC0
FFFFFFFF80
FFFFFFFF00
FFFFFFFE00
FFFFFFFC00
FFFFFFF800
FFFFFFE000
FFFFFFC000
FFFFFC0000
ENDCHAR
STARTCHAR E
ENCODING 69
SWIDTH 600 0
DWIDTH 45 0
BBX 33 52 6 0
BITMAP
FFFFFFFF80
FFFFFFFF80
FFFFFFFF80
FFFFFFFF80
FFFFFFFF80
FFFFFFFF80
FFFFFFFF80
FFFFFFFF80
FFFFFFFF80
FFE0000000
FFE0000000
FFE0000000
FFE0000000
FFE0000000
FFE0000000
FFE0000000
FFE0000000
FFE0000000
FFE0000000
FFE0000000
FFE0000000
FFFFFFFF80
FFFFFFFF80
FFFFFFFF80
FFFFFFFF80
FFFFFFFF80
FFFFFFFF80
FFFFFFFF80
FFFFFFFF80
FFFFFFFF80
FFE0000000
FFE0000000
FFE0000000
FFE0000000
FFE0000000
FFE0000000
FFE0000000
FFE0000000
FFE0000000
FFE0000000
FFE0000000
FFE0000000
FFE0000000
FFFFFFFF80
FFFFFFFF80
FFFFFFFF80
FFFFFFFF80
FFFFFFFF80
FFFFFFFF80
FFFFFFFF80
FFFFFFFF80
FFFFFFFF80
ENDCHAR
STARTCHAR F
ENCODING 70
SWIDTH 600 0
DWIDTH 45 0
BBX 35 52 6 0
BITMAP
FFFFFFFFE0
FFFFFFFFE0
FFFFFFFFE0
FFFFFFFFE0
FFFFFFFFE0
FFFFFFFFE0
FFFFFFFFE0
FFFFFFFFE0
FFFFFFFFE0
FFE0000000
FFE0000000
FFE0000000
FFE0000000
FFE0000000
FFE0000000
FFE0000000
FFE0000000
FFE0000000
FFE0000000
FFE0000000
FFE0000000
FFFFFFFF00
FFFFFFFF00
FFFFFFFF00
FFFFFFFF00
FFFFFFFF00
FFFFFFFF00
FFFFFFFF00
FFFFFFFF00
FFFFFFFF00
FFE0000000
FFE0000000
FFE0000000
FFE0000000
FFE0000000
FFE0000000
FFE0000000
FFE0000000
FFE0000000
FFE0000000
FFE0000000
FFE0000000
FFE0000000
FFE0000000
FFE0000000
FFE0000000
FFE0000000
FFE0000000
FFE0000000
FFE0000000
FFE0000000
FFE0000000
ENDCHAR
STARTCHAR G
ENCODING 71
SWIDTH 600 0
DWIDTH 45 0
BBX 38 54 3 -1
BITMAP
0001FF8000
001FFFF000
007FFFFC00
00FFFFFE00
01FFFFFF00
03FFFFFF80
07FFFFFFC0
0FFFFFFFE0
0FFFFFFFE0
1FFF03FFF0
1FFE00FFF0
3FFC007FF8
3FF8007FF8
7FF8003FF8
7FF8003FFC
7FF0001FF0
7FF0001F00
FFF0001000
FFF0000000
FFF0000000
FFF0000000
FFF0000000
FFF0000000
FFF0000000
FFF01FFFFC
FFF01FFFFC
FFF01FFFFC
FFF01FFFFC
FFF01FFFFC
FFF01FFFFC
FFF01FFFFC
FFF01FFFFC
FFF01FFFFC
FFF0000FFC
FFF0000FFC
FFF0000FFC
FFF0000FFC
FFF0000FFC
7FF0000FFC
7FF8000FFC
7FF8001FFC
7FFC001FFC
3FFC003FFC
3FFE007FFC
3FFF81FFFC
1FFFFFFFFC
1FFFFFEFFC
0FFFFFCFFC
07FFFFCFFC
07FFFF8FFC
03FFFF0FFC
00FFFE0FFC
007FFC0FFC
000FE00000
ENDCHAR
STARTCHAR H
ENCODING 72
SWIDTH 600 0
DWIDTH 45 0
BBX 35 52 5 0
BITMAP
FFE000FFE0
FFE000FFE0
FFE000FFE0
FFE000FFE0
FFE000FFE0
FFE000FFE0
FFE000FFE0
FFE000FFE0
FFE000FFE0
FFE000FFE0
FFE000FFE0
FFE000FFE0
FFE000FFE0
FFE000FFE0
FFE000FFE0
FFE000FFE0
FFE000FFE0
FFE000FFE0
FFE000FFE0
FFE000FFE0
FFE000FFE0
FFFFFFFFE0
FFFFFFFFE0
FFFFFFFFE0
FFFFFFFFE0
FFFFFFFFE0
FFFFFFFFE0
FFFFFFFFE0
FFFFFFFFE0
FFFFFFFFE0
FFE000FFE0
FFE000FFE0
FFE000FFE0
FFE000FFE0
FFE000FFE0
FFE000FFE0
FFE000FFE0
FFE000FFE0
FFE000FFE0
FFE000FFE0
FFE000FFE0
FFE000FFE0
FFE000FFE0
FFE000FFE0
FFE000FFE0
FFE000FFE0
FFE000FFE0
FFE000FFE0
FFE000FFE0
FFE000FFE0
FFE000FFE0
FFE000FFE0
ENDCHAR
STARTCHAR I
ENCODING 73
SWIDTH 600 0
DWIDTH 45 0
BBX 33 52 6 0
BITMAP
FFFFFFFF80
FFFFFFFF80
FFFFFFFF80
FFFFFFFF80
FFFFFFFF80
FFFFFFFF80
FFFFFFFF80
FFFFFFFF80
FFFFFFFF80
001FFC0000
001FFC0000
001FFC0000
001FFC0000
001FFC0000
001FFC0000
001FFC0000
001FFC0000
001FFC0000
001FFC0000
001FFC0000
001FFC0000
001FFC0000
001FFC0000
001FFC0000
001FFC0000
001FFC0000
001FFC0000
001FFC0000
001FFC0000
001FFC0000
001FFC0000
001FFC0000
001FFC0000
001FFC0000
001FFC0000
001FFC0000
001FFC0000
001FFC0000
001FFC0000
001FFC0000
001FFC0000
001FFC0000
001FFC0000
FFFFFFFF80
FFFFFFFF80
FFFFFFFF80
FFFFFFFF80
FFFFFFFF80
FFFFFFFF80
FFFFFFFF80
FFFFFFFF80
FFFFFFFF80
ENDCHAR
STARTCHAR J
ENCODING 74
SWIDTH 600 0
DWIDTH 45 0
BBX 35 53 3 -1
BITMAP
01FFFFFFE0
01FFFFFFE0
01FFFFFFE0
01FFFFFFE0
01FFFFFFE0
01FFFFFFE0
01FFFFFFE0
01FFFFFFE0
01FFFFFFE0
000000FFE0
000000FFE0
000000FFE0
000000FFE0
000000FFE0
000000FFE0
000000FFE0
000000FFE0
000000FFE0
000000FFE0
000000FFE0
000000FFE0
000000FFE0
000000FFE0
000000FFE0
000000FFE0
000000FFE0
000000FFE0
000000FFE0
000000FFE0
000000FFE0
000000FFE0
000000FFE0
000000FFE0
000000FFE0
000000FFE0
000000FFE0
002000FFE0
07E000FFE0
FFE000FFE0
FFE000FFE0
FFF001FFE0
7FF001FFE0
7FF803FFE0
7FFE0FFFC0
3FFFFFFFC0
3FFFFFFF80
1FFFFFFF80
0FFFFFFF00
07FFFFFE00
03FFFFFC00
01FFFFF000
007FFFC000
0007FE0000
ENDCHAR
STARTCHAR K
ENCODING 75
SWIDTH 600 0
DWIDTH 45 0
BBX 40 52 5 0
BITMAP
FFE0001FFE
FFE0003FFC
FFE0007FFC
FFE000FFF8
FFE000FFF0
FFE001FFF0
FFE003FFE0
FFE003FFC0
FFE007FF80
FFE00FFF80
FFE01FFF00
FFE01FFE00
FFE03FFE00
FFE07FFC00
FFE07FF800
FFE0FFF000
FFE1FFF000
FFE1FFE000
FFE3FFC000
FFE7FFC000
FFE7FF8000
FFEFFF0000
FFFFFF0000
FFFFFF8000
FFFFFF8000
FFFFFFC000
FFFFFFC000
FFFFFFE000
FFFFFFE000
FFFFFFF000
FFFFFFF000
FFFE7FF800
FFFC7FFC00
FFFC3FFC00
FFF83FFE00
FFF01FFE00
FFF01FFF00
FFE00FFF00
FFE00FFF80
FFE007FF80
FFE007FFC0
FFE003FFC0
FFE003FFE0
FFE001FFF0
FFE000FFF0
FFE000FFF8
FFE0007FF8
FFE0007FFC
FFE0003FFC
FFE0003FFE
FFE0001FFE
FFE0001FFF
ENDCHAR
STARTCHAR L
ENCODING 76
SWIDTH 600 0
DWIDTH 45 0
BBX 34 52 7 0
BITMAP
FFE0000000
FFE0000000
FFE0000000
FFE0000000
FFE0000000
FFE0000000
FFE0000000
FFE0000000
FFE0000000
FFE0000000
FFE0000000
FFE0000000
FFE0000000
FFE0000000
FFE0000000
FFE0000000
FFE0000000
FFE0000000
FFE0000000
FFE0000000
FFE0000000
FFE0000000
FFE0000000
FFE0000000
FFE0000000
FFE0000000
FFE0000000
FFE0000000
FFE0000000
FFE0000000
FFE0000000
FFE0000000
FFE0000000
FFE0000000
FFE0000000
FFE0000000
FFE0000000
FFE0000000
FFE0000000
FFE0000000
FFE0000000
FFE0000000
FFE0000000
FFFFFFFFC0
FFFFFFFFC0
FFFFFFFFC0
FFFFFFFFC0
FFFFFFFFC0
FFFFFFFFC0
FFFFFFFFC0
FFFFFFFFC0
FFFFFFFFC0
ENDCHAR
STARTCHAR M
ENCODING 77
SWIDTH 600 0
DWIDTH 45 0
BBX 39 52 3 0
BITMAP
FFF8001FFE
FFFC003FFE
FFFC003FFE
FFFE007FFE
FFFE007FFE
FFFE007FFE
FFFF00FFFE
FFFF00FFFE
FFFF00FFFE
FFFF81FFFE
FFFF81FFFE
FFFF83FFFE
FFFFC3FFFE
FFFFC3FFFE
FFBFE7FBFE
FFBFE7FBFE
FF9FE7FBFE
FF9FFFF3FE
FF9FFFF3FE
FF8FFFE3FE
FF8FFFE3FE
FF8FFFE3FE
FF87FFC3FE
FF87FFC3FE
FF87FFC7FE
FFC3FF87FE
FFC3FF87FE
FFC1FF07FE
FFC1FF07FE
FFC1FF07FE
FFC0FE07FE
FFC0FE07FE
FFC0FE07FE
FFC07C07FE
FFC07C07FE
FFC07C07FE
FFC03807FE
FFC03807FE
FFC01007FE
FFC01007FE
FFC01007FE
FFC00007FE
FFC00007FE
FFC00007FE
FFC00007FE
FFC00007FE
FFC00007FE
FFC00007FE
FFC00007FE
FFC00007FE
FFC00007FE
FFC00007FE
ENDCHAR
STARTCHAR N
ENCODING 78
SWIDTH 600 0
DWIDTH 45 0
BBX 35 52 5 0
BITMAP
FFF8003FE0
FFFC003FE0
FFFC003FE0
FFFC003FE0
FFFE003FE0
FFFE003FE0
FFFE003FE0
FFFF003FE0
FFFF003FE0
FFFF003FE0
FFFF803FE0
FFFF803FE0
FFFF803FE0
FFFFC03FE0
FFFFC03FE0
FFFFC03FE0
FFFFE03FE0
FFFFE03FE0
FFBFE03FE0
FF9FF03FE0
FF9FF03FE0
FF9FF83FE0
FF8FF83FE0
FF8FF83FE0
FF8FFC3FE0
FF87FC3FE0
FF87FC3FE0
FF87FE3FE0
FF83FE3FE0
FF83FE3FE0
FF83FF3FE0
FF81FF3FE0
FF81FF3FE0
FF80FFBFE0
FF80FFFFE0
FF80FFFFE0
FF807FFFE0
FF807FFFE0
FF807FFFE0
FF803FFFE0
FF803FFFE0
FF803FFFE0
FF801FFFE0
FF801FFFE0
FF801FFFE0
FF800FFFE0
FF800FFFE0
FF800FFFE0
FF8007FFE0
FF8007FFE0
FF8007FFE0
FF8003FFE0
ENDCHAR
STARTCHAR O
ENCODING 79
SWIDTH 600 0
DWIDTH 45 0
BBX 41 54 2 -1
BITMAP
0001FFC00000
000FFFF80000
003FFFFE0000
00FFFFFF8000
01FFFFFFC000
03FFFFFFE000
07FFFFFFF000
07FFFFFFF000
0FFFFFFFF800
0FFF80FFF800
1FFF007FFC00
1FFE003FFC00
3FFC001FFE00
3FF8000FFE00
3FF8000FFE00
7FF8000FFF00
7FF8000FFF00
7FF00007FF00
7FF00007FF00
FFF00007FF00
FFF00007FF80
FFF00007FF80
FFF00007FF80
FFF00007FF80
FFF00007FF80
FFF00007FF80
FFF00007FF80
FFF00007FF80
FFF00007FF80
FFF00007FF80
FFF00007FF80
FFF00007FF80
FFF00007FF80
FFF00007FF80
7FF00007FF00
7FF00007FF00
7FF00007FF00
7FF8000FFF00
7FF8000FFF00
3FF8000FFE00
3FF8000FFE00
3FFC001FFE00
1FFE003FFC00
1FFF007FFC00
0FFF80FFF800
0FFFFFFFF800
07FFFFFFF000
07FFFFFFF000
03FFFFFFE000
01FFFFFFC000
00FFFFFF0000
003FFFFE0000
000FFFF80000
0001FFC00000
ENDCHAR
STARTCHAR P
ENCODING 80
SWIDTH 600 0
DWIDTH 45 0
BBX 36 52 6 0
BITMAP
FFFFFF8000
FFFFFFF000
FFFFFFF800
FFFFFFFE00
FFFFFFFF00
FFFFFFFF80
FFFFFFFF80
FFFFFFFFC0
FFFFFFFFC0
FFE007FFE0
FFE001FFE0
FFE001FFE0
FFE000FFF0
FFE000FFF0
FFE000FFF0
FFE000FFF0
FFE000FFF0
FFE000FFF0
FFE000FFF0
FFE000FFF0
FFE000FFF0
FFE001FFE0
FFE001FFE0
FFE007FFE0
FFFFFFFFE0
FFFFFFFFC0
FFFFFFFF80
FFFFFFFF80
FFFFFFFF00
FFFFFFFE00
FFFFFFF800
FFFFFFF000
FFFFFF0000
FFE0000000
FFE0000000
FFE0000000
FFE0000000
FFE0000000
FFE0000000
FFE0000000
FFE0000000
FFE0000000
FFE0000000
FFE0000000
FFE0000000
FFE0000000
FFE0000000
FFE0000000
FFE0000000
FFE0000000
FFE0000000
FFE0000000
ENDCHAR
STARTCHAR Q
ENCODING 81
SWIDTH 600 0
DWIDTH 45 0
BBX 41 68 2 -15
BITMAP
0001FFC00000
000FFFF80000
003FFFFE0000
00FFFFFF8000
01FFFFFFC000
03FFFFFFE000
07FFFFFFF000
07FFFFFFF000
0FFFFFFFF800
1FFF80FFF800
1FFF007FFC00
1FFE003FFC00
3FFC001FFE00
3FF8000FFE00
3FF8000FFE00
7FF8000FFF00
7FF8000FFF00
7FF00007FF00
7FF00007FF00
FFF00007FF00
FFF00007FF80
FFF00007FF80
FFF00007FF80
FFF00007FF80
FFF00007FF80
FFF00007FF80
FFF00007FF80
FFF00007FF80
FFF00007FF80
FFF00007FF80
FFF00007FF80
FFF00007FF80
FFF00007FF80
FFF00007FF80
7FF00007FF00
7FF00007FF00
7FF8000FFF00
7FF8000FFF00
7FF8000FFF00
3FF8000FFE00
3FFC001FFE00
3FFC003FFE00
1FFE003FFC00
1FFF80FFFC00
0FFFFFFFF800
0FFFFFFFF800
07FFFFFFF000
03FFFFFFE000
01FFFFFFC000
00FFFFFF8000
007FFFFF0000
001FFFFC0000
0007FFE00000
0000FF800000
0000FF800000
0000FF800000
0000FF800000
0000FF800000
0000FF800000
0000FFFFF800
0000FFFFF800
0000FFFFF800
00007FFFF800
00007FFFF800
00003FFFF800
00001FFFF800
00000FFFF800
000001FFF800
ENDCHAR
STARTCHAR R
ENCODING 82
SWIDTH 600 0
DWIDTH 45 0
BBX 37 52 6 0
BITMAP
FFFFFF8000
FFFFFFF000
FFFFFFF800
FFFFFFFE00
FFFFFFFF00
FFFFFFFF80
FFFFFFFF80
FFFFFFFFC0
FFFFFFFFC0
FFE007FFE0
FFE001FFE0
FFE001FFE0
FFE000FFF0
FFE000FFF0
FFE000FFF0
FFE000FFF0
FFE000FFF0
FFE000FFF0
FFE000FFF0
FFE000FFF0
FFE000FFF0
FFE001FFE0
FFE001FFE0
FFE007FFE0
FFFFFFFFC0
FFFFFFFFC0
FFFFFFFF80
FFFFFFFF80
FFFFFFFF00
FFFFFFFE00
FFFFFFF800
FFFFFFE000
FFFFFFE000
FFE0FFF000
FFE07FF000
FFE07FF800
FFE03FF800
FFE03FFC00
FFE01FFC00
FFE01FFE00
FFE01FFE00
FFE00FFF00
FFE00FFF00
FFE007FF80
FFE007FF80
FFE003FFC0
FFE003FFC0
FFE001FFE0
FFE001FFE0
FFE000FFF0
FFE000FFF0
FFE0007FF8
ENDCHAR
STARTCHAR S
ENCODING 83
SWIDTH 600 0
DWIDTH 45 0
BBX 40 54 2 -1
BITMAP
0000FFE000
000FFFFE00
003FFFFF80
00FFFFFFE0
01FFFFFFF8
03FFFFFFFC
07FFFFFFFE
0FFFFFFFFE
0FFFFFFFFC
1FFFC07FF8
1FFF000FF0
1FFE0003E0
1FFC0001C0
1FFC000080
3FFC000000
3FFC000000
3FFC000000
3FFC000000
1FFE000000
1FFF000000
1FFF800000
1FFFF80000
0FFFFFE000
0FFFFFFC00
07FFFFFF80
03FFFFFFC0
03FFFFFFF0
00FFFFFFF8
007FFFFFF8
001FFFFFFC
0003FFFFFC
00000FFFFE
0000007FFE
0000003FFE
0000001FFF
0000000FFF
0000000FFF
0000000FFF
0000000FFF
0200000FFF
0780000FFE
0FC0001FFE
0FE0001FFE
1FF8003FFE
3FFF00FFFC
7FFFFFFFFC
FFFFFFFFF8
3FFFFFFFF0
1FFFFFFFE0
0FFFFFFFC0
03FFFFFF80
01FFFFFE00
003FFFF800
0003FF8000
ENDCHAR
STARTCHAR T
ENCODING 84
SWIDTH 600 0
DWIDTH 45 0
BBX 41 52 2 0
BITMAP
FFFFFFFFFF80
FFFFFFFFFF80
FFFFFFFFFF80
FFFFFFFFFF80
FFFFFFFFFF80
FFFFFFFFFF80
FFFFFFFFFF80
FFFFFFFFFF80
FFFFFFFFFF80
0001FFC00000
0001FFC00000
0001FFC00000
0001FFC00000
0001FFC00000
0001FFC00000
0001FFC00000
0001FFC00000
0001FFC00000
0001FFC00000
0001FFC00000
0001FFC00000
0001FFC00000
0001FFC00000
0001FFC00000
0001FFC00000
0001FFC00000
0001FFC00000
0001FFC00000
0001FFC00000
0001FFC00000
0001FFC00000
0001FFC00000
0001FFC00000
0001FFC00000
0001FFC00000
0001FFC00000
0001FFC00000
0001FFC00000
0001FFC00000
0001FFC00000
0001FFC00000
0001FFC00000
0001FFC00000
0001FFC00000
0001FFC00000
0001FFC00000
0001FFC00000
0001FFC00000
0001FFC00000
0001FFC00000
0001FFC00000
0001FFC00000
ENDCHAR
STARTCHAR U
ENCODING 85
SWIDTH 600 0
DWIDTH 45 0
BBX 37 53 4 -1
BITMAP
FFE0003FF8
FFE0003FF8
FFE0003FF8
FFE0003FF8
FFE0003FF8
FFE0003FF8
FFE0003FF8
FFE0003FF8
FFE0003FF8
FFE0003FF8
FFE0003FF8
FFE0003FF8
FFE0003FF8
FFE0003FF8
FFE0003FF8
FFE0003FF8
FFE0003FF8
FFE0003FF8
FFE0003FF8
FFE0003FF8
FFE0003FF8
FFE0003FF8
FFE0003FF8
FFE0003FF8
FFE0003FF8
FFE0003FF8
FFE0003FF8
FFE0003FF8
FFE0003FF8
FFE0003FF8
FFE0003FF8
FFE0003FF8
FFE0003FF8
FFE0003FF8
FFE0003FF8
FFE0003FF8
FFE0003FF8
FFF0007FF8
FFF0007FF8
7FF0007FF0
7FF0007FF0
7FF800FFF0
7FFC01FFF0
7FFE03FFF0
3FFFFFFFE0
3FFFFFFFE0
1FFFFFFFC0
1FFFFFFFC0
0FFFFFFF80
07FFFFFF00
01FFFFFC00
007FFFF000
000FFF0000
ENDCHAR
STARTCHAR V
ENCODING 86
SWIDTH 600 0
DWIDTH 45 0
BBX 43 52 1 0
BITMAP
FFF00001FFE0
FFF80001FFE0
FFF80001FFE0
7FF80001FFC0
7FF80003FFC0
7FF80003FFC0
7FFC0003FFC0
3FFC0003FF80
3FFC0007FF80
3FFC0007FF80
3FFE0007FF80
1FFE0007FF00
1FFE000FFF00
1FFE000FFF00
0FFF000FFE00
0FFF000FFE00
0FFF001FFE00
0FFF001FFE00
07FF801FFC00
07FF801FFC00
07FF801FFC00
07FF803FFC00
03FF803FF800
03FFC03FF800
03FFC03FF800
03FFC07FF800
01FFC07FF000
01FFE07FF000
01FFE07FF000
00FFE0FFE000
00FFE0FFE000
00FFE0FFE000
00FFF0FFE000
007FF0FFC000
007FF1FFC000
007FF1FFC000
007FF1FFC000
003FF9FF8000
003FF9FF8000
003FFBFF8000
003FFBFF8000
001FFFFF0000
001FFFFF0000
001FFFFF0000
000FFFFE0000
000FFFFE0000
000FFFFE0000
000FFFFE0000
0007FFFC0000
0007FFFC0000
0007FFFC0000
0007FFFC0000
ENDCHAR
STARTCHAR W
ENCODING 87
SWIDTH 600 0
DWIDTH 45 0
BBX 43 52 1 0
BITMAP
FFC000003FE0
FFC000003FE0
FFC000003FE0
FFC000003FE0
FFC000003FE0
FFC000003FE0
FFC000003FE0
FFC000003FE0
FFC000007FE0
FFC000007FE0
FFC000007FE0
7FC07FE07FC0
7FC0FFE07FC0
7FC0FFE07FC0
7FC0FFE07FC0
7FC0FFE07FC0
7FC0FFF07FC0
7FC0FFF07FC0
7FC1FFF07FC0
7FC1FFF07FC0
7FC1FFF07FC0
7FE1FFF07FC0
7FE1FFF07FC0
7FE1FBF87FC0
7FE1FBF87FC0
7FE3FBF87FC0
7FE3FBF87FC0
3FE3FBF87F80
3FE3F1F87F80
3FE3F1FCFF80
3FE3F1FCFF80
3FE3F1FCFF80
3FE7F1FCFF80
3FE7F1FCFF80
3FE7F1FCFF80
3FE7E0FCFF80
3FE7E0FEFF80
3FE7E0FEFF80
3FEFE0FEFF80
3FEFE0FEFF80
3FEFE0FEFF80
3FFFE0FFFF80
3FFFE0FFFF80
1FFFC07FFF00
1FFFC07FFF00
1FFFC07FFF00
1FFFC07FFF00
1FFFC07FFF00
1FFFC07FFF00
1FFFC07FFF00
1FFFC03FFF00
1FFF803FFF00
ENDCHAR
STARTCHAR X
ENCODING 88
SWIDTH 600 0
DWIDTH 45 0
BBX 43 52 1 0
BITMAP
7FFC0003FFC0
7FFC0003FFC0
3FFE0007FF80
1FFE0007FF00
1FFF000FFF00
0FFF000FFE00
0FFF801FFE00
07FF803FFC00
07FFC03FFC00
03FFC07FF800
03FFE07FF800
01FFE07FF000
01FFF0FFF000
00FFF0FFE000
007FF9FFC000
007FF9FFC000
003FFFFF8000
003FFFFF8000
001FFFFF0000
001FFFFF0000
000FFFFE0000
000FFFFE0000
0007FFFC0000
0003FFFC0000
0003FFF80000
0003FFF80000
0003FFF80000
0007FFFC0000
000FFFFC0000
000FFFFE0000
001FFFFE0000
001FFFFF0000
003FFFFF8000
003FFFFF8000
007FF3FFC000
007FF3FFC000
00FFE1FFE000
00FFE1FFE000
01FFC0FFF000
03FFC0FFF000
03FFC07FF800
07FF807FFC00
07FF803FFC00
0FFF003FFE00
0FFE001FFE00
1FFE001FFF00
1FFC000FFF00
3FFC000FFF80
3FF80007FF80
7FF80007FFC0
FFF00003FFC0
FFF00003FFE0
ENDCHAR
STARTCHAR Y
ENCODING 89
SWIDTH 600 0
DWIDTH 45 0
BBX 45 52 0 0
BITMAP
FFF80000FFF8
7FFC0000FFF0
3FFC0001FFE0
3FFC0001FFE0
1FFE0001FFC0
1FFE0003FFC0
0FFF0003FF80
0FFF0007FF80
07FF8007FF00
07FF800FFF00
07FFC00FFF00
03FFC01FFE00
03FFE01FFE00
01FFE03FFC00
01FFE03FFC00
00FFF03FF800
00FFF07FF800
007FF87FF000
007FF8FFF000
003FF8FFE000
003FFCFFE000
001FFDFFC000
001FFFFFC000
000FFFFF8000
000FFFFF8000
0007FFFF0000
0007FFFF0000
0003FFFE0000
0003FFFE0000
0001FFFC0000
0001FFFC0000
0000FFF80000
0000FFF80000
00007FF00000
00007FF00000
00007FF00000
00007FF00000
00007FF00000
00007FF00000
00007FF00000
00007FF00000
00007FF00000
00007FF00000
00007FF00000
00007FF00000
00007FF00000
00007FF00000
00007FF00000
00007FF00000
00007FF00000
00007FF00000
00007FF00000
ENDCHAR
STARTCHAR Z
ENCODING 90
SWIDTH 600 0
DWIDTH 45 0
BBX 37 52 4 0
BITMAP
FFFFFFFFF8
FFFFFFFFF8
FFFFFFFFF8
FFFFFFFFF8
FFFFFFFFF8
FFFFFFFFF8
FFFFFFFFF8
FFFFFFFFF8
FFFFFFFFF8
000000FFF8
000001FFF0
000003FFE0
000007FFC0
000007FFC0
00000FFF80
00001FFF00
00003FFF00
00003FFE00
00007FFC00
0000FFF800
0000FFF800
0001FFF000
0003FFE000
0007FFC000
0007FFC000
000FFF8000
001FFF0000
003FFF0000
003FFE0000
007FFC0000
00FFF80000
00FFF80000
01FFF00000
03FFE00000
07FFC00000
07FFC00000
0FFF800000
1FFF000000
3FFE000000
3FFE000000
7FFC000000
FFF8000000
FFF8000000
FFFFFFFFF8
FFFFFFFFF8
FFFFFFFFF8
FFFFFFFFF8
FFFFFFFFF8
FFFFFFFFF8
FFFFFFFFF8
FFFFFFFFF8
FFFFFFFFF8
ENDCHAR
STARTCHAR bracketleft
ENCODING 91
SWIDTH 600 0
DWIDTH 45 0
BBX 24 67 14 -10
BITMAP
FFFFFF
FFFFFF
FFFFFF
FFFFFF
FFFFFF
FFFFFF
FFFFFF
FF8000
FF8000
FF8000
FF8000
FF8000
FF8000
FF8000
FF8000
FF8000
FF8000
FF8000
FF8000
FF8000
FF8000
FF8000
FF8000
FF8000
FF8000
FF8000
FF8000
FF8000
FF8000
FF8000
FF8000
FF8000
FF8000
FF8000
FF8000
FF8000
FF8000
FF8000
FF8000
FF8000
FF8000
FF8000
FF8000
FF8000
FF8000
FF8000
FF8000
FF8000
FF8000
FF8000
FF8000
FF8000
FF8000
FF8000
FF8000
FF8000
FF8000
FF8000
FF8000
FF8000
FFFFFF
FFFFFF
FFFFFF
FFFFFF
FFFFFF
FFFFFF
FFFFFF
ENDCHAR
STARTCHAR backslash
ENCODING 92
SWIDTH 600 0
DWIDTH 45 0
BBX 35 67 5 -10
BITMAP
FFE0000000
7FE0000000
7FE0000000
3FF0000000
3FF0000000
3FF0000000
1FF8000000
1FF8000000
0FFC000000
0FFC000000
0FFC000000
07FE000000
07FE000000
07FE000000
03FF000000
03FF000000
03FF000000
01FF800000
01FF800000
01FF800000
00FFC00000
00FFC00000
007FE00000
007FE00000
007FE00000
003FF00000
003FF00000
003FF00000
001FF80000
001FF80000
001FF80000
000FFC0000
000FFC0000
000FFE0000
0007FE0000
0007FE0000
0003FF0000
0003FF0000
0003FF0000
0001FF8000
0001FF8000
0001FF8000
0000FFC000
0000FFC000
0000FFC000
00007FE000
00007FE000
00003FF000
00003FF000
00003FF000
00001FF800
00001FF800
00001FF800
00000FFC00
00000FFC00
00000FFC00
000007FE00
000007FE00
000007FE00
000003FF00
000003FF00
000001FF80
000001FF80
000001FF80
000000FFC0
000000FFC0
000000FFE0
ENDCHAR
STARTCHAR bracketright
ENCODING 93
SWIDTH 600 0
DWIDTH 45 0
BBX 24 67 7 -10
BITMAP
FFFFFF
FFFFFF
FFFFFF
FFFFFF
FFFFFF
FFFFFF
FFFFFF
0001FF
0001FF
0001FF
0001FF
0001FF
0001FF
0001FF
0001FF
0001FF
0001FF
0001FF
0001FF
0001FF
0001FF
0001FF
0001FF
0001FF
0001FF
0001FF
0001FF
0001FF
0001FF
0001FF
0001FF
0001FF
0001FF
0001FF
0001FF
0001FF
0001FF
0001FF
0001FF
0001FF
0001FF
0001FF
0001FF
0001FF
0001FF
0001FF
0001FF
0001FF
0001FF
0001FF
0001FF
0001FF
0001FF
0001FF
0001FF
0001FF
0001FF
0001FF
0001FF
0001FF
FFFFFF
FFFFFF
FFFFFF
FFFFFF
FFFFFF
FFFFFF
FFFFFF
ENDCHAR
STARTCHAR asciicircum
ENCODING 94
SWIDTH 600 0
DWIDTH 45 0
BBX 41 34 2 18
BITMAP
0003FFE00000
0003FFE00000
0007FFF00000
0007FFF00000
000FFFF80000
000FFFF80000
000FFFFC0000
001FFFFC0000
001FFFFE0000
003FFFFE0000
003FF7FE0000
007FE7FF0000
007FE3FF0000
00FFC3FF8000
00FFC1FF8000
01FF81FFC000
01FF80FFC000
03FF00FFE000
03FF007FE000
07FE007FF000
07FE003FF000
0FFC003FF800
0FFC001FF800
1FFC001FFC00
1FF8001FFC00
3FF8000FFE00
3FF0000FFE00
7FF00007FF00
7FE00007FF00
FFE00003FF80
FFC00003FF80
3FC00001FE00
0F800001F000
03800000C000
ENDCHAR
STARTCHAR underscore
ENCODING 95
SWIDTH 600 0
DWIDTH 45 0
BBX 37 9 4 -14
BITMAP
FFFFFFFFF8
FFFFFFFFF8
FFFFFFFFF8
FFFFFFFFF8
FFFFFFFFF8
FFFFFFFFF8
FFFFFFFFF8
FFFFFFFFF8
FFFFFFFFF8
ENDCHAR
STARTCHAR grave
ENCODING 96
SWIDTH 600 0
DWIDTH 45 0
BBX 17 18 11 43
BITMAP
004000
01C000
07E000
1FE000
7FF000
FFF000
3FF800
3FF800
1FFC00
0FFC00
07FE00
07FE00
03FF00
01FF00
00FF80
00FE00
007800
002000
ENDCHAR
STARTCHAR a
ENCODING 97
SWIDTH 600 0
DWIDTH 45 0
BBX 39 41 4 -1
BITMAP
000FFE0000
007FFFE000
01FFFFF800
07FFFFFC00
0FFFFFFE00
1FFFFFFF00
3FFFFFFF80
7FFFFFFF80
7FFFFFFFC0
3FF80FFFC0
1FE003FFC0
0F8001FFC0
070001FFE0
020001FFE0
000001FFE0
000000FFE0
000000FFE0
001FFFFFE0
01FFFFFFE0
07FFFFFFE0
0FFFFFFFE0
1FFFFFFFE0
3FFFFFFFE0
7FFC00FFE0
7FF000FFE0
FFE000FFE0
FFE000FFE0
FFE000FFE0
FFE001FFE0
FFE001FFE0
FFE001FFE0
FFE003FFFE
FFF007FFFE
FFFC0FFFFE
7FFFFF7FFE
7FFFFF7FFE
3FFFFE7FFE
1FFFFC3FFE
0FFFF81FFE
03FFF007FE
00FF800000
ENDCHAR
STARTCHAR b
ENCODING 98
SWIDTH 600 0
DWIDTH 45 0
BBX 38 57 4 -1
BITMAP
FFF0000000
FFF0000000
FFF0000000
FFF0000000
FFF0000000
FFF0000000
FFF0000000
FFF0000000
FFF0000000
FFF0000000
FFF0000000
FFF0000000
FFF0000000
FFF0000000
FFF0000000
FFF0000000
FFF00FE000
FFF07FFC00
FFF0FFFF00
FFF1FFFF80
FFF3FFFFC0
FFF7FFFFC0
FFF7FFFFE0
FFFFFFFFF0
FFFFFFFFF0
FFFF03FFF0
FFFC00FFF8
FFF8007FF8
FFF0007FF8
FFF0003FF8
FFF0003FFC
FFF0003FFC
FFF0003FFC
FFF0001FFC
FFF0001FFC
FFF0001FFC
FFF0001FFC
FFF0001FFC
FFF0001FFC
FFF0001FFC
FFF0003FFC
FFF0003FFC
FFF0003FFC
FFF0003FF8
FFF0007FF8
FFF8007FF8
FFFC00FFF8
FFFF03FFF0
FFFFFFFFF0
FFFFFFFFF0
FFF7FFFFE0
FFF7FFFFC0
FFF3FFFFC0
FFF1FFFF80
FFF0FFFF00
FFF07FFC00
00000FF000
ENDCHAR
STARTCHAR c
ENCODING 99
SWIDTH 600 0
DWIDTH 45 0
BBX 37 41 4 -1
BITMAP
0001FF8000
000FFFF000
003FFFFC00
00FFFFFE00
01FFFFFF80
03FFFFFF80
07FFFFFFC0
0FFFFFFFE0
1FFFFFFFF0
1FFF81FFF0
3FFE007FC0
3FFC003F80
3FF8001E00
7FF8001800
7FF0000000
7FF0000000
7FF0000000
7FF0000000
7FF0000000
FFF0000000
FFF0000000
7FF0000000
7FF0000000
7FF0000000
7FF0000000
7FF0000000
7FF0000000
7FF8000C00
3FF8001F00
3FFC003F80
3FFE007FE0
1FFF81FFF8
1FFFFFFFF0
0FFFFFFFF0
07FFFFFFE0
03FFFFFFC0
01FFFFFF80
00FFFFFF00
007FFFFC00
000FFFF800
0001FF8000
ENDCHAR
STARTCHAR d
ENCODING 100
SWIDTH 600 0
DWIDTH 45 0
BBX 38 57 3 -1
BITMAP
0000003FFC
0000003FFC
0000003FFC
0000003FFC
0000003FFC
0000003FFC
0000003FFC
0000003FFC
0000003FFC
0000003FFC
0000003FFC
0000003FFC
0000003FFC
0000003FFC
0000003FFC
0000003FFC
001FC03FFC
00FFF83FFC
03FFFC3FFC
07FFFE3FFC
0FFFFF3FFC
0FFFFFBFFC
1FFFFFBFFC
3FFFFFFFFC
3FFFFFFFFC
3FFF03FFFC
7FFC00FFFC
7FF8007FFC
7FF8003FFC
FFF0003FFC
FFF0003FFC
FFF0003FFC
FFF0003FFC
FFE0003FFC
FFE0003FFC
FFE0003FFC
FFE0003FFC
FFE0003FFC
FFE0003FFC
FFE0003FFC
FFF0003FFC
FFF0003FFC
FFF0003FFC
FFF0003FFC
7FF8003FFC
7FF8007FFC
7FFC00FFFC
3FFF03FFFC
3FFFFFFFFC
3FFFFFFFFC
1FFFFFBFFC
0FFFFFBFFC
0FFFFF3FFC
07FFFE3FFC
03FFFC3FFC
00FFF83FFC
003FC00000
ENDCHAR
STARTCHAR e
ENCODING 101
SWIDTH 600 0
DWIDTH 45 0
BBX 37 41 4 -1
BITMAP
0003FE0000
001FFFE000
007FFFF800
01FFFFFC00
03FFFFFE00
07FFFFFF00
0FFFFFFF80
1FFFFFFFC0
1FFFFFFFE0
3FFE03FFE0
3FFC00FFF0
7FF0007FF0
7FF0007FF0
7FE0003FF8
FFE0003FF8
FFE0003FF8
FFE0003FF8
FFFFFFFFF8
FFFFFFFFF8
FFFFFFFFF8
FFFFFFFFF8
FFFFFFFFF8
FFFFFFFFF8
FFE0000000
FFE0000000
FFE0000000
FFE0000000
7FF0000200
7FF0000600
7FF8000F00
3FFC003F80
3FFF00FFC0
1FFFFFFFE0
1FFFFFFFF0
0FFFFFFFF0
07FFFFFFE0
03FFFFFFC0
01FFFFFF00
00FFFFFC00
001FFFF800
0003FF8000
ENDCHAR
STARTCHAR f
ENCODING 102
SWIDTH 600 0
DWIDTH 45 0
BBX 37 56 5 0
BITMAP
00001FFFF8
00007FFFF8
0001FFFFF8
0003FFFFF8
0003FFFFF8
0007FFFFF8
0007FFFFF8
000FFFFFF8
000FFFFFF8
000FFE0000
000FFE0000
000FFE0000
000FFE0000
000FFE0000
000FFE0000
000FFE0000
000FFE0000
FFFFFFFFF8
FFFFFFFFF8
FFFFFFFFF8
FFFFFFFFF8
FFFFFFFFF8
FFFFFFFFF8
FFFFFFFFF8
FFFFFFFFF8
FFFFFFFFF8
000FFE0000
000FFE0000
000FFE0000
000FFE0000
000FFE0000
000FFE0000
000FFE0000
000FFE0000
000FFE0000
000FFE0000
000FFE0000
000FFE0000
000FFE0000
000FFE0000
000FFE0000
000FFE0000
000FFE0000
000FFE0000
000FFE0000
000FFE0000
000FFE0000
FFFFFFFFE0
FFFFFFFFE0
FFFFFFFFE0
FFFFFFFFE0
FFFFFFFFE0
FFFFFFFFE0
FFFFFFFFE0
FFFFFFFFE0
FFFFFFFFE0
ENDCHAR
STARTCHAR g
ENCODING 103
SWIDTH 600 0
DWIDTH 45 0
BBX 40 63 4 -16
BITMAP
0000000FFC
0000001FFC
0000003FFC
0000007FFC
0000007FFC
0000007FFC
0000007FFC
0007FE7FFC
007FFFFFFC
01FFFFF000
03FFFFFC00
07FFFFFE00
0FFFFFFF00
1FFFFFFF80
1FFE07FF80
3FF801FFC0
3FF800FFC0
3FF000FFE0
7FF000FFE0
7FF000FFE0
7FF0007FE0
7FF0007FE0
7FF000FFE0
7FF000FFE0
3FF000FFE0
3FF800FFC0
3FF801FFC0
1FFE07FFC0
1FFFFFFF80
0FFFFFFF00
07FFFFFE00
03FFFFFC00
00FFFFF800
00FFFFE000
07E7FE0000
1FC0000000
3FC0000000
3FC0000000
3FC0000000
3FE0000000
3FFFFFFC00
3FFFFFFF80
3FFFFFFFE0
1FFFFFFFF8
0FFFFFFFFC
03FFFFFFFC
03FFFFFFFE
0FFFFFFFFE
3FFFFFFFFE
7FC0001FFF
FF800007FF
FF800007FF
FF800007FF
FF800007FE
FFC0000FFE
FFF0003FFE
FFFFFFFFFC
FFFFFFFFFC
7FFFFFFFF8
3FFFFFFFE0
1FFFFFFFC0
03FFFFFE00
003FFFC000
ENDCHAR
STARTCHAR h
ENCODING 104
SWIDTH 600 0
DWIDTH 45 0
BBX 35 56 5 0
BITMAP
FFE0000000
FFE0000000
FFE0000000
FFE0000000
FFE0000000
FFE0000000
FFE0000000
FFE0000000
FFE0000000
FFE0000000
FFE0000000
FFE0000000
FFE0000000
FFE0000000
FFE0000000
FFE0000000
FFE01FE000
FFE07FF800
FFE0FFFE00
FFE1FFFF00
FFE3FFFF00
FFE7FFFF80
FFEFFFFFC0
FFEFFFFFC0
FFEFFFFFE0
FFFE07FFE0
FFF803FFE0
FFF001FFE0
FFE000FFE0
FFE000FFE0
FFE000FFE0
FFE000FFE0
FFE000FFE0
FFE000FFE0
FFE000FFE0
FFE000FFE0
FFE000FFE0
FFE000FFE0
FFE000FFE0
FFE000FFE0
FFE000FFE0
FFE000FFE0
FFE000FFE0
FFE000FFE0
FFE000FFE0
FFE000FFE0
FFE000FFE0
FFE000FFE0
FFE000FFE0
FFE000FFE0
FFE000FFE0
FFE000FFE0
FFE000FFE0
FFE000FFE0
FFE000FFE0
FFE000FFE0
ENDCHAR
STARTCHAR i
ENCODING 105
SWIDTH 600 0
DWIDTH 45 0
BBX 35 57 7 0
BITMAP
0003F80000
0007FE0000
000FFF0000
001FFF0000
001FFF8000
001FFF8000
001FFF8000
001FFF8000
001FFF8000
000FFF0000
000FFF0000
0007FE0000
0003F80000
0000000000
0000000000
0000000000
0000000000
0000000000
FFFFFE0000
FFFFFE0000
FFFFFE0000
FFFFFE0000
FFFFFE0000
FFFFFE0000
FFFFFE0000
FFFFFE0000
FFFFFE0000
000FFE0000
000FFE0000
000FFE0000
000FFE0000
000FFE0000
000FFE0000
000FFE0000
000FFE0000
000FFE0000
000FFE0000
000FFE0000
000FFE0000
000FFE0000
000FFE0000
000FFE0000
000FFE0000
000FFE0000
000FFE0000
000FFE0000
000FFE0000
000FFE0000
FFFFFFFFE0
FFFFFFFFE0
FFFFFFFFE0
FFFFFFFFE0
FFFFFFFFE0
FFFFFFFFE0
FFFFFFFFE0
FFFFFFFFE0
FFFFFFFFE0
ENDCHAR
STARTCHAR j
ENCODING 106
SWIDTH 600 0
DWIDTH 45 0
BBX 27 72 7 -15
BITMAP
00007F00
0001FF80
0003FFC0
0003FFE0
0003FFE0
0003FFE0
0003FFE0
0003FFE0
0003FFE0
0003FFE0
0003FFC0
0001FF80
00007F00
00000000
00000000
00000000
00000000
00000000
FFFFFFC0
FFFFFFC0
FFFFFFC0
FFFFFFC0
FFFFFFC0
FFFFFFC0
FFFFFFC0
FFFFFFC0
FFFFFFC0
0001FFC0
0001FFC0
0001FFC0
0001FFC0
0001FFC0
0001FFC0
0001FFC0
0001FFC0
0001FFC0
0001FFC0
0001FFC0
0001FFC0
0001FFC0
0001FFC0
0001FFC0
0001FFC0
0001FFC0
0001FFC0
0001FFC0
0001FFC0
0001FFC0
0001FFC0
0001FFC0
0001FFC0
0001FFC0
0001FFC0
0001FFC0
0001FFC0
0001FFC0
0001FFC0
0001FFC0
0001FFC0
0001FFC0
0001FFC0
0001FFC0
0001FFC0
FFFFFFC0
FFFFFF80
FFFFFF80
FFFFFF80
FFFFFF00
FFFFFE00
FFFFFC00
FFFFF800
FFFFC000
ENDCHAR
STARTCHAR k
ENCODING 107
SWIDTH 600 0
DWIDTH 45 0
BBX 39 56 5 0
BITMAP
FFE0000000
FFE0000000
FFE0000000
FFE0000000
FFE0000000
FFE0000000
FFE0000000
FFE0000000
FFE0000000
FFE0000000
FFE0000000
FFE0000000
FFE0000000
FFE0000000
FFE0000000
FFE0000000
FFE0000000
FFE000FFFC
FFE001FFF0
FFE003FFE0
FFE007FFC0
FFE007FF80
FFE00FFF00
FFE01FFE00
FFE03FFC00
FFE07FF800
FFE0FFF000
FFE1FFE000
FFE3FFC000
FFE7FF8000
FFE7FF0000
FFEFFE0000
FFFFFE0000
FFFFFE0000
FFFFFF0000
FFFFFF8000
FFFFFF8000
FFFFFFC000
FFFFFFE000
FFFDFFF000
FFF8FFF000
FFF0FFF800
FFE07FFC00
FFE03FFC00
FFE03FFE00
FFE01FFF00
FFE00FFF00
FFE00FFF80
FFE007FFC0
FFE003FFE0
FFE003FFE0
FFE001FFF0
FFE000FFF8
FFE000FFF8
FFE0007FFC
FFE0003FFE
ENDCHAR
STARTCHAR l
ENCODING 108
SWIDTH 600 0
DWIDTH 45 0
BBX 35 56 5 0
BITMAP
FFFFFE0000
FFFFFE0000
FFFFFE0000
FFFFFE0000
FFFFFE0000
FFFFFE0000
FFFFFE0000
FFFFFE0000
FFFFFE0000
000FFE0000
000FFE0000
000FFE0000
000FFE0000
000FFE0000
000FFE0000
000FFE0000
000FFE0000
000FFE0000
000FFE0000
000FFE0000
000FFE0000
000FFE0000
000FFE0000
000FFE0000
000FFE0000
000FFE0000
000FFE0000
000FFE0000
000FFE0000
000FFE0000
000FFE0000
000FFE0000
000FFE0000
000FFE0000
000FFE0000
000FFE0000
000FFE0000
000FFE0000
000FFE0000
000FFE0000
000FFE0000
000FFE0000
000FFE0000
000FFE0000
000FFE0000
000FFE0000
000FFE0000
FFFFFFFFE0
FFFFFFFFE0
FFFFFFFFE0
FFFFFFFFE0
FFFFFFFFE0
FFFFFFFFE0
FFFFFFFFE0
FFFFFFFFE0
FFFFFFFFE0
ENDCHAR
STARTCHAR m
ENCODING 109
SWIDTH 600 0
DWIDTH 45 0
BBX 41 40 2 0
BITMAP
0001F003F000
FF87F80FF800
FF8FFC1FFC00
FF8FFE3FFE00
FF9FFE3FFF00
FF9FFE7FFF00
FFBFFF7FFF00
FFBFFF7FFF00
FFFFFFFFFF80
FFE3FFE3FF80
FFC1FFC1FF80
FF80FF80FF80
FF80FF80FF80
FF80FF80FF80
FF80FF80FF80
FF80FF80FF80
FF80FF80FF80
FF80FF80FF80
FF80FF80FF80
FF80FF80FF80
FF80FF80FF80
FF80FF80FF80
FF80FF80FF80
FF80FF80FF80
FF80FF80FF80
FF80FF80FF80
FF80FF80FF80
FF80FF80FF80
FF80FF80FF80
FF80FF80FF80
FF80FF80FF80
FF80FF80FF80
FF80FF80FF80
FF80FF80FF80
FF80FF80FF80
FF80FF80FF80
FF80FF80FF80
FF80FF80FF80
FF80FF80FF80
FF80FF80FF80
ENDCHAR
STARTCHAR n
ENCODING 110
SWIDTH 600 0
DWIDTH 45 0
BBX 35 40 5 0
BITMAP
00001FE000
FFE07FF800
FFE0FFFE00
FFE1FFFF00
FFE3FFFF00
FFE7FFFF80
FFEFFFFFC0
FFEFFFFFC0
FFEFFFFFE0
FFFE07FFE0
FFF803FFE0
FFF001FFE0
FFE000FFE0
FFE000FFE0
FFE000FFE0
FFE000FFE0
FFE000FFE0
FFE000FFE0
FFE000FFE0
FFE000FFE0
FFE000FFE0
FFE000FFE0
FFE000FFE0
FFE000FFE0
FFE000FFE0
FFE000FFE0
FFE000FFE0
FFE000FFE0
FFE000FFE0
FFE000FFE0
FFE000FFE0
FFE000FFE0
FFE000FFE0
FFE000FFE0
FFE000FFE0
FFE000FFE0
FFE000FFE0
FFE000FFE0
FFE000FFE0
FFE000FFE0
ENDCHAR
STARTCHAR o
ENCODING 111
SWIDTH 600 0
DWIDTH 45 0
BBX 39 41 3 -1
BITMAP
0001FF8000
001FFFF000
007FFFFC00
00FFFFFE00
03FFFFFF80
07FFFFFFC0
0FFFFFFFE0
0FFFFFFFE0
1FFFFFFFF0
3FFF01FFF8
3FFE00FFF8
3FF8003FF8
7FF8003FFC
7FF0001FFC
7FF0001FFC
FFF0001FFC
FFF0001FFE
FFF0001FFE
FFF0001FFE
FFF0001FFE
FFF0001FFE
FFF0001FFE
FFF0001FFE
FFF0001FFE
FFF0001FFE
FFF0001FFE
7FF0001FFC
7FF0001FFC
7FF8003FFC
3FF8003FF8
3FFC007FF8
3FFF01FFF8
1FFFFFFFF0
0FFFFFFFE0
0FFFFFFFE0
07FFFFFFC0
03FFFFFF80
00FFFFFE00
007FFFFC00
001FFFF000
0001FF0000
ENDCHAR
STARTCHAR p
ENCODING 112
SWIDTH 600 0
DWIDTH 45 0
BBX 38 55 4 -15
BITMAP
00000FE000
FFF07FFC00
FFF0FFFF00
FFF1FFFF80
FFF3FFFFC0
FFF7FFFFC0
FFF7FFFFE0
FFFFFFFFF0
FFFFFFFFF0
FFFF03FFF0
FFFC00FFF8
FFF8007FF8
FFF0007FF8
FFF0003FF8
FFF0003FFC
FFF0003FFC
FFF0003FFC
FFF0001FFC
FFF0001FFC
FFF0001FFC
FFF0001FFC
FFF0001FFC
FFF0001FFC
FFF0001FFC
FFF0003FFC
FFF0003FFC
FFF0003FFC
FFF0003FF8
FFF0007FF8
FFF8007FF8
FFFC00FFF8
FFFF03FFF0
FFFFFFFFF0
FFFFFFFFF0
FFF7FFFFE0
FFF7FFFFC0
FFF3FFFFC0
FFF1FFFF80
FFF0FFFF00
FFF07FFC00
FFF00FF000
FFF0000000
FFF0000000
FFF0000000
FFF0000000
FFF0000000
FFF0000000
FFF0000000
FFF0000000
FFF0000000
FFF0000000
FFF0000000
FFF0000000
FFF0000000
FFF0000000
ENDCHAR
STARTCHAR q
ENCODING 113
SWIDTH 600 0
DWIDTH 45 0
BBX 38 55 3 -15
BITMAP
001FC00000
00FFF83FFC
03FFFC3FFC
07FFFE3FFC
0FFFFF3FFC
0FFFFFBFFC
1FFFFFBFFC
3FFFFFFFFC
3FFFFFFFFC
3FFF03FFFC
7FFC00FFFC
7FF8007FFC
7FF8003FFC
FFF0003FFC
FFF0003FFC
FFF0003FFC
FFF0003FFC
FFE0003FFC
FFE0003FFC
FFE0003FFC
FFE0003FFC
FFE0003FFC
FFE0003FFC
FFE0003FFC
FFF0003FFC
FFF0003FFC
FFF0003FFC
FFF0003FFC
7FF8003FFC
7FF8007FFC
7FFC00FFFC
3FFF03FFFC
3FFFFFFFFC
3FFFFFFFFC
1FFFFFBFFC
0FFFFFBFFC
0FFFFF3FFC
07FFFE3FFC
03FFFC3FFC
00FFF83FFC
003FC03FFC
0000003FFC
0000003FFC
0000003FFC
0000003FFC
0000003FFC
0000003FFC
0000003FFC
0000003FFC
0000003FFC
0000003FFC
0000003FFC
0000003FFC
0000003FFC
0000003FFC
ENDCHAR
STARTCHAR r
ENCODING 114
SWIDTH 600 0
DWIDTH 45 0
BBX 36 39 6 0
BITMAP
FFFFF007F0
FFFFF03FF0
FFFFF07FF0
FFFFF0FFF0
FFFFF1FFF0
FFFFF3FFF0
FFFFF3FFF0
FFFFF7FFF0
FFFFF7FFF0
00FFF7FFF0
00FFFF8000
00FFFE0000
00FFFC0000
00FFF80000
00FFF00000
00FFF00000
00FFF00000
00FFF00000
00FFF00000
00FFF00000
00FFF00000
00FFF00000
00FFF00000
00FFF00000
00FFF00000
00FFF00000
00FFF00000
00FFF00000
00FFF00000
00FFF00000
FFFFFFFF00
FFFFFFFF00
FFFFFFFF00
FFFFFFFF00
FFFFFFFF00
FFFFFFFF00
FFFFFFFF00
FFFFFFFF00
FFFFFFFF00
ENDCHAR
STARTCHAR s
ENCODING 115
SWIDTH 600 0
DWIDTH 45 0
BBX 36 41 4 -1
BITMAP
0003FF8000
003FFFF800
00FFFFFE00
03FFFFFF80
07FFFFFFC0
0FFFFFFFE0
0FFFFFFFF0
1FFFFFFFC0
1FFE01FF80
3FFC003F00
3FF8000F00
3FF8000600
3FF8000000
3FF8000000
3FFE000000
3FFFF80000
3FFFFFC000
1FFFFFF800
1FFFFFFE00
0FFFFFFF80
0FFFFFFFC0
03FFFFFFC0
01FFFFFFE0
007FFFFFE0
0007FFFFF0
00000FFFF0
000000FFF0
0000007FF0
0600007FF0
0F00007FF0
1F80007FF0
3FE000FFE0
7FFC03FFE0
FFFFFFFFE0
FFFFFFFFC0
7FFFFFFF80
3FFFFFFF00
0FFFFFFE00
03FFFFFC00
00FFFFE000
000FFF0000
ENDCHAR
STARTCHAR t
ENCODING 116
SWIDTH 600 0
DWIDTH 45 0
BBX 37 52 3 0
BITMAP
000FFC0000
000FFC0000
000FFC0000
000FFC0000
000FFC0000
000FFC0000
000FFC0000
000FFC0000
000FFC0000
001FFC0000
001FFC0000
001FFC0000
003FFC0000
FFFFFFFFF8
FFFFFFFFF8
FFFFFFFFF8
FFFFFFFFF8
FFFFFFFFF8
FFFFFFFFF8
FFFFFFFFF8
FFFFFFFFF8
FFFFFFFFF8
001FFC0000
001FFC0000
001FFC0000
001FFC0000
001FFC0000
001FFC0000
001FFC0000
001FFC0000
001FFC0000
001FFC0000
001FFC0000
001FFC0000
001FFC0000
001FFC0000
001FFC0000
001FFC0000
001FFC0000
001FFC0000
001FFC0000
001FFC0000
001FFC0000
001FFFFFF8
001FFFFFF8
001FFFFFF8
000FFFFFF8
000FFFFFF8
0007FFFFF8
0003FFFFF8
0000FFFFF8
00003FFFF8
ENDCHAR
STARTCHAR u
ENCODING 117
SWIDTH 600 0
DWIDTH 45 0
BBX 35 40 5 -1
BITMAP
FFE000FFE0
FFE000FFE0
FFE000FFE0
FFE000FFE0
FFE000FFE0
FFE000FFE0
FFE000FFE0
FFE000FFE0
FFE000FFE0
FFE000FFE0
FFE000FFE0
FFE000FFE0
FFE000FFE0
FFE000FFE0
FFE000FFE0
FFE000FFE0
FFE000FFE0
FFE000FFE0
FFE000FFE0
FFE000FFE0
FFE000FFE0
FFE000FFE0
FFE000FFE0
FFE000FFE0
FFE000FFE0
FFE000FFE0
FFE000FFE0
FFE000FFE0
FFF001FFE0
FFF803FFE0
FFFC0FFFE0
FFFFFFFFE0
7FFFFEFFE0
7FFFFEFFE0
3FFFFCFFE0
3FFFFCFFE0
1FFFF8FFE0
0FFFF0FFE0
03FFC0FFE0
00FF000000
ENDCHAR
STARTCHAR v
ENCODING 118
SWIDTH 600 0
DWIDTH 45 0
BBX 41 39 2 0
BITMAP
FFF00003FF80
7FF00007FF00
7FF00007FF00
7FF80007FF00
3FF8000FFE00
3FF8000FFE00
3FFC000FFE00
1FFC001FFC00
1FFC001FFC00
1FFE001FFC00
0FFE001FF800
0FFE003FF800
0FFE003FF800
07FF003FF000
07FF007FF000
03FF007FE000
03FF807FE000
03FF80FFE000
01FF80FFC000
01FFC0FFC000
01FFC0FFC000
00FFC1FF8000
00FFC1FF8000
00FFE1FF8000
007FE1FF0000
007FE3FF0000
007FF3FF0000
003FF3FE0000
003FF7FE0000
001FF7FC0000
001FFFFC0000
001FFFFC0000
000FFFF80000
000FFFF80000
000FFFF80000
0007FFF00000
0007FFF00000
0007FFF00000
0003FFE00000
ENDCHAR
STARTCHAR w
ENCODING 119
SWIDTH 600 0
DWIDTH 45 0
BBX 43 39 1 0
BITMAP
FF807FE01FE0
FF807FE01FE0
FF80FFE03FE0
FF80FFE03FE0
FF80FFE03FE0
FF80FFE03FE0
FF80FFF03FE0
FF80FFF03FE0
7F80FFF03FC0
7FC1FFF03FC0
7FC1FFF03FC0
7FC1FFF03FC0
7FC1FBF03FC0
7FC1FBF87FC0
7FC1FBF87FC0
7FC1FBF87FC0
7FC3F1F87FC0
3FC3F1F87F80
3FC3F1F87F80
3FC3F1F87F80
3FE3F1F87F80
3FE3F1FC7F80
3FE3F1FC7F80
3FE7F1FC7F80
3FE7E0FC7F80
1FE7E0FCFF00
1FE7E0FCFF00
1FE7E0FCFF00
1FE7E0FEFF00
1FE7E0FEFF00
1FEFE0FEFF00
1FEFC07EFF00
1FFFC07FFF00
1FFFC07FFF00
0FFFC07FFE00
0FFFC07FFE00
0FFFC07FFE00
0FFFC07FFE00
0FFF803FFE00
ENDCHAR
STARTCHAR x
ENCODING 120
SWIDTH 600 0
DWIDTH 45 0
BBX 41 39 2 0
BITMAP
7FFC000FFF00
3FFC000FFE00
3FFE001FFE00
1FFF003FFC00
0FFF003FF800
07FF807FF000
07FFC0FFF000
03FFC0FFE000
01FFE1FFC000
01FFF3FF8000
00FFF3FF8000
007FFFFF0000
007FFFFE0000
003FFFFE0000
001FFFFC0000
000FFFF80000
000FFFF00000
0007FFF00000
0003FFE00000
0003FFE00000
0007FFF00000
0007FFF80000
000FFFFC0000
001FFFFC0000
003FFFFE0000
003FFFFF0000
007FFFFF0000
00FFE7FF8000
01FFC3FFC000
01FFC3FFE000
03FF81FFE000
07FF00FFF000
0FFF00FFF800
0FFE007FF800
1FFC003FFC00
3FFC003FFE00
3FF8001FFE00
7FF0000FFF00
FFF0000FFF80
ENDCHAR
STARTCHAR y
ENCODING 121
SWIDTH 600 0
DWIDTH 45 0
BBX 43 54 1 -15
BITMAP
FFF80001FFE0
7FF80001FFC0
7FF80003FFC0
3FFC0003FF80
3FFC0003FF80
1FFC0007FF00
1FFE0007FF00
1FFE0007FF00
0FFE000FFE00
0FFF000FFE00
07FF000FFC00
07FF001FFC00
07FF801FFC00
03FF803FF800
03FF803FF800
01FFC03FF000
01FFC07FF000
01FFC07FF000
00FFE07FE000
00FFE07FE000
007FE0FFC000
007FF0FFC000
003FF0FFC000
003FF1FF8000
003FF9FF8000
001FF9FF0000
001FFBFF0000
000FFBFE0000
000FFFFE0000
000FFFFE0000
0007FFFC0000
0007FFFC0000
0003FFF80000
0003FFF80000
0003FFF80000
0001FFF00000
0001FFF00000
0000FFE00000
0000FFE00000
0000FFE00000
0001FFC00000
0001FFC00000
0001FF800000
0003FF800000
0003FF800000
0FFFFF000000
0FFFFF000000
0FFFFE000000
0FFFFE000000
0FFFFC000000
0FFFF8000000
0FFFF0000000
0FFFE0000000
0FFF00000000
ENDCHAR
STARTCHAR z
ENCODING 122
SWIDTH 600 0
DWIDTH 45 0
BBX 35 39 5 0
BITMAP
7FFFFFFFC0
7FFFFFFFC0
7FFFFFFFC0
7FFFFFFFC0
7FFFFFFFC0
7FFFFFFFC0
7FFFFFFFC0
7FFFFFFFC0
7FFFFFFFC0
000007FFC0
00000FFF80
00001FFF00
00003FFE00
00007FFC00
0000FFF800
0001FFF000
0003FFE000
000FFFC000
001FFF8000
003FFF0000
007FFE0000
00FFFC0000
01FFF80000
03FFF00000
07FFE00000
0FFFC00000
1FFF000000
3FFE000000
7FFC000000
FFF8000000
FFFFFFFFE0
FFFFFFFFE0
FFFFFFFFE0
FFFFFFFFE0
FFFFFFFFE0
FFFFFFFFE0
FFFFFFFFE0
FFFFFFFFE0
FFFFFFFFE0
ENDCHAR
STARTCHAR braceleft
ENCODING 123
SWIDTH 600 0
DWIDTH 45 0
BBX 31 67 7 -10
BITMAP
0003FFFE
001FFFFE
003FFFFE
007FFFFE
007FFFFE
007FFFFE
00FFFFFE
00FF8000
00FF8000
00FF8000
00FF8000
00FF8000
00FF8000
00FFC000
007FC000
007FE000
003FE000
003FF000
001FF800
000FF800
0007FC00
0007FE00
0003FE00
0003FF00
0001FF00
0001FF00
0003FF00
0007FE00
001FFE00
FFFFFC00
FFFFF800
FFFFF000
FFFF0000
FFFF0000
FFFFF000
FFFFF800
FFFFFC00
001FFE00
0007FE00
0003FF00
0001FF00
0001FF00
0001FF00
0003FE00
0003FE00
0007FC00
000FFC00
001FF800
003FF000
003FF000
007FE000
007FC000
007FC000
00FFC000
00FF8000
00FF8000
00FF8000
00FF8000
00FF8000
00FF8000
00FFFFFE
007FFFFE
007FFFFE
003FFFFE
003FFFFE
001FFFFE
0003FFFE
ENDCHAR
STARTCHAR bar
ENCODING 124
SWIDTH 600 0
DWIDTH 45 0
BBX 9 67 18 -10
BITMAP
FF80
FF80
FF80
FF80
FF80
FF80
FF80
FF80
FF80
FF80
FF80
FF80
FF80
FF80
FF80
FF80
FF80
FF80
FF80
FF80
FF80
FF80
FF80
FF80
FF80
FF80
FF80
FF80
FF80
FF80
FF80
FF80
FF80
FF80
FF80
FF80
FF80
FF80
FF80
FF80
FF80
FF80
FF80
FF80
FF80
FF80
FF80
FF80
FF80
FF80
FF80
FF80
FF80
FF80
FF80
FF80
FF80
FF80
FF80
FF80
FF80
FF80
FF80
FF80
FF80
FF80
FF80
ENDCHAR
STARTCHAR braceright
ENCODING 125
SWIDTH 600 0
DWIDTH 45 0
BBX 31 67 7 -10
BITMAP
FFFF8000
FFFFF000
FFFFF800
FFFFFC00
FFFFFC00
FFFFFC00
FFFFFE00
0003FE00
0003FE00
0003FE00
0003FE00
0003FE00
0003FE00
0007FC00
0007FC00
000FFC00
000FF800
001FF800
003FF000
007FE000
007FC000
00FFC000
00FF8000
01FF0000
01FF0000
01FF0000
01FF8000
00FFC000
00FFF000
007FFFFE
003FFFFE
001FFFFE
0003FFFE
0001FFFE
001FFFFE
003FFFFE
007FFFFE
00FFF000
00FFC000
01FF8000
01FF0000
01FF0000
01FF0000
00FF8000
00FF8000
007FC000
007FE000
003FF000
001FF800
001FF800
000FFC00
0007FC00
0007FC00
0007FE00
0003FE00
0003FE00
0003FE00
0003FE00
0003FE00
0003FE00
FFFFFE00
FFFFFC00
FFFFFC00
FFFFF800
FFFFF800
FFFFF000
FFFF8000
ENDCHAR
STARTCHAR asciitilde
ENCODING 126
SWIDTH 600 0
DWIDTH 45 0
BBX 39 14 3 16
BITMAP
00FE000180
03FFC001F0
0FFFF003FC
1FFFFC03FE
1FFFFF0FFE
3FFFFFFFFC
7FFFFFFFFC
7FFFFFFFFC
7FFFFFFFF8
FFE1FFFFF0
FF807FFFE0
7F801FFFC0
1F0007FF80
030000FE00
ENDCHAR
STARTCHAR uni00A0
ENCODING 160
SWIDTH 600 0
DWIDTH 45 0
BBX 1 1 0 0
BITMAP
00
ENDCHAR
STARTCHAR exclamdown
ENCODING 161
SWIDTH 600 0
DWIDTH 45 0
BBX 15 54 15 -14
BITMAP
0FE0
3FF8
7FFC
7FFC
FFFE
FFFE
FFFE
FFFE
FFFE
FFFE
FFFE
7FFC
7FFC
3FF8
0FE0
0000
0000
0000
0000
0000
0380
07C0
07C0
07C0
07C0
0FE0
0FE0
0FE0
0FE0
0FE0
1FF0
1FF0
1FF0
1FF0
3FF8
3FF8
3FF8
3FF8
3FF8
7FFC
7FFC
7FFC
7FFC
7FFC
7FFC
7FFC
7FFC
7FFC
7FFC
7FFC
7FFC
7FFC
7FFC
7FFC
ENDCHAR
STARTCHAR cent
ENCODING 162
SWIDTH 600 0
DWIDTH 45 0
BBX 37 55 4 -8
BITMAP
0001FF0000
0001FF0000
0001FF0000
0001FF0000
0001FF0000
0001FF0000
0001FF0000
0001FF0000
0007FFE000
003FFFF800
007FFFFE00
01FFFFFF00
03FFFFFF80
07FFFFFFC0
0FFFFFFFC0
0FFFFFFFE0
1FFFFFFFF0
3FFEFEFFF0
3FFCFE3FC0
3FF8FE1F80
7FF0FE1E00
7FF0FE0800
7FE0FE0000
7FE0FE0000
7FE0FE0000
7FE0FE0000
FFE0FE0000
FFE0FE0000
FFE0FE0000
7FE0FE0000
7FE0FE0000
7FE0FE0000
7FE0FE0000
7FF0FE0400
7FF0FE0F00
3FF8FE1F80
3FFCFE3FE0
3FFEFE7FF8
1FFFFFFFF0
0FFFFFFFF0
0FFFFFFFE0
07FFFFFFC0
03FFFFFF80
01FFFFFF00
007FFFFE00
003FFFF800
0007FFE000
0001FF0000
0001FF0000
0001FF0000
0001FF0000
0001FF0000
0001FF0000
0001FF0000
0001FF0000
ENDCHAR
STARTCHAR sterling
ENCODING 163
SWIDTH 600 0
DWIDTH 45 0
BBX 39 53 3 0
BITMAP
00007FF000
0007FFFE00
001FFFFF80
007FFFFFE0
00FFFFFFF0
01FFFFFFF8
03FFFFFFFC
03FFFFFFFE
07FFFFFFFC
0FFFE03FF8
0FFFC00FE0
0FFF0007C0
0FFF000380
1FFE000100
1FFE000000
1FFE000000
1FFE000000
0FFE000000
0FFE000000
0FFE000000
0FFF000000
07FF000000
07FF000000
03FF800000
FFFFFFFC00
FFFFFFFC00
FFFFFFFC00
FFFFFFFC00
FFFFFFFC00
FFFFFFFC00
FFFFFFFC00
FFFFFFFC00
FFFFFFFC00
007FF00000
007FF00000
00FFF00000
00FFE00000
00FFE00000
01FFE00000
01FFC00000
03FF800000
07FF000000
1FFE000000
3FFC000000
3FFFFFFFFC
3FFFFFFFFC
3FFFFFFFFC
3FFFFFFFFC
3FFFFFFFFC
3FFFFFFFFC
3FFFFFFFFC
3FFFFFFFFC
3FFFFFFFFC
ENDCHAR
STARTCHAR yen
ENCODING 165
SWIDTH 600 0
DWIDTH 45 0
BBX 45 52 0 0
BITMAP
FFF000007FF8
7FF000007FF0
7FF800007FF0
3FF80000FFE0
3FFC0000FFE0
3FFC0001FFE0
1FFC0001FFC0
1FFE0001FFC0
0FFE0003FF80
0FFE0003FF80
07FF0007FF00
07FF0007FF00
03FF8007FE00
03FF800FFE00
01FF800FFE00
01FFC01FFC00
01FFC01FFC00
00FFE01FF800
00FFE03FF800
007FE03FF000
007FF07FF000
003FF07FE000
003FF87FE000
001FF8FFC000
001FF8FFC000
000FFDFFC000
000FFDFF8000
0FFFFFFFFF80
0FFFFFFFFF80
0FFFFFFFFF80
0FFFFFFFFF80
0FFFFFFFFF80
0FFFFFFFFF80
0FFFFFFFFF80
0FFFFFFFFF80
0FFFFFFFFF80
00007FF00000
00007FF00000
00007FF00000
00007FF00000
00007FF00000
00007FF00000
00007FF00000
0FFFFFFFFF80
0FFFFFFFFF80
0FFFFFFFFF80
0FFFFFFFFF80
0FFFFFFFFF80
0FFFFFFFFF80
0FFFFFFFFF80
0FFFFFFFFF80
0FFFFFFFFF80
ENDCHAR
STARTCHAR brokenbar
ENCODING 166
SWIDTH 600 0
DWIDTH 45 0
BBX 9 67 18 -10
BITMAP
FF80
FF80
FF80
FF80
FF80
FF80
FF80
FF80
FF80
FF80
FF80
FF80
FF80
FF80
FF80
FF80
FF80
FF80
FF80
FF80
FF80
FF80
FF80
FF80
FF80
FF80
FF80
0000
0000
0000
0000
0000
0000
0000
0000
0000
0000
0000
0000
0000
0000
FF80
FF80
FF80
FF80
FF80
FF80
FF80
FF80
FF80
FF80
FF80
FF80
FF80
FF80
FF80
FF80
FF80
FF80
FF80
FF80
FF80
FF80
FF80
FF80
FF80
FF80
ENDCHAR
STARTCHAR section
ENCODING 167
SWIDTH 600 0
DWIDTH 45 0
BBX 36 66 5 -13
BITMAP
0003FF0000
001FFFF000
00FFFFFC00
01FFFFFE00
03FFFFFF80
07FFFFFFC0
0FFFFFFF80
0FFFFFFF00
1FFE03FE00
1FF8007E00
3FF0001C00
3FF0000800
3FF0000000
3FF0000000
3FF0000000
3FF8000000
1FFC000000
1FFF000000
1FFFF00000
0FFFFF0000
0FFFFFE000
07FFFFF800
03FFFFFE00
00FFFFFF00
00FFFFFF80
01FFFFFFC0
07E3FFFFE0
0FE03FFFE0
1FC007FFE0
3FC000FFF0
7F80007FF0
7F80003FF0
FF80003FF0
FF80003FE0
FFC0003FE0
FFC0003FC0
FFF0003FC0
FFFC003F80
FFFFC07F00
7FFFF8FC00
3FFFFFF000
3FFFFFE000
1FFFFFF000
07FFFFF800
03FFFFFC00
007FFFFE00
000FFFFF00
0000FFFF00
00001FFF80
000003FF80
000001FF80
000000FF80
000000FF80
000000FF80
010000FF80
038001FF80
07E003FF80
0FF80FFF00
1FFFFFFF00
3FFFFFFE00
3FFFFFFE00
1FFFFFFC00
0FFFFFF800
03FFFFE000
00FFFF8000
000FFC0000
ENDCHAR
STARTCHAR dieresis
ENCODING 168
SWIDTH 600 0
DWIDTH 45 0
BBX 29 11 8 44
BITMAP
1FC01FC0
7FE03FF0
7FF07FF0
FFF07FF8
FFF07FF8
FFF07FF8
FFF07FF8
FFF07FF8
7FF07FF0
7FE03FF0
1FC01FC0
ENDCHAR
STARTCHAR copyright
ENCODING 169
SWIDTH 600 0
DWIDTH 45 0
BBX 45 50 0 1
BITMAP
00003FE00000
0003FFFE0000
000FFFFF8000
003FFFFFE000
007FC01FF000
00FE0003F800
01F80000FC00
03F000007E00
07E000003F00
0FC000001F80
0F801FE00F80
1F007FFC07C0
1F01FFFE07C0
3E03FFFF03E0
3C07FFFF81E0
7C0FFFFFC1F0
7C1FF87FC1F0
781FF01FE0F0
781FE01F80F0
F83FE00E00F8
F83FE00800F8
F83FE00000F8
F83FE00000F8
F87FE00000F8
F87FE00000F8
F87FE00000F8
F87FE00000F8
F87FE00000F8
F83FE00000F8
F83FE00400F8
F83FE00F00F8
783FE00FC0F0
781FF01FE0F0
7C1FF83FE1F0
7C0FFFFFC1F0
3C07FFFF81E0
3E03FFFF03E0
1F01FFFE07C0
1F007FFC07C0
0F801FE00F80
0FC000001F80
07E000003F00
03F000007E00
01F80000FC00
00FE0003F800
007FC01FF000
003FFFFFE000
000FFFFF8000
0003FFFE0000
00007FE00000
ENDCHAR
STARTCHAR ordfeminine
ENCODING 170
SWIDTH 600 0
DWIDTH 45 0
BBX 28 28 9 25
BITMAP
00FF8000
03FFF000
0FFFFC00
1FFFFE00
3FFFFE00
7FFFFF00
3F81FF00
1E00FF00
0C007F80
00007F80
00007F80
01FFFF80
07FFFF80
1FFFFF80
3FFFFF80
7FC07F80
7F007F80
7F007F80
FF007F80
FF007F80
FF00FF80
7F81FFF0
7FFFBFF0
7FFFBFF0
3FFF3FF0
3FFE1FF0
0FFC07F0
03F00000
ENDCHAR
STARTCHAR guillemotleft
ENCODING 171
SWIDTH 600 0
DWIDTH 45 0
BBX 37 35 4 3
BITMAP
0001000040
00030000E0
00078001E0
001F8003F0
003FC007F0
007FC01FF8
00FFE03FF8
01FFE07FF8
07FFC0FFF0
0FFF81FFE0
1FFF07FFC0
3FFE0FFF80
7FFC1FFF00
FFF81FFE00
FFF01FFC00
FFE01FF800
FFC01FF800
FF801FF000
FFC01FF800
FFE01FF800
FFF01FFC00
FFF81FFE00
7FFC1FFF00
3FFE0FFF80
1FFF07FFC0
0FFF81FFE0
07FFC0FFF0
01FFE07FF8
00FFE03FF8
007FC01FF8
003FC007F0
001F8003F0
000F8001E0
00030000E0
0001000040
ENDCHAR
STARTCHAR logicalnot
ENCODING 172
SWIDTH 600 0
DWIDTH 45 0
BBX 34 23 5 4
BITMAP
FFFFFFFFC0
FFFFFFFFC0
FFFFFFFFC0
FFFFFFFFC0
FFFFFFFFC0
FFFFFFFFC0
FFFFFFFFC0
FFFFFFFFC0
FFFFFFFFC0
0000007FC0
0000007FC0
0000007FC0
0000007FC0
0000007FC0
0000007FC0
0000007FC0
0000007FC0
0000007FC0
0000007FC0
0000007FC0
0000007FC0
0000007FC0
0000007FC0
ENDCHAR
STARTCHAR uni00AD
ENCODING 173
SWIDTH 600 0
DWIDTH 45 0
BBX 25 11 10 17
BITMAP
FFFFFF80
FFFFFF80
FFFFFF80
FFFFFF80
FFFFFF80
FFFFFF80
FFFFFF80
FFFFFF80
FFFFFF80
FFFFFF80
FFFFFF80
ENDCHAR
STARTCHAR registered
ENCODING 174
SWIDTH 600 0
DWIDTH 45 0
BBX 27 27 9 26
BITMAP
003F8000
01FFF000
07FFFC00
0FC07E00
1F001F00
3C000F80
3C000780
78FFC3C0
70FFE1C0
F0FFF1E0
F0F1F1E0
E0F0F0E0
E0F1F0E0
E0FFE0E0
E0FFE0E0
E0FFC0E0
F0F3C1E0
F0F3E1E0
70F1E1C0
78F1F3C0
3C000780
3E000F80
1F001F00
0FC07E00
07FFFC00
01FFF000
003F8000
ENDCHAR
STARTCHAR macron
ENCODING 175
SWIDTH 600 0
DWIDTH 45 0
BBX 23 8 11 46
BITMAP
FFFFFE
FFFFFE
FFFFFE
FFFFFE
FFFFFE
FFFFFE
FFFFFE
FFFFFE
ENDCHAR
STARTCHAR degree
ENCODING 176
SWIDTH 600 0
DWIDTH 45 0
BBX 29 28 8 25
BITMAP
001FC000
00FFF800
03FFFE00
07FFFF00
0FFFFF80
1FFFFFC0
3FFFFFC0
3FF07FE0
7FC01FF0
7F800FF0
7F800FF0
7F0007F0
FF0007F8
FF0007F8
FF0007F8
FF0007F8
7F0007F0
7F800FF0
7F800FF0
7FC01FF0
3FF07FE0
3FFFFFC0
1FFFFFC0
0FFFFF80
07FFFF00
03FFFE00
00FFF800
001FC000
ENDCHAR
STARTCHAR plusminus
ENCODING 177
SWIDTH 600 0
DWIDTH 45 0
BBX 35 47 5 0
BITMAP
0007FC0000
0007FC0000
0007FC0000
0007FC0000
0007FC0000
0007FC0000
0007FC0000
0007FC0000
0007FC0000
0007FC0000
0007FC0000
0007FC0000
FFFFFFFFE0
FFFFFFFFE0
FFFFFFFFE0
FFFFFFFFE0
FFFFFFFFE0
FFFFFFFFE0
FFFFFFFFE0
FFFFFFFFE0
FFFFFFFFE0
0007FC0000
0007FC0000
0007FC0000
0007FC0000
0007FC0000
0007FC0000
0007FC0000
0007FC0000
0007FC0000
0007FC0000
0007FC0000
0007FC0000
0000000000
0000000000
0000000000
0000000000
0000000000
FFFFFFFFE0
FFFFFFFFE0
FFFFFFFFE0
FFFFFFFFE0
FFFFFFFFE0
FFFFFFFFE0
FFFFFFFFE0
FFFFFFFFE0
FFFFFFFFE0
ENDCHAR
STARTCHAR twosuperior
ENCODING 178
SWIDTH 600 0
DWIDTH 45 0
BBX 23 28 11 25
BITMAP
00FF00
07FFC0
1FFFF0
3FFFF8
7FFFF8
7FFFFC
FF87FC
3F03FC
0603FC
0003FC
0003FC
0007FC
0007F8
000FF8
003FF0
007FE0
00FFC0
03FF80
07FE00
0FF800
1FF000
7FC000
7FFFFE
7FFFFE
7FFFFE
7FFFFE
7FFFFE
7FFFFE
ENDCHAR
STARTCHAR threesuperior
ENCODING 179
SWIDTH 600 0
DWIDTH 45 0
BBX 24 29 10 24
BITMAP
00FF80
07FFE0
0FFFF8
3FFFFC
7FFFFE
3FFFFE
1F83FE
0F01FE
0401FE
0001FE
0003FE
007FFC
007FF8
007FC0
007FF0
007FF8
007FFC
0003FE
0001FE
0400FF
0E00FF
1F01FF
7F83FF
FFFFFE
7FFFFE
3FFFFC
1FFFF8
07FFE0
01FF80
ENDCHAR
STARTCHAR acute
ENCODING 180
SWIDTH 600 0
DWIDTH 45 0
BBX 17 18 17 43
BITMAP
010000
01C000
03F000
03FC00
07FF00
07FF80
0FFE00
0FFE00
1FFC00
1FF800
3FF000
3FF000
7FE000
7FC000
FF8000
3F8000
0F0000
020000
ENDCHAR
STARTCHAR mu
ENCODING 181
SWIDTH 600 0
DWIDTH 45 0
BBX 35 54 5 -15
BITMAP
FFE000FFE0
FFE000FFE0
FFE000FFE0
FFE000FFE0
FFE000FFE0
FFE000FFE0
FFE000FFE0
FFE000FFE0
FFE000FFE0
FFE000FFE0
FFE000FFE0
FFE000FFE0
FFE000FFE0
FFE000FFE0
FFE000FFE0
FFE000FFE0
FFE000FFE0
FFE000FFE0
FFE000FFE0
FFE000FFE0
FFE000FFE0
FFE000FFE0
FFE000FFE0
FFE000FFE0
FFE000FFE0
FFE000FFE0
FFE000FFE0
FFF000FFE0
FFF001FFE0
FFF803FFE0
FFFE0FFFE0
FFFFFEFFE0
FFFFFEFFE0
FFFFFEFFE0
FFFFFCFFE0
FFFFFCFFE0
FFFFF8FFE0
FFBFF0FFE0
FF9FE0FFE0
FF8F800000
FFC0000000
FFC0000000
FFC0000000
FFC0000000
FFC0000000
FFE0000000
FFE0000000
FFE0000000
FFE0000000
FFE0000000
FFE0000000
FFE0000000
FFE0000000
FFE0000000
ENDCHAR
STARTCHAR paragraph
ENCODING 182
SWIDTH 600 0
DWIDTH 45 0
BBX 40 63 1 -11
BITMAP
0007FFFFFF
003FFFFFFF
00FFFFFFFF
01FFFFFFFF
03FFFFFFFF
07FFFFFFFF
0FFFFFFFFF
1FFFFFFFFF
1FFFFFFFFF
3FFFFFC1FF
3FFFFFC1FF
7FFFFFC1FF
7FFFFFC1FF
7FFFFFC1FF
7FFFFFC1FF
7FFFFFC1FF
FFFFFFC1FF
7FFFFFC1FF
7FFFFFC1FF
7FFFFFC1FF
7FFFFFC1FF
7FFFFFC1FF
7FFFFFC1FF
3FFFFFC1FF
3FFFFFC1FF
1FFFFFC1FF
1FFFFFC1FF
0FFFFFC1FF
07FFFFC1FF
03FFFFC1FF
01FFFFC1FF
00FFFFC1FF
003FFFC1FF
0007FFC1FF
00007FC1FF
00007FC1FF
00007FC1FF
00007FC1FF
00007FC1FF
00007FC1FF
00007FC1FF
00007FC1FF
00007FC1FF
00007FC1FF
00007FC1FF
00007FC1FF
00007FC1FF
00007FC1FF
00007FC1FF
00007FC1FF
00007FC1FF
00007FC1FF
00007FC1FF
00007FC1FF
00007FC1FF
00007FC1FF
00007FC1FF
00007FC1FF
00007FC1FF
00007FC1FF
00007FC1FF
00007FC1FF
00007FC1FF
ENDCHAR
STARTCHAR periodcentered
ENCODING 183
SWIDTH 600 0
DWIDTH 45 0
BBX 15 15 15 15
BITMAP
0FE0
3FF8
7FFC
FFFE
FFFE
FFFE
FFFE
FFFE
FFFE
FFFE
FFFE
FFFE
7FFC
3FF8
0FE0
ENDCHAR
STARTCHAR cedilla
ENCODING 184
SWIDTH 600 0
DWIDTH 45 0
BBX 19 18 14 -16
BITMAP
03E000
03E000
03E000
03E000
07C000
07C000
07FF80
07FFC0
003FE0
001FE0
000FE0
180FE0
3E3FE0
7FFFE0
FFFFC0
7FFFC0
1FFF00
03F800
ENDCHAR
STARTCHAR onesuperior
ENCODING 185
SWIDTH 600 0
DWIDTH 45 0
BBX 23 27 12 25
BITMAP
01FF80
0FFF80
7FFF80
FFFF80
7FFF80
3FFF80
3F7F80
1C7F80
107F80
007F80
007F80
007F80
007F80
007F80
007F80
007F80
007F80
007F80
007F80
007F80
007F80
3FFFFE
3FFFFE
3FFFFE
3FFFFE
3FFFFE
3FFFFE
ENDCHAR
STARTCHAR ordmasculine
ENCODING 186
SWIDTH 600 0
DWIDTH 45 0
BBX 27 28 9 25
BITMAP
007FC000
01FFF000
07FFFC00
0FFFFE00
1FFFFF00
3FFFFF80
3FE0FF80
7F803FC0
7F803FC0
FF001FE0
FF001FE0
FF001FE0
FF001FE0
FF001FE0
FF001FE0
FF001FE0
FF001FE0
FF001FE0
FF001FE0
7F803FC0
7F803FC0
3FE0FF80
3FFFFF80
1FFFFF00
0FFFFE00
07FFFC00
03FFF800
007FC000
ENDCHAR
STARTCHAR guillemotright
ENCODING 187
SWIDTH 600 0
DWIDTH 45 0
BBX 37 35 4 3
BITMAP
1000040000
3800060000
3C000F8000
7E000FC000
7F801FE000
7FC01FF000
FFE01FF800
FFF03FFE00
7FF81FFF00
3FFC0FFF80
1FFF07FFC0
0FFF83FFE0
07FFC1FFF8
03FFC0FFF8
01FFC07FF8
00FFC03FF8
007FC01FF8
007FC00FF8
007FC01FF8
00FFC03FF8
01FFC07FF8
03FFC0FFF8
07FFC1FFF8
0FFF83FFE0
1FFF07FFC0
3FFC0FFF80
7FF81FFF00
FFF01FFE00
FFE03FF800
7FC01FF000
7F801FE000
7E000FC000
3C000F8000
3800060000
1000040000
ENDCHAR
STARTCHAR onequarter
ENCODING 188
SWIDTH 600 0
DWIDTH 45 0
BBX 45 52 0 0
BITMAP
00FF000007F8
03FF00000FF0
0FFF00000FE0
3FFF00001FE0
7FFF00001FC0
3F7F00003FC0
1C7F00007F80
107F00007F80
007F0000FF00
007F0000FE00
007F0001FE00
007F0003FC00
007F0003FC00
007F0007F800
007F0007F000
007F000FF000
007F001FE000
007F001FE000
007F003FC000
007F003F8000
1FFFF87F8000
1FFFF87F0000
1FFFF8800000
1FFFF8000000
1FFFF8000000
000000000000
000000000000
000000007F80
00000000FF80
00000000FF80
0007F801FF80
000FF003FF80
000FE003FF80
001FE007DF80
003FC00F9F80
003FC00F9F80
007F801F1F80
007F003E1F80
00FF003E1F80
01FE007C1F80
01FE00FC1F80
03FC00F81F80
03F801F01F80
07F801FFFFF0
0FF001FFFFF0
0FF001FFFFF0
1FE001FFFFF0
1FC000001F80
3FC000001F80
3F8000001F80
7F8000001F80
FF0000001F80
ENDCHAR
STARTCHAR onehalf
ENCODING 189
SWIDTH 600 0
DWIDTH 45 0
BBX 45 52 0 0
BITMAP
00FF000007F8
03FF00000FF0
0FFF00000FE0
3FFF00001FE0
7FFF00001FC0
3F7F00003FC0
1C7F00007F80
107F00007F80
007F0000FF00
007F0000FE00
007F0001FE00
007F0003FC00
007F0003FC00
007F0007F800
007F0007F000
007F000FF000
007F001FE000
007F001FE000
007F003FC000
007F003F8000
1FFFF87F8000
1FFFF87F0000
1FFFF8800000
1FFFF8000000
1FFFF8000000
000000000000
00000003F800
0000001FFF00
0000003FFF80
0000007FFFC0
0007F8FFFFE0
000FF0FE1FE0
000FE1FC0FE0
001FE0380FE0
003FC0080FE0
003FC0000FE0
007F80000FE0
007F00001FC0
00FF00003FC0
01FE00007F80
01FE0000FF00
03FC0001FE00
03F80007F800
07F8000FF000
0FF0001FE000
0FF0007F8000
1FE000FF0000
1FC000FFFFF0
3FC000FFFFF0
3F8000FFFFF0
7F8000FFFFF0
FF0000FFFFF0
ENDCHAR
STARTCHAR threequarters
ENCODING 190
SWIDTH 600 0
DWIDTH 45 0
BBX 45 53 0 0
BITMAP
01FE00000000
0FFFC00007F8
1FFFE0000FF0
7FFFF0000FE0
3F87F8001FE0
0E03F8001FC0
0403F8003FC0
0003F8007F80
0003F8007F80
0003F800FF00
0007F000FE00
00FFE001FE00
00FF8003FC00
00FFC003FC00
00FFF007F800
0007F807F000
0003F80FF000
0001FC1FE000
0001FC1FE000
0401FC3FC000
1E03F83F8000
3F07F87F8000
7FFFF07F0000
3FFFF0800000
0FFFC0000000
01FF00000000
000000000000
000000000000
000000007F80
00000000FF80
00000000FF80
0007F801FF80
000FF003FF80
000FE003FF80
001FE007DF80
003FC00F9F80
003FC00F9F80
007F801F1F80
007F003E1F80
00FF003E1F80
01FE007C1F80
01FE00FC1F80
03FC00F81F80
03F801F01F80
07F801FFFFF0
0FF001FFFFF0
0FF001FFFFF0
1FE001FFFFF0
1FC000001F80
3FC000001F80
3F8000001F80
7F8000001F80
FF0000001F80
ENDCHAR
STARTCHAR questiondown
ENCODING 191
SWIDTH 600 0
DWIDTH 45 0
BBX 35 55 5 -15
BITMAP
0001FE0000
0003FF0000
0007FF8000
000FFFC000
000FFFC000
000FFFC000
000FFFC000
000FFFC000
000FFFC000
000FFFC000
000FFFC000
000FFFC000
0007FF8000
0003FF0000
0001FE0000
0000000000
0000000000
0000000000
0000000000
0000000000
0003FF0000
0003FF0000
0003FF0000
0003FF0000
0003FF0000
0007FF0000
003FFF0000
00FFFF0000
03FFFF0000
07FFFF0000
0FFFFF0000
1FFFFC0000
3FFF800000
3FFE000000
7FFC000000
7FF8000000
7FF8000000
7FF0000000
7FF0000000
FFF0000000
FFF0003000
7FF0003E00
7FF0007F80
7FF800FFE0
7FFC01FFE0
7FFF07FFE0
3FFFFFFFC0
1FFFFFFFC0
1FFFFFFF80
0FFFFFFF00
07FFFFFE00
03FFFFFC00
00FFFFF000
003FFFC000
0007FE0000
ENDCHAR
STARTCHAR Agrave
ENCODING 192
SWIDTH 600 0
DWIDTH 45 0
BBX 45 74 0 0
BITMAP
000008000000
000038000000
0000FC000000
0003FC000000
000FFE000000
001FFE000000
0007FF000000
0007FF000000
0003FF800000
0001FF800000
0000FFC00000
0000FFC00000
00007FE00000
00003FE00000
00001FF00000
00001FC00000
00000F000000
000004000000
000000000000
000000000000
000000000000
000000000000
0003FFFE0000
0003FFFE0000
0003FFFE0000
0003FFFE0000
0007FFFF0000
0007FFFF0000
0007FFFF0000
000FFFFF8000
000FFFFF8000
000FFFFF8000
000FFFFF8000
001FFDFFC000
001FF9FFC000
001FF9FFC000
001FF9FFC000
003FF8FFE000
003FF0FFE000
003FF0FFE000
007FF07FE000
007FF07FF000
007FE07FF000
007FE07FF000
00FFE03FF800
00FFE03FF800
00FFC03FF800
00FFC03FF800
01FFC01FFC00
01FF801FFC00
01FF801FFC00
03FF801FFC00
03FFFFFFFE00
03FFFFFFFE00
03FFFFFFFE00
07FFFFFFFF00
07FFFFFFFF00
07FFFFFFFF00
07FFFFFFFF00
0FFFFFFFFF80
0FFFFFFFFF80
0FFE0007FF80
1FFE0003FF80
1FFC0003FFC0
1FFC0003FFC0
1FFC0003FFC0
3FFC0001FFE0
3FF80001FFE0
3FF80001FFE0
3FF80001FFE0
7FF80000FFF0
7FF00000FFF0
7FF00000FFF0
FFF00000FFF8
ENDCHAR
STARTCHAR Aacute
ENCODING 193
SWIDTH 600 0
DWIDTH 45 0
BBX 45 74 0 0
BITMAP
000000800000
000000E00000
000001F80000
000001FE0000
000003FF8000
000003FFC000
000007FF0000
000007FF0000
00000FFE0000
00000FFC0000
00001FF80000
00001FF80000
00003FF00000
00003FE00000
00007FC00000
00001FC00000
000007800000
000001000000
000000000000
000000000000
000000000000
000000000000
0003FFFE0000
0003FFFE0000
0003FFFE0000
0003FFFE0000
0007FFFF0000
0007FFFF0000
0007FFFF0000
000FFFFF8000
000FFFFF8000
000FFFFF8000
000FFFFF8000
001FFDFFC000
001FF9FFC000
001FF9FFC000
001FF9FFC000
003FF8FFE000
003FF0FFE000
003FF0FFE000
007FF07FE000
007FF07FF000
007FE07FF000
007FE07FF000
00FFE03FF800
00FFE03FF800
00FFC03FF800
00FFC03FF800
01FFC01FFC00
01FF801FFC00
01FF801FFC00
03FF801FFC00
03FFFFFFFE00
03FFFFFFFE00
03FFFFFFFE00
07FFFFFFFF00
07FFFFFFFF00
07FFFFFFFF00
07FFFFFFFF00
0FFFFFFFFF80
0FFFFFFFFF80
0FFE0007FF80
1FFE0003FF80
1FFC0003FFC0
1FFC0003FFC0
1FFC0003FFC0
3FFC0001FFE0
3FF80001FFE0
3FF80001FFE0
3FF80001FFE0
7FF80000FFF0
7FF00000FFF0
7FF00000FFF0
FFF00000FFF8
ENDCHAR
STARTCHAR Acircumflex
ENCODING 194
SWIDTH 600 0
DWIDTH 45 0
BBX 45 71 0 0
BITMAP
00007FF00000
00007FF00000
0000FFF80000
0001FFFC0000
0003FFFE0000
0007FFFF0000
000FFFFF8000
000FFFFFC000
001FF9FFC000
003FF0FFE000
007FE03FF000
00FFC01FF800
007F800FF000
003F0007E000
001E00038000
000400010000
000000000000
000000000000
000000000000
0003FFFE0000
0003FFFE0000
0003FFFE0000
0003FFFE0000
0007FFFF0000
0007FFFF0000
0007FFFF0000
000FFFFF8000
000FFFFF8000
000FFFFF8000
000FFFFF8000
001FFDFFC000
001FF9FFC000
001FF9FFC000
001FF9FFC000
003FF8FFE000
003FF0FFE000
003FF0FFE000
007FF07FE000
007FF07FF000
007FE07FF000
007FE07FF000
00FFE03FF800
00FFE03FF800
00FFC03FF800
00FFC03FF800
01FFC01FFC00
01FF801FFC00
01FF801FFC00
03FF801FFC00
03FFFFFFFE00
03FFFFFFFE00
03FFFFFFFE00
07FFFFFFFF00
07FFFFFFFF00
07FFFFFFFF00
07FFFFFFFF00
0FFFFFFFFF80
0FFFFFFFFF80
0FFE0007FF80
1FFE0003FF80
1FFC0003FFC0
1FFC0003FFC0
1FFC0003FFC0
3FFC0001FFE0
3FF80001FFE0
3FF80001FFE0
3FF80001FFE0
7FF80000FFF0
7FF00000FFF0
7FF00000FFF0
FFF00000FFF8
ENDCHAR
STARTCHAR Atilde
ENCODING 195
SWIDTH 600 0
DWIDTH 45 0
BBX 45 68 0 0
BITMAP
0003F0000000
000FFE008000
003FFF81C000
007FFFFFE000
00FFFFFFE000
007FFFFFF000
003FFFFFF800
003FFFFFF000
001C1FFFE000
000803FF8000
0000007F0000
000000000000
000000000000
000000000000
000000000000
000000000000
0003FFFE0000
0003FFFE0000
0003FFFE0000
0003FFFE0000
0007FFFF0000
0007FFFF0000
0007FFFF0000
000FFFFF8000
000FFFFF8000
000FFFFF8000
000FFFFF8000
001FFDFFC000
001FF9FFC000
001FF9FFC000
001FF9FFC000
003FF8FFE000
003FF0FFE000
003FF0FFE000
007FF07FE000
007FF07FF000
007FE07FF000
007FE07FF000
00FFE03FF800
00FFE03FF800
00FFC03FF800
00FFC03FF800
01FFC01FFC00
01FF801FFC00
01FF801FFC00
03FF801FFC00
03FFFFFFFE00
03FFFFFFFE00
03FFFFFFFE00
07FFFFFFFF00
07FFFFFFFF00
07FFFFFFFF00
07FFFFFFFF00
0FFFFFFFFF80
0FFFFFFFFF80
0FFE0007FF80
1FFE0003FF80
1FFC0003FFC0
1FFC0003FFC0
1FFC0003FFC0
3FFC0001FFE0
3FF80001FFE0
3FF80001FFE0
3FF80001FFE0
7FF80000FFF0
7FF00000FFF0
7FF00000FFF0
FFF00000FFF8
ENDCHAR
STARTCHAR Adieresis
ENCODING 196
SWIDTH 600 0
DWIDTH 45 0
BBX 45 68 0 0
BITMAP
001FC01FC000
007FE03FF000
007FF07FF000
00FFF07FF800
00FFF07FF800
00FFF07FF800
00FFF07FF800
00FFF07FF800
007FF07FF000
007FE03FF000
001FC01FC000
000000000000
000000000000
000000000000
000000000000
000000000000
0003FFFE0000
0003FFFE0000
0003FFFE0000
0003FFFE0000
0007FFFF0000
0007FFFF0000
0007FFFF0000
000FFFFF8000
000FFFFF8000
000FFFFF8000
000FFFFF8000
001FFDFFC000
001FF9FFC000
001FF9FFC000
001FF9FFC000
003FF8FFE000
003FF0FFE000
003FF0FFE000
007FF07FE000
007FF07FF000
007FE07FF000
007FE07FF000
00FFE03FF800
00FFE03FF800
00FFC03FF800
00FFC03FF800
01FFC01FFC00
01FF801FFC00
01FF801FFC00
03FF801FFC00
03FFFFFFFE00
03FFFFFFFE00
03FFFFFFFE00
07FFFFFFFF00
07FFFFFFFF00
07FFFFFFFF00
07FFFFFFFF00
0FFFFFFFFF80
0FFFFFFFFF80
0FFE0007FF80
1FFE0003FF80
1FFC0003FFC0
1FFC0003FFC0
1FFC0003FFC0
3FFC0001FFE0
3FF80001FFE0
3FF80001FFE0
3FF80001FFE0
7FF80000FFF0
7FF00000FFF0
7FF00000FFF0
FFF00000FFF8
ENDCHAR
STARTCHAR Aring
ENCODING 197
SWIDTH 600 0
DWIDTH 45 0
BBX 45 76 0 0
BITMAP
00001FC00000
00007FF00000
0001FFFC0000
0003FFFE0000
0007FFFF0000
0007FFFF0000
000FF07F8000
000FE03F8000
000FE03F8000
001FE03F8000
001FE03FC000
001FE03FC000
001FE03FC000
000FE03F8000
000FE03F8000
000FF07F8000
0007FFFF0000
0007FFFF0000
0003FFFE0000
0001FFFC0000
00007FF00000
00001FC00000
000000000000
000000000000
0003FFFE0000
0003FFFE0000
0003FFFE0000
0003FFFE0000
0007FFFF0000
0007FFFF0000
0007FFFF0000
000FFFFF8000
000FFFFF8000
000FFFFF8000
000FFFFF8000
001FFDFFC000
001FF9FFC000
001FF9FFC000
001FF9FFC000
003FF8FFE000
003FF0FFE000
003FF0FFE000
007FF07FE000
007FF07FF000
007FE07FF000
007FE07FF000
00FFE03FF800
00FFE03FF800
00FFC03FF800
00FFC03FF800
01FFC01FFC00
01FF801FFC00
01FF801FFC00
03FF801FFC00
03FFFFFFFE00
03FFFFFFFE00
03FFFFFFFE00
07FFFFFFFF00
07FFFFFFFF00
07FFFFFFFF00
07FFFFFFFF00
0FFFFFFFFF80
0FFFFFFFFF80
0FFE0007FF80
1FFE0003FF80
1FFC0003FFC0
1FFC0003FFC0
1FFC0003FFC0
3FFC0001FFE0
3FF80001FFE0
3FF80001FFE0
3FF80001FFE0
7FF80000FFF0
7FF00000FFF0
7FF00000FFF0
FFF00000FFF8
ENDCHAR
STARTCHAR AE
ENCODING 198
SWIDTH 600 0
DWIDTH 45 0
BBX 43 52 0 0
BITMAP
001FFFFFFFE0
001FFFFFFFE0
001FFFFFFFE0
001FFFFFFFE0
001FFFFFFFE0
003FFFFFFFE0
003FFFFFFFE0
003FFFFFFFE0
003FE7FFFFE0
007FE7FE0000
007FE7FE0000
007FE7FE0000
007FC7FE0000
007FC7FE0000
00FFC7FE0000
00FFC7FE0000
00FFC7FE0000
00FF87FE0000
01FF87FE0000
01FF87FE0000
01FF87FE0000
01FF87FFFFC0
03FF87FFFFC0
03FF07FFFFC0
03FF07FFFFC0
03FF07FFFFC0
03FF07FFFFC0
07FF07FFFFC0
07FE07FFFFC0
07FE07FFFFC0
07FE07FE0000
0FFFFFFE0000
0FFFFFFE0000
0FFFFFFE0000
0FFFFFFE0000
1FFFFFFE0000
1FFFFFFE0000
1FFFFFFE0000
1FFFFFFE0000
1FFFFFFE0000
3FF807FE0000
3FF807FE0000
3FF807FE0000
3FF007FFFFE0
7FF007FFFFE0
7FF007FFFFE0
7FF007FFFFE0
7FF007FFFFE0
FFE007FFFFE0
FFE007FFFFE0
FFE007FFFFE0
FFE007FFFFE0
ENDCHAR
STARTCHAR Ccedilla
ENCODING 199
SWIDTH 600 0
DWIDTH 45 0
BBX 39 69 3 -16
BITMAP
0000FFC000
000FFFF800
003FFFFE00
007FFFFF00
01FFFFFFC0
03FFFFFFE0
03FFFFFFE0
07FFFFFFF0
0FFFFFFFF8
0FFF81FFF8
1FFF007FFC
1FFE003FFC
3FFC001FFE
3FFC001FFE
3FF8000FFE
7FF8000FF8
7FF8000F80
7FF0000800
7FF0000000
7FF0000000
FFF0000000
FFF0000000
FFF0000000
FFF0000000
FFF0000000
FFF0000000
FFF0000000
FFF0000000
FFF0000000
FFF0000000
FFF0000000
FFF0000000
FFF0000000
FFF0000000
7FF0000000
7FF0000000
7FF0000800
7FF8000F80
7FF8000FF8
3FF8000FFE
3FFC001FFE
3FFC001FFE
1FFE003FFC
1FFF007FFC
0FFF81FFF8
0FFFFFFFF8
07FFFFFFF0
07FFFFFFE0
03FFFFFFE0
01FFFFFFC0
00FFFFFF80
003FFFFE00
000FFFF800
0001FFC000
00007C0000
00007C0000
0000F80000
0000FFF000
0000FFF800
00000FFC00
000003FC00
000001FE00
000301FE00
000783FE00
0007FFFC00
000FFFFC00
001FFFF800
0003FFF000
0000FF8000
ENDCHAR
STARTCHAR Egrave
ENCODING 200
SWIDTH 600 0
DWIDTH 45 0
BBX 33 74 6 0
BITMAP
0002000000
000E000000
003F000000
00FF000000
03FF800000
07FF800000
01FFC00000
00FFC00000
00FFE00000
007FE00000
003FF00000
001FF00000
001FF80000
000FF80000
0007FC0000
0003F80000
0003E00000
0001800000
0000000000
0000000000
0000000000
0000000000
FFFFFFFF80
FFFFFFFF80
FFFFFFFF80
FFFFFFFF80
FFFFFFFF80
FFFFFFFF80
FFFFFFFF80
FFFFFFFF80
FFFFFFFF80
FFE0000000
FFE0000000
FFE0000000
FFE0000000
FFE0000000
FFE0000000
FFE0000000
FFE0000000
FFE0000000
FFE0000000
FFE0000000
FFE0000000
FFFFFFFF80
FFFFFFFF80
FFFFFFFF80
FFFFFFFF80
FFFFFFFF80
FFFFFFFF80
FFFFFFFF80
FFFFFFFF80
FFFFFFFF80
FFE0000000
FFE0000000
FFE0000000
FFE0000000
FFE0000000
FFE0000000
FFE0000000
FFE0000000
FFE0000000
FFE0000000
FFE0000000
FFE0000000
FFE0000000
FFFFFFFF80
FFFFFFFF80
FFFFFFFF80
FFFFFFFF80
FFFFFFFF80
FFFFFFFF80
FFFFFFFF80
FFFFFFFF80
FFFFFFFF80
ENDCHAR
STARTCHAR Eacute
ENCODING 201
SWIDTH 600 0
DWIDTH 45 0
BBX 33 74 6 0
BITMAP
0000200000
0000380000
00003E0000
00007F8000
00007FE000
0000FFF000
0000FFE000
0001FFC000
0001FF8000
0003FF0000
0007FF0000
0007FE0000
000FFC0000
000FF80000
001FF80000
0007F00000
0001E00000
0000400000
0000000000
0000000000
0000000000
0000000000
FFFFFFFF80
FFFFFFFF80
FFFFFFFF80
FFFFFFFF80
FFFFFFFF80
FFFFFFFF80
FFFFFFFF80
FFFFFFFF80
FFFFFFFF80
FFE0000000
FFE0000000
FFE0000000
FFE0000000
FFE0000000
FFE0000000
FFE0000000
FFE0000000
FFE0000000
FFE0000000
FFE0000000
FFE0000000
FFFFFFFF80
FFFFFFFF80
FFFFFFFF80
FFFFFFFF80
FFFFFFFF80
FFFFFFFF80
FFFFFFFF80
FFFFFFFF80
FFFFFFFF80
FFE0000000
FFE0000000
FFE0000000
FFE0000000
FFE0000000
FFE0000000
FFE0000000
FFE0000000
FFE0000000
FFE0000000
FFE0000000
FFE0000000
FFE0000000
FFFFFFFF80
FFFFFFFF80
FFFFFFFF80
FFFFFFFF80
FFFFFFFF80
FFFFFFFF80
FFFFFFFF80
FFFFFFFF80
FFFFFFFF80
ENDCHAR
STARTCHAR Ecircumflex
ENCODING 202
SWIDTH 600 0
DWIDTH 45 0
BBX 33 71 6 0
BITMAP
000FFC0000
001FFE0000
003FFF0000
007FFF0000
00FFFF8000
01FFFFC000
01FFFFE000
03FFFFF000
07FF3FF800
0FFC1FF800
1FF80FFC00
3FF007FE00
1FE003FC00
0FC001F800
038000F000
0100004000
0000000000
0000000000
0000000000
FFFFFFFF80
FFFFFFFF80
FFFFFFFF80
FFFFFFFF80
FFFFFFFF80
FFFFFFFF80
FFFFFFFF80
FFFFFFFF80
FFFFFFFF80
FFE0000000
FFE0000000
FFE0000000
FFE0000000
FFE0000000
FFE0000000
FFE0000000
FFE0000000
FFE0000000
FFE0000000
FFE0000000
FFE0000000
FFFFFFFF80
FFFFFFFF80
FFFFFFFF80
FFFFFFFF80
FFFFFFFF80
FFFFFFFF80
FFFFFFFF80
FFFFFFFF80
FFFFFFFF80
FFE0000000
FFE0000000
FFE0000000
FFE0000000
FFE0000000
FFE0000000
FFE0000000
FFE0000000
FFE0000000
FFE0000000
FFE0000000
FFE0000000
FFE0000000
FFFFFFFF80
FFFFFFFF80
FFFFFFFF80
FFFFFFFF80
FFFFFFFF80
FFFFFFFF80
FFFFFFFF80
FFFFFFFF80
FFFFFFFF80
ENDCHAR
STARTCHAR Edieresis
ENCODING 203
SWIDTH 600 0
DWIDTH 45 0
BBX 33 68 6 0
BITMAP
07F003F000
0FF80FFC00
1FFC1FFE00
1FFC1FFE00
3FFE1FFE00
3FFE1FFE00
3FFE1FFE00
1FFC1FFE00
1FFC1FFC00
0FF80FFC00
07F003F000
0000000000
0000000000
0000000000
0000000000
0000000000
FFFFFFFF80
FFFFFFFF80
FFFFFFFF80
FFFFFFFF80
FFFFFFFF80
FFFFFFFF80
FFFFFFFF80
FFFFFFFF80
FFFFFFFF80
FFE0000000
FFE0000000
FFE0000000
FFE0000000
FFE0000000
FFE0000000
FFE0000000
FFE0000000
FFE0000000
FFE0000000
FFE0000000
FFE0000000
FFFFFFFF80
FFFFFFFF80
FFFFFFFF80
FFFFFFFF80
FFFFFFFF80
FFFFFFFF80
FFFFFFFF80
FFFFFFFF80
FFFFFFFF80
FFE0000000
FFE0000000
FFE0000000
FFE0000000
FFE0000000
FFE0000000
FFE0000000
FFE0000000
FFE0000000
FFE0000000
FFE0000000
FFE0000000
FFE0000000
FFFFFFFF80
FFFFFFFF80
FFFFFFFF80
FFFFFFFF80
FFFFFFFF80
FFFFFFFF80
FFFFFFFF80
FFFFFFFF80
FFFFFFFF80
ENDCHAR
STARTCHAR Igrave
ENCODING 204
SWIDTH 600 0
DWIDTH 45 0
BBX 33 74 6 0
BITMAP
0002000000
000E000000
003F000000
00FF000000
03FF800000
07FF800000
01FFC00000
01FFC00000
00FFE00000
007FE00000
003FF00000
003FF00000
001FF80000
000FF80000
0007FC0000
0007F00000
0003C00000
0001000000
0000000000
0000000000
0000000000
0000000000
FFFFFFFF80
FFFFFFFF80
FFFFFFFF80
FFFFFFFF80
FFFFFFFF80
FFFFFFFF80
FFFFFFFF80
FFFFFFFF80
FFFFFFFF80
001FFC0000
001FFC0000
001FFC0000
001FFC0000
001FFC0000
001FFC0000
001FFC0000
001FFC0000
001FFC0000
001FFC0000
001FFC0000
001FFC0000
001FFC0000
001FFC0000
001FFC0000
001FFC0000
001FFC0000
001FFC0000
001FFC0000
001FFC0000
001FFC0000
001FFC0000
001FFC0000
001FFC0000
001FFC0000
001FFC0000
001FFC0000
001FFC0000
001FFC0000
001FFC0000
001FFC0000
001FFC0000
001FFC0000
001FFC0000
FFFFFFFF80
FFFFFFFF80
FFFFFFFF80
FFFFFFFF80
FFFFFFFF80
FFFFFFFF80
FFFFFFFF80
FFFFFFFF80
FFFFFFFF80
ENDCHAR
STARTCHAR Iacute
ENCODING 205
SWIDTH 600 0
DWIDTH 45 0
BBX 33 74 6 0
BITMAP
0000200000
0000380000
00007E0000
00007F8000
0000FFE000
0000FFF000
0001FFC000
0001FFC000
0003FF8000
0003FF0000
0007FE0000
0007FE0000
000FFC0000
000FF80000
001FF00000
0007F00000
0001E00000
0000400000
0000000000
0000000000
0000000000
0000000000
FFFFFFFF80
FFFFFFFF80
FFFFFFFF80
FFFFFFFF80
FFFFFFFF80
FFFFFFFF80
FFFFFFFF80
FFFFFFFF80
FFFFFFFF80
001FFC0000
001FFC0000
001FFC0000
001FFC0000
001FFC0000
001FFC0000
001FFC0000
001FFC0000
001FFC0000
001FFC0000
001FFC0000
001FFC0000
001FFC0000
001FFC0000
001FFC0000
001FFC0000
001FFC0000
001FFC0000
001FFC0000
001FFC0000
001FFC0000
001FFC0000
001FFC0000
001FFC0000
001FFC0000
001FFC0000
001FFC0000
001FFC0000
001FFC0000
001FFC0000
001FFC0000
001FFC0000
001FFC0000
001FFC0000
FFFFFFFF80
FFFFFFFF80
FFFFFFFF80
FFFFFFFF80
FFFFFFFF80
FFFFFFFF80
FFFFFFFF80
FFFFFFFF80
FFFFFFFF80
ENDCHAR
STARTCHAR Icircumflex
ENCODING 206
SWIDTH 600 0
DWIDTH 45 0
BBX 33 71 6 0
BITMAP
001FFC0000
001FFC0000
003FFE0000
007FFF0000
00FFFF8000
01FFFFC000
03FFFFE000
03FFFFF000
07FE7FF000
0FFC3FF800
1FF80FFC00
3FF007FE00
1FE003FC00
0FC001F800
078000E000
0100004000
0000000000
0000000000
0000000000
FFFFFFFF80
FFFFFFFF80
FFFFFFFF80
FFFFFFFF80
FFFFFFFF80
FFFFFFFF80
FFFFFFFF80
FFFFFFFF80
FFFFFFFF80
001FFC0000
001FFC0000
001FFC0000
001FFC0000
001FFC0000
001FFC0000
001FFC0000
001FFC0000
001FFC0000
001FFC0000
001FFC0000
001FFC0000
001FFC0000
001FFC0000
001FFC0000
001FFC0000
001FFC0000
001FFC0000
001FFC0000
001FFC0000
001FFC0000
001FFC0000
001FFC0000
001FFC0000
001FFC0000
001FFC0000
001FFC0000
001FFC0000
001FFC0000
001FFC0000
001FFC0000
001FFC0000
001FFC0000
001FFC0000
FFFFFFFF80
FFFFFFFF80
FFFFFFFF80
FFFFFFFF80
FFFFFFFF80
FFFFFFFF80
FFFFFFFF80
FFFFFFFF80
FFFFFFFF80
ENDCHAR
STARTCHAR Idieresis
ENCODING 207
SWIDTH 600 0
DWIDTH 45 0
BBX 33 68 6 0
BITMAP
07F007F000
1FF80FFC00
1FFC1FFC00
3FFC1FFE00
3FFC1FFE00
3FFC1FFE00
3FFC1FFE00
3FFC1FFE00
1FFC1FFC00
1FF80FFC00
07F007F000
0000000000
0000000000
0000000000
0000000000
0000000000
FFFFFFFF80
FFFFFFFF80
FFFFFFFF80
FFFFFFFF80
FFFFFFFF80
FFFFFFFF80
FFFFFFFF80
FFFFFFFF80
FFFFFFFF80
001FFC0000
001FFC0000
001FFC0000
001FFC0000
001FFC0000
001FFC0000
001FFC0000
001FFC0000
001FFC0000
001FFC0000
001FFC0000
001FFC0000
001FFC0000
001FFC0000
001FFC0000
001FFC0000
001FFC0000
001FFC0000
001FFC0000
001FFC0000
001FFC0000
001FFC0000
001FFC0000
001FFC0000
001FFC0000
001FFC0000
001FFC0000
001FFC0000
001FFC0000
001FFC0000
001FFC0000
001FFC0000
001FFC0000
001FFC0000
FFFFFFFF80
FFFFFFFF80
FFFFFFFF80
FFFFFFFF80
FFFFFFFF80
FFFFFFFF80
FFFFFFFF80
FFFFFFFF80
FFFFFFFF80
ENDCHAR
STARTCHAR Eth
ENCODING 208
SWIDTH 600 0
DWIDTH 45 0
BBX 41 52 1 0
BITMAP
0FFFFFC00000
0FFFFFF80000
0FFFFFFF0000
0FFFFFFF8000
0FFFFFFFC000
0FFFFFFFE000
0FFFFFFFF000
0FFFFFFFF800
0FFFFFFFFC00
0FFE01FFFC00
0FFE003FFE00
0FFE001FFE00
0FFE001FFE00
0FFE000FFF00
0FFE000FFF00
0FFE0007FF00
0FFE0007FF80
0FFE0007FF80
0FFE0007FF80
0FFE0003FF80
FFFFFF03FF80
FFFFFF03FF80
FFFFFF03FF80
FFFFFF03FF80
FFFFFF03FF80
FFFFFF03FF80
FFFFFF03FF80
FFFFFF03FF80
FFFFFF03FF80
0FFE0003FF80
0FFE0003FF80
0FFE0003FF80
0FFE0007FF80
0FFE0007FF80
0FFE0007FF80
0FFE0007FF80
0FFE0007FF00
0FFE000FFF00
0FFE000FFF00
0FFE001FFE00
0FFE001FFE00
0FFE003FFE00
0FFE01FFFC00
0FFFFFFFFC00
0FFFFFFFF800
0FFFFFFFF000
0FFFFFFFE000
0FFFFFFFC000
0FFFFFFF8000
0FFFFFFE0000
0FFFFFFC0000
0FFFFFC00000
ENDCHAR
STARTCHAR Ntilde
ENCODING 209
SWIDTH 600 0
DWIDTH 45 0
BBX 35 68 5 0
BITMAP
007E000000
01FFC01000
07FFF03800
0FFFFFFC00
1FFFFFFC00
0FFFFFFE00
07FFFFFF00
07FFFFFE00
0383FFFC00
01007FF000
00000FE000
0000000000
0000000000
0000000000
0000000000
0000000000
FFF8003FE0
FFFC003FE0
FFFC003FE0
FFFC003FE0
FFFE003FE0
FFFE003FE0
FFFE003FE0
FFFF003FE0
FFFF003FE0
FFFF003FE0
FFFF803FE0
FFFF803FE0
FFFF803FE0
FFFFC03FE0
FFFFC03FE0
FFFFC03FE0
FFFFE03FE0
FFFFE03FE0
FFBFE03FE0
FF9FF03FE0
FF9FF03FE0
FF9FF83FE0
FF8FF83FE0
FF8FF83FE0
FF8FFC3FE0
FF87FC3FE0
FF87FC3FE0
FF87FE3FE0
FF83FE3FE0
FF83FE3FE0
FF83FF3FE0
FF81FF3FE0
FF81FF3FE0
FF80FFBFE0
FF80FFFFE0
FF80FFFFE0
FF807FFFE0
FF807FFFE0
FF807FFFE0
FF803FFFE0
FF803FFFE0
FF803FFFE0
FF801FFFE0
FF801FFFE0
FF801FFFE0
FF800FFFE0
FF800FFFE0
FF800FFFE0
FF8007FFE0
FF8007FFE0
FF8007FFE0
FF8003FFE0
ENDCHAR
STARTCHAR Ograve
ENCODING 210
SWIDTH 600 0
DWIDTH 45 0
BBX 41 75 2 -1
BITMAP
000020000000
0000E0000000
0003F0000000
000FF0000000
003FF8000000
007FF8000000
001FFC000000
001FFC000000
000FFE000000
0007FE000000
0003FF000000
0003FF000000
0001FF800000
0000FF800000
00007FC00000
00007F000000
00003C000000
000010000000
000000000000
000000000000
000000000000
0001FFC00000
000FFFF80000
003FFFFE0000
00FFFFFF8000
01FFFFFFC000
03FFFFFFE000
07FFFFFFF000
07FFFFFFF000
0FFFFFFFF800
0FFF80FFF800
1FFF007FFC00
1FFE003FFC00
3FFC001FFE00
3FF8000FFE00
3FF8000FFE00
7FF8000FFF00
7FF8000FFF00
7FF00007FF00
7FF00007FF00
FFF00007FF00
FFF00007FF80
FFF00007FF80
FFF00007FF80
FFF00007FF80
FFF00007FF80
FFF00007FF80
FFF00007FF80
FFF00007FF80
FFF00007FF80
FFF00007FF80
FFF00007FF80
FFF00007FF80
FFF00007FF80
FFF00007FF80
7FF00007FF00
7FF00007FF00
7FF00007FF00
7FF8000FFF00
7FF8000FFF00
3FF8000FFE00
3FF8000FFE00
3FFC001FFE00
1FFE003FFC00
1FFF007FFC00
0FFF80FFF800
0FFFFFFFF800
07FFFFFFF000
07FFFFFFF000
03FFFFFFE000
01FFFFFFC000
00FFFFFF0000
003FFFFE0000
000FFFF80000
0001FFC00000
ENDCHAR
STARTCHAR Oacute
ENCODING 211
SWIDTH 600 0
DWIDTH 45 0
BBX 41 75 2 -1
BITMAP
000002000000
000003800000
000007E00000
000007F80000
00000FFE0000
00000FFF0000
00001FFC0000
00001FFC0000
00003FF80000
00003FF00000
00007FE00000
00007FE00000
0000FFC00000
0000FF800000
0001FF000000
00007F000000
00001E000000
000004000000
000000000000
000000000000
000000000000
0001FFC00000
000FFFF80000
003FFFFE0000
00FFFFFF8000
01FFFFFFC000
03FFFFFFE000
07FFFFFFF000
07FFFFFFF000
0FFFFFFFF800
0FFF80FFF800
1FFF007FFC00
1FFE003FFC00
3FFC001FFE00
3FF8000FFE00
3FF8000FFE00
7FF8000FFF00
7FF8000FFF00
7FF00007FF00
7FF00007FF00
FFF00007FF00
FFF00007FF80
FFF00007FF80
FFF00007FF80
FFF00007FF80
FFF00007FF80
FFF00007FF80
FFF00007FF80
FFF00007FF80
FFF00007FF80
FFF00007FF80
FFF00007FF80
FFF00007FF80
FFF00007FF80
FFF00007FF80
7FF00007FF00
7FF00007FF00
7FF00007FF00
7FF8000FFF00
7FF8000FFF00
3FF8000FFE00
3FF8000FFE00
3FFC001FFE00
1FFE003FFC00
1FFF007FFC00
0FFF80FFF800
0FFFFFFFF800
07FFFFFFF000
07FFFFFFF000
03FFFFFFE000
01FFFFFFC000
00FFFFFF0000
003FFFFE0000
000FFFF80000
0001FFC00000
ENDCHAR
STARTCHAR Ocircumflex
ENCODING 212
SWIDTH 600 0
DWIDTH 45 0
BBX 41 72 2 -1
BITMAP
0001FFC00000
0001FFC00000
0003FFE00000
0007FFF00000
000FFFF80000
001FFFFC0000
003FFFFE0000
003FFFFF0000
007FE7FF0000
00FFC3FF8000
01FF80FFC000
03FF007FE000
01FE003FC000
00FC001F8000
0078000E0000
001000040000
000000000000
000000000000
0001FFC00000
000FFFF80000
003FFFFE0000
00FFFFFF8000
01FFFFFFC000
03FFFFFFE000
07FFFFFFF000
07FFFFFFF000
0FFFFFFFF800
0FFF80FFF800
1FFF007FFC00
1FFE003FFC00
3FFC001FFE00
3FF8000FFE00
3FF8000FFE00
7FF8000FFF00
7FF8000FFF00
7FF00007FF00
7FF00007FF00
FFF00007FF00
FFF00007FF80
FFF00007FF80
FFF00007FF80
FFF00007FF80
FFF00007FF80
FFF00007FF80
FFF00007FF80
FFF00007FF80
FFF00007FF80
FFF00007FF80
FFF00007FF80
FFF00007FF80
FFF00007FF80
FFF00007FF80
7FF00007FF00
7FF00007FF00
7FF00007FF00
7FF8000FFF00
7FF8000FFF00
3FF8000FFE00
3FF8000FFE00
3FFC001FFE00
1FFE003FFC00
1FFF007FFC00
0FFF80FFF800
0FFFFFFFF800
07FFFFFFF000
07FFFFFFF000
03FFFFFFE000
01FFFFFFC000
00FFFFFF0000
003FFFFE0000
000FFFF80000
0001FFC00000
ENDCHAR
STARTCHAR Otilde
ENCODING 213
SWIDTH 600 0
DWIDTH 45 0
BBX 41 69 2 -1
BITMAP
000FC0000000
003FF8020000
00FFFE070000
01FFFFFF8000
03FFFFFF8000
01FFFFFFC000
00FFFFFFE000
00FFFFFFC000
00707FFF8000
00200FFE0000
000001FC0000
000000000000
000000000000
000000000000
000000000000
0001FFC00000
000FFFF80000
003FFFFE0000
00FFFFFF8000
01FFFFFFC000
03FFFFFFE000
07FFFFFFF000
07FFFFFFF000
0FFFFFFFF800
0FFF80FFF800
1FFF007FFC00
1FFE003FFC00
3FFC001FFE00
3FF8000FFE00
3FF8000FFE00
7FF8000FFF00
7FF8000FFF00
7FF00007FF00
7FF00007FF00
FFF00007FF00
FFF00007FF80
FFF00007FF80
FFF00007FF80
FFF00007FF80
FFF00007FF80
FFF00007FF80
FFF00007FF80
FFF00007FF80
FFF00007FF80
FFF00007FF80
FFF00007FF80
FFF00007FF80
FFF00007FF80
FFF00007FF80
7FF00007FF00
7FF00007FF00
7FF00007FF00
7FF8000FFF00
7FF8000FFF00
3FF8000FFE00
3FF8000FFE00
3FFC001FFE00
1FFE003FFC00
1FFF007FFC00
0FFF80FFF800
0FFFFFFFF800
07FFFFFFF000
07FFFFFFF000
03FFFFFFE000
01FFFFFFC000
00FFFFFF0000
003FFFFE0000
000FFFF80000
0001FFC00000
ENDCHAR
STARTCHAR Odieresis
ENCODING 214
SWIDTH 600 0
DWIDTH 45 0
BBX 41 69 2 -1
BITMAP
007F007F0000
01FF80FFC000
01FFC1FFC000
03FFC1FFE000
03FFC1FFE000
03FFC1FFE000
03FFC1FFE000
03FFC1FFE000
01FFC1FFC000
01FF80FFC000
007F007F0000
000000000000
000000000000
000000000000
000000000000
0001FFC00000
000FFFF80000
003FFFFE0000
00FFFFFF8000
01FFFFFFC000
03FFFFFFE000
07FFFFFFF000
07FFFFFFF000
0FFFFFFFF800
0FFF80FFF800
1FFF007FFC00
1FFE003FFC00
3FFC001FFE00
3FF8000FFE00
3FF8000FFE00
7FF8000FFF00
7FF8000FFF00
7FF00007FF00
7FF00007FF00
FFF00007FF00
FFF00007FF80
FFF00007FF80
FFF00007FF80
FFF00007FF80
FFF00007FF80
FFF00007FF80
FFF00007FF80
FFF00007FF80
FFF00007FF80
FFF00007FF80
FFF00007FF80
FFF00007FF80
FFF00007FF80
FFF00007FF80
7FF00007FF00
7FF00007FF00
7FF00007FF00
7FF8000FFF00
7FF8000FFF00
3FF8000FFE00
3FF8000FFE00
3FFC001FFE00
1FFE003FFC00
1FFF007FFC00
0FFF80FFF800
0FFFFFFFF800
07FFFFFFF000
07FFFFFFF000
03FFFFFFE000
01FFFFFFC000
00FFFFFF0000
003FFFFE0000
000FFFF80000
0001FFC00000
ENDCHAR
STARTCHAR multiply
ENCODING 215
SWIDTH 600 0
DWIDTH 45 0
BBX 35 35 5 5
BITMAP
0200000800
0700001C00
0F80003E00
1FC0007F00
3FE000FF80
7FF001FFC0
FFF803FFE0
7FFC07FFC0
3FFE0FFF80
1FFF1FFF00
0FFFBFFE00
07FFFFFC00
03FFFFF800
01FFFFF000
00FFFFE000
007FFFC000
003FFF8000
001FFF0000
003FFF8000
007FFFC000
00FFFFE000
01FFFFF000
03FFFFF800
07FFFFFC00
0FFFBFFE00
1FFF1FFF00
3FFE0FFF80
7FFC07FFC0
FFF803FFE0
3FF001FF80
1FE000FF00
0FC0007E00
0780003C00
0300001800
0200001000
ENDCHAR
STARTCHAR Oslash
ENCODING 216
SWIDTH 600 0
DWIDTH 45 0
BBX 43 62 1 -5
BITMAP
000000001000
000000001C00
000000003F00
000000007FC0
0000FFE07FE0
0007FFFCFFC0
001FFFFFFF80
007FFFFFFF00
00FFFFFFFF00
01FFFFFFFE00
03FFFFFFFE00
03FFFFFFFC00
07FFFFFFFC00
07FFC07FFC00
0FFF803FFE00
0FFF003FFE00
1FFE003FFF00
1FFC007FFF00
1FFC007FFF00
3FFC00FFFF80
3FFC00FFFF80
3FF801FFFF80
3FF803FFFF80
7FF803FFFF80
7FF807FBFFC0
7FF807FBFFC0
7FF80FF3FFC0
7FF80FF3FFC0
7FF81FE3FFC0
7FF83FC3FFC0
7FF83FC3FFC0
7FF87F83FFC0
7FF87F83FFC0
7FF8FF03FFC0
7FF9FE03FFC0
7FF9FE03FFC0
7FFBFC03FFC0
7FFBFC03FFC0
7FFFF803FF80
3FFFF803FF80
3FFFF003FF80
3FFFE007FF80
3FFFE007FF80
1FFFC007FF00
1FFFC007FF00
1FFF800FFF00
0FFF801FFE00
0FFF803FFE00
0FFFC07FFC00
07FFFFFFFC00
07FFFFFFF800
0FFFFFFFF800
0FFFFFFFF000
1FFFFFFFE000
1FFFFFFF8000
3FFFFFFF0000
7FE7FFFC0000
7FC0FFE00000
FFC000000000
1F8000000000
070000000000
010000000000
ENDCHAR
STARTCHAR Ugrave
ENCODING 217
SWIDTH 600 0
DWIDTH 45 0
BBX 37 75 4 -1
BITMAP
0000800000
0003800000
000FC00000
003FC00000
00FFE00000
01FFE00000
007FF00000
007FF00000
003FF80000
001FF80000
000FFC0000
000FFC0000
0007FE0000
0003FE0000
0001FF0000
0001FC0000
0000F00000
0000400000
0000000000
0000000000
0000000000
0000000000
FFE0003FF8
FFE0003FF8
FFE0003FF8
FFE0003FF8
FFE0003FF8
FFE0003FF8
FFE0003FF8
FFE0003FF8
FFE0003FF8
FFE0003FF8
FFE0003FF8
FFE0003FF8
FFE0003FF8
FFE0003FF8
FFE0003FF8
FFE0003FF8
FFE0003FF8
FFE0003FF8
FFE0003FF8
FFE0003FF8
FFE0003FF8
FFE0003FF8
FFE0003FF8
FFE0003FF8
FFE0003FF8
FFE0003FF8
FFE0003FF8
FFE0003FF8
FFE0003FF8
FFE0003FF8
FFE0003FF8
FFE0003FF8
FFE0003FF8
FFE0003FF8
FFE0003FF8
FFE0003FF8
FFE0003FF8
FFF0007FF8
FFF0007FF8
7FF0007FF0
7FF0007FF0
7FF800FFF0
7FFC01FFF0
7FFE03FFF0
3FFFFFFFE0
3FFFFFFFE0
1FFFFFFFC0
1FFFFFFFC0
0FFFFFFF80
07FFFFFF00
01FFFFFC00
007FFFF000
000FFF0000
ENDCHAR
STARTCHAR Uacute
ENCODING 218
SWIDTH 600 0
DWIDTH 45 0
BBX 37 75 4 -1
BITMAP
0000080000
00000E0000
00001F8000
00001FE000
00003FF800
00003FFC00
00007FF000
00007FF000
0000FFE000
0000FFC000
0001FF8000
0001FF8000
0003FF0000
0003FE0000
0007FC0000
0001FC0000
0000780000
0000100000
0000000000
0000000000
0000000000
0000000000
FFE0003FF8
FFE0003FF8
FFE0003FF8
FFE0003FF8
FFE0003FF8
FFE0003FF8
FFE0003FF8
FFE0003FF8
FFE0003FF8
FFE0003FF8
FFE0003FF8
FFE0003FF8
FFE0003FF8
FFE0003FF8
FFE0003FF8
FFE0003FF8
FFE0003FF8
FFE0003FF8
FFE0003FF8
FFE0003FF8
FFE0003FF8
FFE0003FF8
FFE0003FF8
FFE0003FF8
FFE0003FF8
FFE0003FF8
FFE0003FF8
FFE0003FF8
FFE0003FF8
FFE0003FF8
FFE0003FF8
FFE0003FF8
FFE0003FF8
FFE0003FF8
FFE0003FF8
FFE0003FF8
FFE0003FF8
FFF0007FF8
FFF0007FF8
7FF0007FF0
7FF0007FF0
7FF800FFF0
7FFC01FFF0
7FFE03FFF0
3FFFFFFFE0
3FFFFFFFE0
1FFFFFFFC0
1FFFFFFFC0
0FFFFFFF80
07FFFFFF00
01FFFFFC00
007FFFF000
000FFF0000
ENDCHAR
STARTCHAR Ucircumflex
ENCODING 219
SWIDTH 600 0
DWIDTH 45 0
BBX 37 72 4 -1
BITMAP
0007FF0000
0007FF0000
000FFF8000
001FFFC000
003FFFE000
007FFFF000
00FFFFF800
00FFFFFC00
01FF9FFC00
03FF0FFE00
07FE03FF00
0FFC01FF80
07F800FF00
03F0007E00
01E0003800
0040001000
0000000000
0000000000
0000000000
FFE0003FF8
FFE0003FF8
FFE0003FF8
FFE0003FF8
FFE0003FF8
FFE0003FF8
FFE0003FF8
FFE0003FF8
FFE0003FF8
FFE0003FF8
FFE0003FF8
FFE0003FF8
FFE0003FF8
FFE0003FF8
FFE0003FF8
FFE0003FF8
FFE0003FF8
FFE0003FF8
FFE0003FF8
FFE0003FF8
FFE0003FF8
FFE0003FF8
FFE0003FF8
FFE0003FF8
FFE0003FF8
FFE0003FF8
FFE0003FF8
FFE0003FF8
FFE0003FF8
FFE0003FF8
FFE0003FF8
FFE0003FF8
FFE0003FF8
FFE0003FF8
FFE0003FF8
FFE0003FF8
FFE0003FF8
FFF0007FF8
FFF0007FF8
7FF0007FF0
7FF0007FF0
7FF800FFF0
7FFC01FFF0
7FFE03FFF0
3FFFFFFFE0
3FFFFFFFE0
1FFFFFFFC0
1FFFFFFFC0
0FFFFFFF80
07FFFFFF00
01FFFFFC00
007FFFF000
000FFF0000
ENDCHAR
STARTCHAR Udieresis
ENCODING 220
SWIDTH 600 0
DWIDTH 45 0
BBX 37 69 4 -1
BITMAP
01FC01FC00
07FE03FF00
07FF07FF00
0FFF07FF80
0FFF07FF80
0FFF07FF80
0FFF07FF80
0FFF07FF80
07FF07FF00
07FE03FF00
01FC01FC00
0000000000
0000000000
0000000000
0000000000
0000000000
FFE0003FF8
FFE0003FF8
FFE0003FF8
FFE0003FF8
FFE0003FF8
FFE0003FF8
FFE0003FF8
FFE0003FF8
FFE0003FF8
FFE0003FF8
FFE0003FF8
FFE0003FF8
FFE0003FF8
FFE0003FF8
FFE0003FF8
FFE0003FF8
FFE0003FF8
FFE0003FF8
FFE0003FF8
FFE0003FF8
FFE0003FF8
FFE0003FF8
FFE0003FF8
FFE0003FF8
FFE0003FF8
FFE0003FF8
FFE0003FF8
FFE0003FF8
FFE0003FF8
FFE0003FF8
FFE0003FF8
FFE0003FF8
FFE0003FF8
FFE0003FF8
FFE0003FF8
FFE0003FF8
FFE0003FF8
FFF0007FF8
FFF0007FF8
7FF0007FF0
7FF0007FF0
7FF800FFF0
7FFC01FFF0
7FFE03FFF0
3FFFFFFFE0
3FFFFFFFE0
1FFFFFFFC0
1FFFFFFFC0
0FFFFFFF80
07FFFFFF00
01FFFFFC00
007FFFF000
000FFF0000
ENDCHAR
STARTCHAR Yacute
ENCODING 221
SWIDTH 600 0
DWIDTH 45 0
BBX 45 74 0 0
BITMAP
000000800000
000000E00000
000001F80000
000001FE0000
000003FF8000
000003FFC000
000007FF0000
000007FF0000
00000FFE0000
00000FFC0000
00001FF80000
00001FF80000
00003FF00000
00003FE00000
00007FC00000
00001FC00000
000007800000
000001000000
000000000000
000000000000
000000000000
000000000000
FFF80000FFF8
7FFC0000FFF0
3FFC0001FFE0
3FFC0001FFE0
1FFE0001FFC0
1FFE0003FFC0
0FFF0003FF80
0FFF0007FF80
07FF8007FF00
07FF800FFF00
07FFC00FFF00
03FFC01FFE00
03FFE01FFE00
01FFE03FFC00
01FFE03FFC00
00FFF03FF800
00FFF07FF800
007FF87FF000
007FF8FFF000
003FF8FFE000
003FFCFFE000
001FFDFFC000
001FFFFFC000
000FFFFF8000
000FFFFF8000
0007FFFF0000
0007FFFF0000
0003FFFE0000
0003FFFE0000
0001FFFC0000
0001FFFC0000
0000FFF80000
0000FFF80000
00007FF00000
00007FF00000
00007FF00000
00007FF00000
00007FF00000
00007FF00000
00007FF00000
00007FF00000
00007FF00000
00007FF00000
00007FF00000
00007FF00000
00007FF00000
00007FF00000
00007FF00000
00007FF00000
00007FF00000
00007FF00000
00007FF00000
ENDCHAR
STARTCHAR Thorn
ENCODING 222
SWIDTH 600 0
DWIDTH 45 0
BBX 36 52 6 0
BITMAP
FFE0000000
FFE0000000
FFE0000000
FFE0000000
FFE0000000
FFE0000000
FFE0000000
FFE0000000
FFE0000000
FFFFFF0000
FFFFFFE000
FFFFFFF800
FFFFFFFC00
FFFFFFFE00
FFFFFFFF00
FFFFFFFF80
FFFFFFFFC0
FFFFFFFFC0
FFE00FFFC0
FFE003FFE0
FFE001FFE0
FFE001FFE0
FFE000FFE0
FFE000FFF0
FFE000FFF0
FFE000FFF0
FFE000FFF0
FFE000FFF0
FFE000FFE0
FFE001FFE0
FFE001FFE0
FFE003FFE0
FFE007FFE0
FFFFFFFFC0
FFFFFFFFC0
FFFFFFFF80
FFFFFFFF00
FFFFFFFE00
FFFFFFFC00
FFFFFFF800
FFFFFFE000
FFFFFF0000
FFE0000000
FFE0000000
FFE0000000
FFE0000000
FFE0000000
FFE0000000
FFE0000000
FFE0000000
FFE0000000
FFE0000000
ENDCHAR
STARTCHAR germandbls
ENCODING 223
SWIDTH 600 0
DWIDTH 45 0
BBX 39 71 4 -15
BITMAP
00FFFF0000
07FFFF0000
0FFFFF0000
1FFFFF0000
3FFFFF0000
3FFFFF0000
7FFFFF0000
7FFFFF0000
7FFFFF0000
7FE0000000
FFE0000000
FFE0000000
FFE0000000
FFE0000000
FFE0000000
FFE0000000
FFE0000000
FFFFFFFFF8
FFFFFFFFF8
FFFFFFFFF8
FFFFFFFFF8
FFFFFFFFF8
FFFFFFFFF8
FFFFFFFFF8
FFFFFFFFF8
FFFFFFFFF0
FFE0007FF0
FFE0007FE0
FFE000FFC0
FFE001FFC0
FFE003FF80
FFE003FF00
FFE007FE00
FFE00FFE00
FFE00FFC00
FFE01FF800
FFE03FF800
FFE03FF000
FFE07FE000
FFE0FFE000
FFE0FFE000
FFE0FFFC00
FFE0FFFF00
FFE0FFFFC0
FFE0FFFFE0
FFE0FFFFF0
FFE0FFFFF8
FFE0FFFFF8
FFE001FFFC
FFE0003FFC
FFE0001FFE
FFE0001FFE
FFE0000FFE
FFE0000FFE
FFE0000FFE
FFE0000FFE
0000000FFE
0000000FFE
0000001FFE
0000001FFE
0000003FFC
000001FFFC
0003FFFFF8
0003FFFFF8
0003FFFFF0
0003FFFFE0
0003FFFFC0
0003FFFF80
0003FFFE00
0003FFF800
0003FF8000
ENDCHAR
STARTCHAR agrave
ENCODING 224
SWIDTH 600 0
DWIDTH 45 0
BBX 39 62 4 -1
BITMAP
0001000000
0007800000
001F800000
007FC00000
01FFC00000
01FFE00000
00FFE00000
007FF00000
003FF00000
003FF80000
001FF80000
000FFC0000
0007FC0000
0007FE0000
0003FE0000
0001FC0000
0000F00000
0000C00000
0000000000
0000000000
0000000000
000FFE0000
007FFFE000
01FFFFF800
07FFFFFC00
0FFFFFFE00
1FFFFFFF00
3FFFFFFF80
7FFFFFFF80
7FFFFFFFC0
3FF80FFFC0
1FE003FFC0
0F8001FFC0
070001FFE0
020001FFE0
000001FFE0
000000FFE0
000000FFE0
001FFFFFE0
01FFFFFFE0
07FFFFFFE0
0FFFFFFFE0
1FFFFFFFE0
3FFFFFFFE0
7FFC00FFE0
7FF000FFE0
FFE000FFE0
FFE000FFE0
FFE000FFE0
FFE001FFE0
FFE001FFE0
FFE001FFE0
FFE003FFFE
FFF007FFFE
FFFC0FFFFE
7FFFFF7FFE
7FFFFF7FFE
3FFFFE7FFE
1FFFFC3FFE
0FFFF81FFE
03FFF007FE
00FF800000
ENDCHAR
STARTCHAR aacute
ENCODING 225
SWIDTH 600 0
DWIDTH 45 0
BBX 39 62 4 -1
BITMAP
0000080000
00001E0000
00001F8000
00003FE000
00003FF800
00007FF800
00007FF000
0000FFE000
0000FFC000
0001FFC000
0001FF8000
0003FF0000
0003FE0000
0007FE0000
0007FC0000
0003F80000
0000F00000
0000300000
0000000000
0000000000
0000000000
000FFE0000
007FFFE000
01FFFFF800
07FFFFFC00
0FFFFFFE00
1FFFFFFF00
3FFFFFFF80
7FFFFFFF80
7FFFFFFFC0
3FF80FFFC0
1FE003FFC0
0F8001FFC0
070001FFE0
020001FFE0
000001FFE0
000000FFE0
000000FFE0
001FFFFFE0
01FFFFFFE0
07FFFFFFE0
0FFFFFFFE0
1FFFFFFFE0
3FFFFFFFE0
7FFC00FFE0
7FF000FFE0
FFE000FFE0
FFE000FFE0
FFE000FFE0
FFE001FFE0
FFE001FFE0
FFE001FFE0
FFE003FFFE
FFF007FFFE
FFFC0FFFFE
7FFFFF7FFE
7FFFFF7FFE
3FFFFE7FFE
1FFFFC3FFE
0FFFF81FFE
03FFF007FE
00FF800000
ENDCHAR
STARTCHAR acircumflex
ENCODING 226
SWIDTH 600 0
DWIDTH 45 0
BBX 39 60 4 -1
BITMAP
0007FE0000
000FFF0000
001FFF8000
003FFFC000
003FFFC000
007FFFE000
00FFFFF000
01FFFFF800
03FF9FFC00
07FF0FFE00
0FFE07FF00
0FFC03FF00
1FF801FE80
03E000FC00
01C0007800
0080003000
0000000000
0000000000
0000000000
000FFE0000
007FFFE000
01FFFFF800
07FFFFFC00
0FFFFFFE00
1FFFFFFF00
3FFFFFFF80
7FFFFFFF80
7FFFFFFFC0
3FF80FFFC0
1FE003FFC0
0F8001FFC0
070001FFE0
020001FFE0
000001FFE0
000000FFE0
000000FFE0
001FFFFFE0
01FFFFFFE0
07FFFFFFE0
0FFFFFFFE0
1FFFFFFFE0
3FFFFFFFE0
7FFC00FFE0
7FF000FFE0
FFE000FFE0
FFE000FFE0
FFE000FFE0
FFE001FFE0
FFE001FFE0
FFE001FFE0
FFE003FFFE
FFF007FFFE
FFFC0FFFFE
7FFFFF7FFE
7FFFFF7FFE
3FFFFE7FFE
1FFFFC3FFE
0FFFF81FFE
03FFF007FE
00FF800000
ENDCHAR
STARTCHAR atilde
ENCODING 227
SWIDTH 600 0
DWIDTH 45 0
BBX 39 56 4 -1
BITMAP
007F000000
01FFC00800
03FFF83800
07FFFFFC00
0FFFFFFE00
0FFFFFFF00
07FFFFFF00
03FFFFFE00
03C1FFFC00
01003FF800
00000FE000
0000000000
0000000000
0000000000
0000000000
000FFE0000
007FFFE000
01FFFFF800
07FFFFFC00
0FFFFFFE00
1FFFFFFF00
3FFFFFFF80
7FFFFFFF80
7FFFFFFFC0
3FF80FFFC0
1FE003FFC0
0F8001FFC0
070001FFE0
020001FFE0
000001FFE0
000000FFE0
000000FFE0
001FFFFFE0
01FFFFFFE0
07FFFFFFE0
0FFFFFFFE0
1FFFFFFFE0
3FFFFFFFE0
7FFC00FFE0
7FF000FFE0
FFE000FFE0
FFE000FFE0
FFE000FFE0
FFE001FFE0
FFE001FFE0
FFE001FFE0
FFE003FFFE
FFF007FFFE
FFFC0FFFFE
7FFFFF7FFE
7FFFFF7FFE
3FFFFE7FFE
1FFFFC3FFE
0FFFF81FFE
03FFF007FE
00FF800000
ENDCHAR
STARTCHAR adieresis
ENCODING 228
SWIDTH 600 0
DWIDTH 45 0
BBX 39 56 4 -1
BITMAP
03F801FC00
07FE07FE00
0FFE07FF00
0FFF0FFF00
0FFF0FFF00
0FFF0FFF00
0FFF0FFF00
0FFF0FFF00
0FFE07FF00
07FE07FE00
03F801F800
0000000000
0000000000
0000000000
0000000000
000FFE0000
007FFFE000
01FFFFF800
07FFFFFC00
0FFFFFFE00
1FFFFFFF00
3FFFFFFF80
7FFFFFFF80
7FFFFFFFC0
3FF80FFFC0
1FE003FFC0
0F8001FFC0
070001FFE0
020001FFE0
000001FFE0
000000FFE0
000000FFE0
001FFFFFE0
01FFFFFFE0
07FFFFFFE0
0FFFFFFFE0
1FFFFFFFE0
3FFFFFFFE0
7FFC00FFE0
7FF000FFE0
FFE000FFE0
FFE000FFE0
FFE000FFE0
FFE001FFE0
FFE001FFE0
FFE001FFE0
FFE003FFFE
FFF007FFFE
FFFC0FFFFE
7FFFFF7FFE
7FFFFF7FFE
3FFFFE7FFE
1FFFFC3FFE
0FFFF81FFE
03FFF007FE
00FF800000
ENDCHAR
STARTCHAR aring
ENCODING 229
SWIDTH 600 0
DWIDTH 45 0
BBX 39 64 4 -1
BITMAP
0001F80000
000FFF0000
001FFF8000
003FFFC000
007FFFE000
00FFFFF000
00FF0FF000
01FE07F800
01FC03F800
01FC03F800
01FC03F800
01FC03F800
01FC03F800
01FC03F800
01FE07F800
00FF0FF000
00FFFFF000
007FFFE000
003FFFC000
001FFF8000
000FFF0000
0003F80000
0000000000
000FFE0000
007FFFE000
01FFFFF800
07FFFFFC00
0FFFFFFE00
1FFFFFFF00
3FFFFFFF80
7FFFFFFF80
7FFFFFFFC0
3FF80FFFC0
1FE003FFC0
0F8001FFC0
070001FFE0
020001FFE0
000001FFE0
000000FFE0
000000FFE0
001FFFFFE0
01FFFFFFE0
07FFFFFFE0
0FFFFFFFE0
1FFFFFFFE0
3FFFFFFFE0
7FFC00FFE0
7FF000FFE0
FFE000FFE0
FFE000FFE0
FFE000FFE0
FFE001FFE0
FFE001FFE0
FFE001FFE0
FFE003FFFE
FFF007FFFE
FFFC0FFFFE
7FFFFF7FFE
7FFFFF7FFE
3FFFFE7FFE
1FFFFC3FFE
0FFFF81FFE
03FFF007FE
00FF800000
ENDCHAR
STARTCHAR ae
ENCODING 230
SWIDTH 600 0
DWIDTH 45 0
BBX 44 41 0 -1
BITMAP
007F000FC000
01FFC03FF800
07FFF07FFC00
0FFFF8FFFE00
1FFFF9FFFF00
1FFFFFFFFF80
3FFFFFFFFF80
3FE1FFF87FC0
7F80FFF03FC0
7F80FFE01FE0
1F007FE01FE0
03007FC01FE0
00007FC01FE0
00007FC00FE0
00007FC00FF0
00007FC00FF0
00007FC00FF0
007FFFFFFFF0
03FFFFFFFFF0
07FFFFFFFFF0
1FFFFFFFFFF0
1FFFFFFFFFF0
3FFFFFFFFFF0
7FF07FC00000
7FC07FC00000
7FC07FC00000
7F807FC00000
FF807FC00000
FF807FC00000
FF807FE00E00
FF807FE01FE0
FF80FFE01FE0
7FC0EFF03FE0
7FE1EFF87FC0
7FFFE7FFFFC0
7FFFC7FFFF80
3FFFC3FFFF80
1FFF81FFFF00
1FFF80FFFE00
07FE007FF800
01F8000FE000
ENDCHAR
STARTCHAR ccedilla
ENCODING 231
SWIDTH 600 0
DWIDTH 45 0
BBX 37 56 4 -16
BITMAP
0001FF8000
000FFFF000
003FFFFC00
00FFFFFE00
01FFFFFF80
03FFFFFF80
07FFFFFFC0
0FFFFFFFE0
1FFFFFFFF0
1FFF81FFF0
3FFE007FC0
3FFC003F80
3FF8001E00
7FF8001800
7FF0000000
7FF0000000
7FF0000000
7FF0000000
7FF0000000
7FF0000000
FFF0000000
FFF0000000
7FF0000000
7FF0000000
7FF0000000
7FF0000000
7FF0000000
7FF8000C00
3FF8001F00
3FFC003F80
3FFE007FE0
1FFF81FFF8
1FFFFFFFF0
0FFFFFFFF0
07FFFFFFE0
07FFFFFFC0
03FFFFFF80
01FFFFFF00
007FFFFE00
001FFFF800
0003FFE000
0000F80000
0000F80000
0001F00000
0001F7E000
0001FFF000
00001FF800
000007F800
000003FC00
000403FC00
000F07F800
000FFFF800
001FFFF800
003FFFF000
0007FFC000
0001FF0000
ENDCHAR
STARTCHAR egrave
ENCODING 232
SWIDTH 600 0
DWIDTH 45 0
BBX 37 62 4 -1
BITMAP
0000800000
0003800000
000FC00000
003FC00000
00FFE00000
01FFE00000
007FF00000
007FF00000
003FF80000
001FF80000
000FFC0000
000FFC0000
0007FE0000
0003FE0000
0001FF0000
0001FE0000
0000F00000
0000400000
0000000000
0000000000
0000000000
0003FE0000
001FFFE000
007FFFF800
01FFFFFC00
03FFFFFE00
07FFFFFF00
0FFFFFFF80
1FFFFFFFC0
1FFFFFFFE0
3FFE03FFE0
3FFC00FFF0
7FF0007FF0
7FF0007FF0
7FE0003FF8
FFE0003FF8
FFE0003FF8
FFE0003FF8
FFFFFFFFF8
FFFFFFFFF8
FFFFFFFFF8
FFFFFFFFF8
FFFFFFFFF8
FFFFFFFFF8
FFE0000000
FFE0000000
FFE0000000
FFE0000000
7FF0000200
7FF0000600
7FF8000F00
3FFC003F80
3FFF00FFC0
1FFFFFFFE0
1FFFFFFFF0
0FFFFFFFF0
07FFFFFFE0
03FFFFFFC0
01FFFFFF00
00FFFFFC00
001FFFF800
0003FF8000
ENDCHAR
STARTCHAR eacute
ENCODING 233
SWIDTH 600 0
DWIDTH 45 0
BBX 37 62 4 -1
BITMAP
0000080000
00000E0000
00001F8000
00001FE000
00003FF800
00003FFC00
00007FF800
00007FF000
0000FFE000
0000FFC000
0001FFC000
0001FF8000
0003FF0000
0003FE0000
0007FC0000
0001FC0000
0000780000
0000100000
0000000000
0000000000
0000000000
0003FE0000
001FFFE000
007FFFF800
01FFFFFC00
03FFFFFE00
07FFFFFF00
0FFFFFFF80
1FFFFFFFC0
1FFFFFFFE0
3FFE03FFE0
3FFC00FFF0
7FF0007FF0
7FF0007FF0
7FE0003FF8
FFE0003FF8
FFE0003FF8
FFE0003FF8
FFFFFFFFF8
FFFFFFFFF8
FFFFFFFFF8
FFFFFFFFF8
FFFFFFFFF8
FFFFFFFFF8
FFE0000000
FFE0000000
FFE0000000
FFE0000000
7FF0000200
7FF0000600
7FF8000F00
3FFC003F80
3FFF00FFC0
1FFFFFFFE0
1FFFFFFFF0
0FFFFFFFF0
07FFFFFFE0
03FFFFFFC0
01FFFFFF00
00FFFFFC00
001FFFF800
0003FF8000
ENDCHAR
STARTCHAR ecircumflex
ENCODING 234
SWIDTH 600 0
DWIDTH 45 0
BBX 37 60 4 -1
BITMAP
0007FF0000
0007FF8000
000FFF8000
001FFFC000
003FFFE000
007FFFF000
00FFFFF800
00FFFFFC00
01FF9FFC00
03FF07FE00
07FE03FF00
0FFC01FF80
07F800FF00
03F0007E00
01E0003800
0040001000
0000000000
0000000000
0000000000
0003FE0000
001FFFE000
007FFFF800
01FFFFFC00
03FFFFFE00
07FFFFFF00
0FFFFFFF80
1FFFFFFFC0
1FFFFFFFE0
3FFE03FFE0
3FFC00FFF0
7FF0007FF0
7FF0007FF0
7FE0003FF8
FFE0003FF8
FFE0003FF8
FFE0003FF8
FFFFFFFFF8
FFFFFFFFF8
FFFFFFFFF8
FFFFFFFFF8
FFFFFFFFF8
FFFFFFFFF8
FFE0000000
FFE0000000
FFE0000000
FFE0000000
7FF0000200
7FF0000600
7FF8000F00
3FFC003F80
3FFF00FFC0
1FFFFFFFE0
1FFFFFFFF0
0FFFFFFFF0
07FFFFFFE0
03FFFFFFC0
01FFFFFF00
00FFFFFC00
001FFFF800
0003FF8000
ENDCHAR
STARTCHAR edieresis
ENCODING 235
SWIDTH 600 0
DWIDTH 45 0
BBX 37 56 4 -1
BITMAP
01FC01FC00
07FE03FF00
07FF07FF00
0FFF07FF80
0FFF07FF80
0FFF07FF80
0FFF07FF80
0FFF07FF80
07FF07FF00
07FE03FF00
01FC00FC00
0000000000
0000000000
0000000000
0000000000
0003FE0000
001FFFE000
007FFFF800
01FFFFFC00
03FFFFFE00
07FFFFFF00
0FFFFFFF80
1FFFFFFFC0
1FFFFFFFE0
3FFE03FFE0
3FFC00FFF0
7FF0007FF0
7FF0007FF0
7FE0003FF8
FFE0003FF8
FFE0003FF8
FFE0003FF8
FFFFFFFFF8
FFFFFFFFF8
FFFFFFFFF8
FFFFFFFFF8
FFFFFFFFF8
FFFFFFFFF8
FFE0000000
FFE0000000
FFE0000000
FFE0000000
7FF0000200
7FF0000600
7FF8000F00
3FFC003F80
3FFF00FFC0
1FFFFFFFE0
1FFFFFFFF0
0FFFFFFFF0
07FFFFFFE0
03FFFFFFC0
01FFFFFF00
00FFFFFC00
001FFFF800
0003FF8000
ENDCHAR
STARTCHAR igrave
ENCODING 236
SWIDTH 600 0
DWIDTH 45 0
BBX 35 61 7 0
BITMAP
0001000000
0007800000
001F800000
007FC00000
01FFC00000
01FFE00000
00FFE00000
007FF00000
007FF00000
003FF80000
001FF80000
000FFC0000
0007FC0000
0007FE0000
0003FE0000
0001FC0000
0000F00000
0000C00000
0000000000
0000000000
0000000000
0000000000
FFFFFE0000
FFFFFE0000
FFFFFE0000
FFFFFE0000
FFFFFE0000
FFFFFE0000
FFFFFE0000
FFFFFE0000
FFFFFE0000
000FFE0000
000FFE0000
000FFE0000
000FFE0000
000FFE0000
000FFE0000
000FFE0000
000FFE0000
000FFE0000
000FFE0000
000FFE0000
000FFE0000
000FFE0000
000FFE0000
000FFE0000
000FFE0000
000FFE0000
000FFE0000
000FFE0000
000FFE0000
000FFE0000
FFFFFFFFE0
FFFFFFFFE0
FFFFFFFFE0
FFFFFFFFE0
FFFFFFFFE0
FFFFFFFFE0
FFFFFFFFE0
FFFFFFFFE0
FFFFFFFFE0
ENDCHAR
STARTCHAR iacute
ENCODING 237
SWIDTH 600 0
DWIDTH 45 0
BBX 35 61 7 0
BITMAP
0000080000
00001E0000
00001F8000
00003FE000
00003FF800
00007FF800
00007FF000
0000FFE000
0000FFC000
0001FFC000
0001FF8000
0003FF0000
0003FE0000
0007FE0000
0007FC0000
000BF80000
0000F00000
0000300000
0000000000
0000000000
0000000000
0000000000
FFFFFE0000
FFFFFE0000
FFFFFE0000
FFFFFE0000
FFFFFE0000
FFFFFE0000
FFFFFE0000
FFFFFE0000
FFFFFE0000
000FFE0000
000FFE0000
000FFE0000
000FFE0000
000FFE0000
000FFE0000
000FFE0000
000FFE0000
000FFE0000
000FFE0000
000FFE0000
000FFE0000
000FFE0000
000FFE0000
000FFE0000
000FFE0000
000FFE0000
000FFE0000
000FFE0000
000FFE0000
000FFE0000
FFFFFFFFE0
FFFFFFFFE0
FFFFFFFFE0
FFFFFFFFE0
FFFFFFFFE0
FFFFFFFFE0
FFFFFFFFE0
FFFFFFFFE0
FFFFFFFFE0
ENDCHAR
STARTCHAR icircumflex
ENCODING 238
SWIDTH 600 0
DWIDTH 45 0
BBX 35 59 7 0
BITMAP
0007FE0000
000FFF0000
001FFF8000
003FFFC000
007FFFC000
007FFFE000
00FFFFF000
01FFFFF800
03FF9FFC00
07FF0FFE00
0FFE07FE00
0FFC03FF00
1FF001FE00
03E000FC00
01C0007800
0080002000
0000000000
0000000000
0000000000
0000000000
FFFFFE0000
FFFFFE0000
FFFFFE0000
FFFFFE0000
FFFFFE0000
FFFFFE0000
FFFFFE0000
FFFFFE0000
FFFFFE0000
000FFE0000
000FFE0000
000FFE0000
000FFE0000
000FFE0000
000FFE0000
000FFE0000
000FFE0000
000FFE0000
000FFE0000
000FFE0000
000FFE0000
000FFE0000
000FFE0000
000FFE0000
000FFE0000
000FFE0000
000FFE0000
000FFE0000
000FFE0000
000FFE0000
FFFFFFFFE0
FFFFFFFFE0
FFFFFFFFE0
FFFFFFFFE0
FFFFFFFFE0
FFFFFFFFE0
FFFFFFFFE0
FFFFFFFFE0
FFFFFFFFE0
ENDCHAR
STARTCHAR idieresis
ENCODING 239
SWIDTH 600 0
DWIDTH 45 0
BBX 35 55 7 0
BITMAP
03F801FC00
07FE07FE00
0FFE07FF00
0FFF0FFF00
0FFF0FFF00
0FFF0FFF00
0FFF0FFF00
0FFF0FFF00
0FFE07FF00
07FE07FE00
03F801F800
0000000000
0000000000
0000000000
0000000000
0000000000
FFFFFE0000
FFFFFE0000
FFFFFE0000
FFFFFE0000
FFFFFE0000
FFFFFE0000
FFFFFE0000
FFFFFE0000
FFFFFE0000
000FFE0000
000FFE0000
000FFE0000
000FFE0000
000FFE0000
000FFE0000
000FFE0000
000FFE0000
000FFE0000
000FFE0000
000FFE0000
000FFE0000
000FFE0000
000FFE0000
000FFE0000
000FFE0000
000FFE0000
000FFE0000
000FFE0000
000FFE0000
000FFE0000
FFFFFFFFE0
FFFFFFFFE0
FFFFFFFFE0
FFFFFFFFE0
FFFFFFFFE0
FFFFFFFFE0
FFFFFFFFE0
FFFFFFFFE0
FFFFFFFFE0
ENDCHAR
STARTCHAR eth
ENCODING 240
SWIDTH 600 0
DWIDTH 45 0
BBX 39 58 3 -1
BITMAP
0000000400
3FFFF01E00
07FFF87F00
01FFFEFF00
00FFFFFF80
003FFFFF00
001FFFFC00
0007FFF000
0003FFF000
0007FFF800
000FFFFC00
003FFFFE00
00FFFFFF00
007FCFFF00
003F07FF80
001E03FFC0
000803FFC0
000001FFE0
000000FFE0
001FE07FF0
007FFC7FF0
01FFFE3FF8
03FFFF3FF8
07FFFF9FF8
0FFFFFDFFC
1FFFFFEFFC
1FFFFFFFFC
3FFF01FFFC
3FFC007FFC
7FF8003FFE
7FF8003FFE
7FF0001FFE
FFF0001FFE
FFF0001FFE
FFF0000FFE
FFE0000FFE
FFE0000FFE
FFE0000FFE
FFE0000FFE
FFE0000FFE
FFE0000FFE
FFF0001FFE
FFF0001FFE
7FF0001FFC
7FF0001FFC
7FF8003FFC
7FFC003FFC
3FFE007FF8
3FFF81FFF8
1FFFFFFFF0
1FFFFFFFF0
0FFFFFFFE0
07FFFFFFC0
03FFFFFF80
01FFFFFF00
007FFFFC00
001FFFF000
0001FF8000
ENDCHAR
STARTCHAR ntilde
ENCODING 241
SWIDTH 600 0
DWIDTH 45 0
BBX 35 55 5 0
BITMAP
007E000000
01FFC01000
07FFF83800
0FFFFFFC00
0FFFFFFE00
1FFFFFFE00
07FFFFFF00
07FFFFFE00
0381FFFC00
01007FF800
00000FE000
0000000000
0000000000
0000000000
0000000000
00001FE000
FFE07FF800
FFE0FFFE00
FFE1FFFF00
FFE3FFFF00
FFE7FFFF80
FFEFFFFFC0
FFEFFFFFC0
FFEFFFFFE0
FFFE07FFE0
FFF803FFE0
FFF001FFE0
FFE000FFE0
FFE000FFE0
FFE000FFE0
FFE000FFE0
FFE000FFE0
FFE000FFE0
FFE000FFE0
FFE000FFE0
FFE000FFE0
FFE000FFE0
FFE000FFE0
FFE000FFE0
FFE000FFE0
FFE000FFE0
FFE000FFE0
FFE000FFE0
FFE000FFE0
FFE000FFE0
FFE000FFE0
FFE000FFE0
FFE000FFE0
FFE000FFE0
FFE000FFE0
FFE000FFE0
FFE000FFE0
FFE000FFE0
FFE000FFE0
FFE000FFE0
ENDCHAR
STARTCHAR ograve
ENCODING 242
SWIDTH 600 0
DWIDTH 45 0
BBX 39 62 3 -1
BITMAP
0000400000
0001C00000
0007E00000
001FE00000
007FF00000
00FFF00000
003FF80000
003FF80000
001FFC0000
000FFC0000
0007FE0000
0007FE0000
0003FF0000
0001FF0000
0000FF8000
0000FE0000
0000780000
0000200000
0000000000
0000000000
0000000000
0001FF8000
001FFFF000
007FFFFC00
00FFFFFE00
03FFFFFF80
07FFFFFFC0
0FFFFFFFE0
0FFFFFFFE0
1FFFFFFFF0
3FFF01FFF8
3FFE00FFF8
3FF8003FF8
7FF8003FFC
7FF0001FFC
7FF0001FFC
FFF0001FFC
FFF0001FFE
FFF0001FFE
FFF0001FFE
FFF0001FFE
FFF0001FFE
FFF0001FFE
FFF0001FFE
FFF0001FFE
FFF0001FFE
FFF0001FFE
7FF0001FFC
7FF0001FFC
7FF8003FFC
3FF8003FF8
3FFC007FF8
3FFF01FFF8
1FFFFFFFF0
0FFFFFFFE0
0FFFFFFFE0
07FFFFFFC0
03FFFFFF80
00FFFFFE00
007FFFFC00
001FFFF000
0001FF0000
ENDCHAR
STARTCHAR oacute
ENCODING 243
SWIDTH 600 0
DWIDTH 45 0
BBX 39 62 3 -1
BITMAP
0000040000
0000070000
00000FC000
00000FF000
00001FFC00
00001FFE00
00003FF800
00003FF800
00007FF000
00007FE000
0000FFC000
0000FFC000
0001FF8000
0001FF0000
0003FE0000
0000FE0000
00003C0000
0000080000
0000000000
0000000000
0000000000
0001FF8000
001FFFF000
007FFFFC00
00FFFFFE00
03FFFFFF80
07FFFFFFC0
0FFFFFFFE0
0FFFFFFFE0
1FFFFFFFF0
3FFF01FFF8
3FFE00FFF8
3FF8003FF8
7FF8003FFC
7FF0001FFC
7FF0001FFC
FFF0001FFC
FFF0001FFE
FFF0001FFE
FFF0001FFE
FFF0001FFE
FFF0001FFE
FFF0001FFE
FFF0001FFE
FFF0001FFE
FFF0001FFE
FFF0001FFE
7FF0001FFC
7FF0001FFC
7FF8003FFC
3FF8003FF8
3FFC007FF8
3FFF01FFF8
1FFFFFFFF0
0FFFFFFFE0
0FFFFFFFE0
07FFFFFFC0
03FFFFFF80
00FFFFFE00
007FFFFC00
001FFFF000
0001FF0000
ENDCHAR
STARTCHAR ocircumflex
ENCODING 244
SWIDTH 600 0
DWIDTH 45 0
BBX 39 60 3 -1
BITMAP
0003FF8000
0003FF8000
0007FFC000
000FFFE000
001FFFF000
003FFFF800
007FFFFC00
007FFFFE00
00FFCFFE00
01FF87FF00
03FF01FF80
07FE00FFC0
03FC007F80
01F8003F00
00F0001C00
0020000800
0000000000
0000000000
0000000000
0001FF8000
001FFFF000
007FFFFC00
00FFFFFE00
03FFFFFF80
07FFFFFFC0
0FFFFFFFE0
0FFFFFFFE0
1FFFFFFFF0
3FFF01FFF8
3FFE00FFF8
3FF8003FF8
7FF8003FFC
7FF0001FFC
7FF0001FFC
FFF0001FFC
FFF0001FFE
FFF0001FFE
FFF0001FFE
FFF0001FFE
FFF0001FFE
FFF0001FFE
FFF0001FFE
FFF0001FFE
FFF0001FFE
FFF0001FFE
7FF0001FFC
7FF0001FFC
7FF8003FFC
3FF8003FF8
3FFC007FF8
3FFF01FFF8
1FFFFFFFF0
0FFFFFFFE0
0FFFFFFFE0
07FFFFFFC0
03FFFFFF80
00FFFFFE00
007FFFFC00
001FFFF000
0001FF0000
ENDCHAR
STARTCHAR otilde
ENCODING 245
SWIDTH 600 0
DWIDTH 45 0
BBX 39 56 3 -1
BITMAP
001F800000
007FF00400
01FFFC0E00
03FFFFFF00
07FFFFFF00
03FFFFFF80
01FFFFFFC0
01FFFFFF80
00E0FFFF00
00401FFC00
000003F800
0000000000
0000000000
0000000000
0000000000
0001FF8000
001FFFF000
007FFFFC00
00FFFFFE00
03FFFFFF80
07FFFFFFC0
0FFFFFFFE0
0FFFFFFFE0
1FFFFFFFF0
3FFF01FFF8
3FFE00FFF8
3FF8003FF8
7FF8003FFC
7FF0001FFC
7FF0001FFC
FFF0001FFC
FFF0001FFE
FFF0001FFE
FFF0001FFE
FFF0001FFE
FFF0001FFE
FFF0001FFE
FFF0001FFE
FFF0001FFE
FFF0001FFE
FFF0001FFE
7FF0001FFC
7FF0001FFC
7FF8003FFC
3FF8003FF8
3FFC007FF8
3FFF01FFF8
1FFFFFFFF0
0FFFFFFFE0
0FFFFFFFE0
07FFFFFFC0
03FFFFFF80
00FFFFFE00
007FFFFC00
001FFFF000
0001FF0000
ENDCHAR
STARTCHAR odieresis
ENCODING 246
SWIDTH 600 0
DWIDTH 45 0
BBX 39 56 3 -1
BITMAP
00FE00FE00
03FF01FF80
03FF83FF80
07FF83FFC0
07FF83FFC0
07FF83FFC0
07FF83FFC0
07FF83FFC0
03FF83FF80
03FF01FF80
00FE00FE00
0000000000
0000000000
0000000000
0000000000
0001FF8000
001FFFF000
007FFFFC00
00FFFFFE00
03FFFFFF80
07FFFFFFC0
0FFFFFFFE0
0FFFFFFFE0
1FFFFFFFF0
3FFF01FFF8
3FFE00FFF8
3FF8003FF8
7FF8003FFC
7FF0001FFC
7FF0001FFC
FFF0001FFC
FFF0001FFE
FFF0001FFE
FFF0001FFE
FFF0001FFE
FFF0001FFE
FFF0001FFE
FFF0001FFE
FFF0001FFE
FFF0001FFE
FFF0001FFE
7FF0001FFC
7FF0001FFC
7FF8003FFC
3FF8003FF8
3FFC007FF8
3FFF01FFF8
1FFFFFFFF0
0FFFFFFFE0
0FFFFFFFE0
07FFFFFFC0
03FFFFFF80
00FFFFFE00
007FFFFC00
001FFFF000
0001FF0000
ENDCHAR
STARTCHAR divide
ENCODING 247
SWIDTH 600 0
DWIDTH 45 0
BBX 35 43 5 1
BITMAP
0003F80000
0007FC0000
000FFE0000
001FFF0000
001FFF0000
001FFF0000
001FFF0000
001FFF0000
001FFF0000
001FFF0000
000FFE0000
000FFC0000
0003F80000
0000000000
0000000000
0000000000
0000000000
FFFFFFFFE0
FFFFFFFFE0
FFFFFFFFE0
FFFFFFFFE0
FFFFFFFFE0
FFFFFFFFE0
FFFFFFFFE0
FFFFFFFFE0
FFFFFFFFE0
0000000000
0000000000
0000000000
0000000000
0003F80000
0007FC0000
000FFE0000
001FFF0000
001FFF0000
001FFF0000
001FFF0000
001FFF0000
001FFF0000
001FFF0000
000FFE0000
000FFC0000
0003F80000
ENDCHAR
STARTCHAR oslash
ENCODING 248
SWIDTH 600 0
DWIDTH 45 0
BBX 41 48 2 -4
BITMAP
000000002000
000000003800
000000007C00
000000007E00
0000FF80FF80
000FFFF9FF80
003FFFFFFF00
007FFFFFFE00
01FFFFFFFC00
03FFFFFFF800
07FFFFFFF800
07FFFFFFF000
0FFFFFFFF800
1FFF81FFFC00
1FFE007FFC00
1FFC00FFFC00
3FFC01FFFE00
3FF803FFFE00
3FF807FFFE00
7FF80FFFFF00
7FF80FFFFF00
7FF81FFFFF00
7FF83FEFFF00
7FF87FCFFF00
7FF8FF8FFF00
7FF9FF0FFF00
7FFBFE0FFF00
7FFFFC0FFF00
7FFFF80FFF00
7FFFF80FFE00
3FFFF00FFE00
3FFFE00FFE00
3FFFC01FFE00
1FFF801FFC00
1FFF003FFC00
1FFFC0FFF800
0FFFFFFFF800
07FFFFFFF000
0FFFFFFFF000
1FFFFFFFE000
1FFFFFFFC000
3FFFFFFF0000
7FFFFFFE0000
FFCFFFF80000
FF80FF800000
3F0000000000
1F0000000000
060000000000
ENDCHAR
STARTCHAR ugrave
ENCODING 249
SWIDTH 600 0
DWIDTH 45 0
BBX 35 62 5 -1
BITMAP
0001000000
0007000000
001F800000
007F800000
01FFC00000
03FFC00000
01FFE00000
00FFE00000
007FF00000
003FF00000
003FF80000
001FF80000
000FFC0000
0007FC0000
0003FE0000
0003F80000
0001E00000
0000800000
0000000000
0000000000
0000000000
0000000000
FFE000FFE0
FFE000FFE0
FFE000FFE0
FFE000FFE0
FFE000FFE0
FFE000FFE0
FFE000FFE0
FFE000FFE0
FFE000FFE0
FFE000FFE0
FFE000FFE0
FFE000FFE0
FFE000FFE0
FFE000FFE0
FFE000FFE0
FFE000FFE0
FFE000FFE0
FFE000FFE0
FFE000FFE0
FFE000FFE0
FFE000FFE0
FFE000FFE0
FFE000FFE0
FFE000FFE0
FFE000FFE0
FFE000FFE0
FFE000FFE0
FFE000FFE0
FFF001FFE0
FFF803FFE0
FFFC0FFFE0
FFFFFFFFE0
7FFFFEFFE0
7FFFFEFFE0
3FFFFCFFE0
3FFFFCFFE0
1FFFF8FFE0
0FFFF0FFE0
03FFC0FFE0
00FF000000
ENDCHAR
STARTCHAR uacute
ENCODING 250
SWIDTH 600 0
DWIDTH 45 0
BBX 35 62 5 -1
BITMAP
0000100000
00001C0000
00003F0000
00003FC000
00007FF000
00007FF800
0000FFE000
0000FFE000
0001FFC000
0001FF8000
0003FF0000
0003FF0000
0007FE0000
0007FC0000
000FF80000
0007F80000
0000F00000
0000200000
0000000000
0000000000
0000000000
0000000000
FFE000FFE0
FFE000FFE0
FFE000FFE0
FFE000FFE0
FFE000FFE0
FFE000FFE0
FFE000FFE0
FFE000FFE0
FFE000FFE0
FFE000FFE0
FFE000FFE0
FFE000FFE0
FFE000FFE0
FFE000FFE0
FFE000FFE0
FFE000FFE0
FFE000FFE0
FFE000FFE0
FFE000FFE0
FFE000FFE0
FFE000FFE0
FFE000FFE0
FFE000FFE0
FFE000FFE0
FFE000FFE0
FFE000FFE0
FFE000FFE0
FFE000FFE0
FFF001FFE0
FFF803FFE0
FFFC0FFFE0
FFFFFFFFE0
7FFFFEFFE0
7FFFFEFFE0
3FFFFCFFE0
3FFFFCFFE0
1FFFF8FFE0
0FFFF0FFE0
03FFC0FFE0
00FF000000
ENDCHAR
STARTCHAR ucircumflex
ENCODING 251
SWIDTH 600 0
DWIDTH 45 0
BBX 35 60 5 -1
BITMAP
000FFE0000
001FFE0000
001FFF0000
003FFF8000
007FFFC000
00FFFFE000
01FFFFF000
03FFFFF000
03FF3FF800
07FE1FFC00
0FFC0FFE00
1FF803FF00
0FF001FE00
07E000FC00
03C0007000
0080002000
0000000000
0000000000
0000000000
0000000000
FFE000FFE0
FFE000FFE0
FFE000FFE0
FFE000FFE0
FFE000FFE0
FFE000FFE0
FFE000FFE0
FFE000FFE0
FFE000FFE0
FFE000FFE0
FFE000FFE0
FFE000FFE0
FFE000FFE0
FFE000FFE0
FFE000FFE0
FFE000FFE0
FFE000FFE0
FFE000FFE0
FFE000FFE0
FFE000FFE0
FFE000FFE0
FFE000FFE0
FFE000FFE0
FFE000FFE0
FFE000FFE0
FFE000FFE0
FFE000FFE0
FFE000FFE0
FFF001FFE0
FFF803FFE0
FFFC0FFFE0
FFFFFFFFE0
7FFFFEFFE0
7FFFFEFFE0
3FFFFCFFE0
3FFFFCFFE0
1FFFF8FFE0
0FFFF0FFE0
03FFC0FFE0
00FF000000
ENDCHAR
STARTCHAR udieresis
ENCODING 252
SWIDTH 600 0
DWIDTH 45 0
BBX 35 56 5 -1
BITMAP
03F803F800
0FFC07FE00
0FFE0FFE00
1FFE0FFF00
1FFE0FFF00
1FFE0FFF00
1FFE0FFF00
1FFE0FFF00
0FFE0FFE00
0FFC07FE00
03F003F800
0000000000
0000000000
0000000000
0000000000
0000000000
FFE000FFE0
FFE000FFE0
FFE000FFE0
FFE000FFE0
FFE000FFE0
FFE000FFE0
FFE000FFE0
FFE000FFE0
FFE000FFE0
FFE000FFE0
FFE000FFE0
FFE000FFE0
FFE000FFE0
FFE000FFE0
FFE000FFE0
FFE000FFE0
FFE000FFE0
FFE000FFE0
FFE000FFE0
FFE000FFE0
FFE000FFE0
FFE000FFE0
FFE000FFE0
FFE000FFE0
FFE000FFE0
FFE000FFE0
FFE000FFE0
FFE000FFE0
FFF001FFE0
FFF803FFE0
FFFC0FFFE0
FFFFFFFFE0
7FFFFEFFE0
7FFFFEFFE0
3FFFFCFFE0
3FFFFCFFE0
1FFFF8FFE0
0FFFF0FFE0
03FFC0FFE0
00FF000000
ENDCHAR
STARTCHAR yacute
ENCODING 253
SWIDTH 600 0
DWIDTH 45 0
BBX 43 76 1 -15
BITMAP
000001000000
000001C00000
000001F00000
000003FC0000
000003FF0000
000007FF8000
000007FF0000
00000FFE0000
00000FFC0000
00001FF80000
00003FF80000
00003FF00000
00007FE00000
00007FC00000
0000FFC00000
00003F800000
00000F000000
000002000000
000000000000
000000000000
000000000000
000000000000
FFF80001FFE0
7FF80001FFC0
7FF80003FFC0
3FFC0003FF80
3FFC0003FF80
1FFC0007FF00
1FFE0007FF00
1FFE0007FF00
0FFE000FFE00
0FFF000FFE00
07FF000FFC00
07FF001FFC00
07FF801FFC00
03FF803FF800
03FF803FF800
01FFC03FF000
01FFC07FF000
01FFC07FF000
00FFE07FE000
00FFE07FE000
007FE0FFC000
007FF0FFC000
003FF0FFC000
003FF1FF8000
003FF9FF8000
001FF9FF0000
001FFBFF0000
000FFBFE0000
000FFFFE0000
000FFFFE0000
0007FFFC0000
0007FFFC0000
0003FFF80000
0003FFF80000
0003FFF80000
0001FFF00000
0001FFF00000
0000FFE00000
0000FFE00000
0000FFE00000
0001FFC00000
0001FFC00000
0001FF800000
0003FF800000
0003FF800000
0FFFFF000000
0FFFFF000000
0FFFFE000000
0FFFFE000000
0FFFFC000000
0FFFF8000000
0FFFF0000000
0FFFE0000000
0FFF00000000
ENDCHAR
STARTCHAR thorn
ENCODING 254
SWIDTH 600 0
DWIDTH 45 0
BBX 38 71 4 -15
BITMAP
FFF0000000
FFF0000000
FFF0000000
FFF0000000
FFF0000000
FFF0000000
FFF0000000
FFF0000000
FFF0000000
FFF0000000
FFF0000000
FFF0000000
FFF0000000
FFF0000000
FFF0000000
FFF0000000
FFF00FE000
FFF07FFC00
FFF0FFFF00
FFF1FFFF80
FFF3FFFFC0
FFF7FFFFC0
FFF7FFFFE0
FFFFFFFFF0
FFFFFFFFF0
FFFF03FFF0
FFFC00FFF8
FFF8007FF8
FFF0007FF8
FFF0003FF8
FFF0003FFC
FFF0003FFC
FFF0003FFC
FFF0001FFC
FFF0001FFC
FFF0001FFC
FFF0001FFC
FFF0001FFC
FFF0001FFC
FFF0001FFC
FFF0003FFC
FFF0003FFC
FFF0003FFC
FFF0003FF8
FFF0007FF8
FFF8007FF8
FFFC00FFF8
FFFF03FFF0
FFFFFFFFF0
FFFFFFFFF0
FFF7FFFFE0
FFF7FFFFC0
FFF3FFFFC0
FFF1FFFF80
FFF0FFFF00
FFF07FFC00
FFF00FF000
FFF0000000
FFF0000000
FFF0000000
FFF0000000
FFF0000000
FFF0000000
FFF0000000
FFF0000000
FFF0000000
FFF0000000
FFF0000000
FFF0000000
FFF0000000
FFF0000000
ENDCHAR
STARTCHAR ydieresis
ENCODING 255
SWIDTH 600 0
DWIDTH 45 0
BBX 43 70 1 -15
BITMAP
003F801F8000
007FC07FE000
00FFE0FFF000
00FFE0FFF000
01FFF0FFF000
01FFF0FFF000
01FFF0FFF000
00FFE0FFF000
00FFE0FFE000
007FC07FE000
003F801F8000
000000000000
000000000000
000000000000
000000000000
000000000000
FFF80001FFE0
7FF80001FFC0
7FF80003FFC0
3FFC0003FF80
3FFC0003FF80
1FFC0007FF00
1FFE0007FF00
1FFE0007FF00
0FFE000FFE00
0FFF000FFE00
07FF000FFC00
07FF001FFC00
07FF801FFC00
03FF803FF800
03FF803FF800
01FFC03FF000
01FFC07FF000
01FFC07FF000
00FFE07FE000
00FFE07FE000
007FE0FFC000
007FF0FFC000
003FF0FFC000
003FF1FF8000
003FF9FF8000
001FF9FF0000
001FFBFF0000
000FFBFE0000
000FFFFE0000
000FFFFE0000
0007FFFC0000
0007FFFC0000
0003FFF80000
0003FFF80000
0003FFF80000
0001FFF00000
0001FFF00000
0000FFE00000
0000FFE00000
0000FFE00000
0001FFC00000
0001FFC00000
0001FF800000
0003FF800000
0003FF800000
0FFFFF000000
0FFFFF000000
0FFFFE000000
0FFFFE000000
0FFFFC000000
0FFFF8000000
0FFFF0000000
0FFFE0000000
0FFF00000000
ENDCHAR
STARTCHAR Amacron
ENCODING 256
SWIDTH 600 0
DWIDTH 45 0
BBX 45 67 0 0
BITMAP
001FFFFFC000
001FFFFFC000
001FFFFFC000
001FFFFFC000
001FFFFFC000
001FFFFFC000
001FFFFFC000
001FFFFFC000
000000000000
000000000000
000000000000
000000000000
000000000000
000000000000
000000000000
0003FFFE0000
0003FFFE0000
0003FFFE0000
0003FFFE0000
0007FFFF0000
0007FFFF0000
0007FFFF0000
000FFFFF8000
000FFFFF8000
000FFFFF8000
000FFFFF8000
001FFDFFC000
001FF9FFC000
001FF9FFC000
001FF9FFC000
003FF8FFE000
003FF0FFE000
003FF0FFE000
007FF07FE000
007FF07FF000
007FE07FF000
007FE07FF000
00FFE03FF800
00FFE03FF800
00FFC03FF800
00FFC03FF800
01FFC01FFC00
01FF801FFC00
01FF801FFC00
03FF801FFC00
03FFFFFFFE00
03FFFFFFFE00
03FFFFFFFE00
07FFFFFFFF00
07FFFFFFFF00
07FFFFFFFF00
07FFFFFFFF00
0FFFFFFFFF80
0FFFFFFFFF80
0FFE0007FF80
1FFE0003FF80
1FFC0003FFC0
1FFC0003FFC0
1FFC0003FFC0
3FFC0001FFE0
3FF80001FFE0
3FF80001FFE0
3FF80001FFE0
7FF80000FFF0
7FF00000FFF0
7FF00000FFF0
FFF00000FFF8
ENDCHAR
STARTCHAR amacron
ENCODING 257
SWIDTH 600 0
DWIDTH 45 0
BBX 39 55 4 -1
BITMAP
03FFFFF800
03FFFFF800
03FFFFF800
03FFFFF800
03FFFFF800
03FFFFF800
03FFFFF800
03FFFFF800
0000000000
0000000000
0000000000
0000000000
0000000000
0000000000
000FFE0000
007FFFE000
01FFFFF800
07FFFFFC00
0FFFFFFE00
1FFFFFFF00
3FFFFFFF80
7FFFFFFF80
7FFFFFFFC0
3FF80FFFC0
1FE003FFC0
0F8001FFC0
070001FFE0
020001FFE0
000001FFE0
000000FFE0
000000FFE0
001FFFFFE0
01FFFFFFE0
07FFFFFFE0
0FFFFFFFE0
1FFFFFFFE0
3FFFFFFFE0
7FFC00FFE0
7FF000FFE0
FFE000FFE0
FFE000FFE0
FFE000FFE0
FFE001FFE0
FFE001FFE0
FFE001FFE0
FFE003FFFE
FFF007FFFE
FFFC0FFFFE
7FFFFF7FFE
7FFFFF7FFE
3FFFFE7FFE
1FFFFC3FFE
0FFFF81FFE
03FFF007FE
00FF800000
ENDCHAR
STARTCHAR Abreve
ENCODING 258
SWIDTH 600 0
DWIDTH 45 0
BBX 45 72 0 0
BITMAP
000600030000
001E0003C000
007F0007F000
00FF800FF800
00FF800FF000
007FC01FF000
007FE03FF000
003FF07FE000
003FFFFFE000
001FFFFFC000
000FFFFF8000
0007FFFF0000
0003FFFE0000
0001FFFC0000
0000FFF80000
00001FC00000
000000000000
000000000000
000000000000
000000000000
0003FFFE0000
0003FFFE0000
0003FFFE0000
0003FFFE0000
0007FFFF0000
0007FFFF0000
0007FFFF0000
000FFFFF8000
000FFFFF8000
000FFFFF8000
000FFFFF8000
001FFDFFC000
001FF9FFC000
001FF9FFC000
001FF9FFC000
003FF8FFE000
003FF0FFE000
003FF0FFE000
007FF07FE000
007FF07FF000
007FE07FF000
007FE07FF000
00FFE03FF800
00FFE03FF800
00FFC03FF800
00FFC03FF800
01FFC01FFC00
01FF801FFC00
01FF801FFC00
03FF801FFC00
03FFFFFFFE00
03FFFFFFFE00
03FFFFFFFE00
07FFFFFFFF00
07FFFFFFFF00
07FFFFFFFF00
07FFFFFFFF00
0FFFFFFFFF80
0FFFFFFFFF80
0FFE0007FF80
1FFE0003FF80
1FFC0003FFC0
1FFC0003FFC0
1FFC0003FFC0
3FFC0001FFE0
3FF80001FFE0
3FF80001FFE0
3FF80001FFE0
7FF80000FFF0
7FF00000FFF0
7FF00000FFF0
FFF00000FFF8
ENDCHAR
STARTCHAR abreve
ENCODING 259
SWIDTH 600 0
DWIDTH 45 0
BBX 39 60 4 -1
BITMAP
00C0003000
03E0007C00
0FE0007F00
1FF000FF80
0FF801FF00
0FFC03FF00
07FC03FE00
07FF0FFE00
03FFFFFC00
03FFFFF800
01FFFFF800
00FFFFF000
007FFFE000
003FFFC000
000FFF0000
0003FC0000
0000000000
0000000000
0000000000
000FFE0000
007FFFE000
01FFFFF800
07FFFFFC00
0FFFFFFE00
1FFFFFFF00
3FFFFFFF80
7FFFFFFF80
7FFFFFFFC0
3FF80FFFC0
1FE003FFC0
0F8001FFC0
070001FFE0
020001FFE0
000001FFE0
000000FFE0
000000FFE0
001FFFFFE0
01FFFFFFE0
07FFFFFFE0
0FFFFFFFE0
1FFFFFFFE0
3FFFFFFFE0
7FFC00FFE0
7FF000FFE0
FFE000FFE0
FFE000FFE0
FFE000FFE0
FFE001FFE0
FFE001FFE0
FFE001FFE0
FFE003FFFE
FFF007FFFE
FFFC0FFFFE
7FFFFF7FFE
7FFFFF7FFE
3FFFFE7FFE
1FFFFC3FFE
0FFFF81FFE
03FFF007FE
00FF800000
ENDCHAR
STARTCHAR Aogonek
ENCODING 260
SWIDTH 600 0
DWIDTH 45 0
BBX 47 68 0 -16
BITMAP
0003FFFE0000
0003FFFE0000
0003FFFE0000
0003FFFE0000
0007FFFF0000
0007FFFF0000
0007FFFF0000
000FFFFF8000
000FFFFF8000
000FFFFF8000
000FFFFF8000
001FFDFFC000
001FF9FFC000
001FF9FFC000
001FF9FFC000
003FF8FFE000
003FF0FFE000
003FF0FFE000
007FF07FF000
007FF07FF000
007FE07FF000
007FE07FF000
00FFE03FF800
00FFE03FF800
00FFC03FF800
00FFC03FF800
01FFC01FFC00
01FF801FFC00
01FF801FFC00
03FF801FFE00
03FFFFFFFE00
03FFFFFFFE00
03FFFFFFFE00
07FFFFFFFF00
07FFFFFFFF00
07FFFFFFFF00
07FFFFFFFF00
0FFFFFFFFF80
0FFFFFFFFF80
0FFE0007FF80
1FFE0003FFC0
1FFC0003FFC0
1FFC0003FFC0
1FFC0003FFC0
3FFC0001FFE0
3FF80001FFE0
3FF80001FFE0
3FF80001FFE0
7FF80000FFF0
7FF00000FFF0
7FF00000FFF0
7FF00000FFF8
8000000007E0
000000001FC0
000000007F00
00000000FE00
00000001FC00
00000003F800
00000007F000
00000007F000
00000007F030
00000007F878
00000007FFFC
00000007FFFE
00000007FFFE
00000003FFFC
00000001FFF0
000000003FC0
ENDCHAR
STARTCHAR aogonek
ENCODING 261
SWIDTH 600 0
DWIDTH 45 0
BBX 41 56 4 -16
BITMAP
000FFE000000
007FFFE00000
01FFFFF80000
07FFFFFC0000
0FFFFFFE0000
1FFFFFFF0000
3FFFFFFF8000
7FFFFFFF8000
7FFFFFFFC000
3FF80FFFC000
1FE003FFC000
0F8001FFC000
070001FFE000
020001FFE000
000001FFE000
000000FFE000
000000FFE000
001FFFFFE000
01FFFFFFE000
07FFFFFFE000
0FFFFFFFE000
1FFFFFFFE000
3FFFFFFFE000
7FFC00FFE000
7FF000FFE000
FFE000FFE000
FFE000FFE000
FFE000FFE000
FFE001FFE000
FFE001FFE000
FFE001FFE000
FFE003FFFE00
FFF007FFFE00
FFFC0F7FFE00
7FFFFF7FFE00
7FFFFE7FFE00
3FFFFE7FFE00
1FFFFC3FFE00
0FFFF81FFE00
03FFE007FE00
00FF8001F800
00000007F000
0000000FC000
0000003F8000
0000007F0000
000000FE0000
000001FC0000
000001FC0000
000001FC0400
000001FE1E00
000001FFFF00
000001FFFF80
000000FFFF80
000000FFFF00
0000007FFE00
0000000FF000
ENDCHAR
STARTCHAR Cacute
ENCODING 262
SWIDTH 600 0
DWIDTH 45 0
BBX 39 75 3 -1
BITMAP
0000020000
0000038000
000007E000
000007F800
00000FFE00
00000FFF00
00001FFC00
00001FFC00
00003FF800
00003FF000
00007FE000
00007FE000
0000FFC000
0000FF8000
0001FF0000
0000FF0000
00003E0000
0000040000
0000000000
0000000000
0000000000
0000FFC000
000FFFF800
003FFFFE00
007FFFFF00
01FFFFFFC0
03FFFFFFE0
03FFFFFFE0
07FFFFFFF0
0FFFFFFFF8
0FFF81FFF8
1FFF007FFC
1FFE003FFC
3FFC001FFE
3FFC001FFE
3FF8000FFE
7FF8000FF8
7FF8000F80
7FF0000800
7FF0000000
7FF0000000
FFF0000000
FFF0000000
FFF0000000
FFF0000000
FFF0000000
FFF0000000
FFF0000000
FFF0000000
FFF0000000
FFF0000000
FFF0000000
FFF0000000
FFF0000000
FFF0000000
7FF0000000
7FF0000000
7FF0000800
7FF8000F80
7FF8000FF8
3FF8000FFE
3FFC001FFE
3FFC001FFE
1FFE003FFC
1FFF007FFC
0FFF81FFF8
0FFFFFFFF8
07FFFFFFF0
03FFFFFFE0
03FFFFFFE0
01FFFFFFC0
007FFFFF80
003FFFFE00
000FFFF800
0001FFC000
ENDCHAR
STARTCHAR cacute
ENCODING 263
SWIDTH 600 0
DWIDTH 45 0
BBX 37 62 4 -1
BITMAP
0000040000
0000070000
00000FC000
00000FF000
00001FFC00
00001FFE00
00003FFC00
00003FF800
00007FF000
00007FE000
0000FFC000
0000FFC000
0001FF8000
0001FF0000
0003FE0000
0000FE0000
00003C0000
0000080000
0000000000
0000000000
0000000000
0001FF8000
000FFFF000
003FFFFC00
00FFFFFE00
01FFFFFF80
03FFFFFF80
07FFFFFFC0
0FFFFFFFE0
1FFFFFFFF0
1FFF81FFF0
3FFE007FC0
3FFC003F80
3FF8001E00
7FF8001800
7FF0000000
7FF0000000
7FF0000000
7FF0000000
7FF0000000
FFF0000000
FFF0000000
7FF0000000
7FF0000000
7FF0000000
7FF0000000
7FF0000000
7FF0000000
7FF8000C00
3FF8001F00
3FFC003F80
3FFE007FE0
1FFF81FFF8
1FFFFFFFF0
0FFFFFFFF0
07FFFFFFE0
03FFFFFFC0
01FFFFFF80
00FFFFFF00
007FFFFC00
000FFFF800
0001FF8000
ENDCHAR
STARTCHAR Ccircumflex
ENCODING 264
SWIDTH 600 0
DWIDTH 45 0
BBX 39 72 3 -1
BITMAP
0001FF8000
0003FFC000
0003FFE000
0007FFF000
000FFFF800
001FFFFC00
003FFFFE00
007FFFFE00
007FE7FF00
00FFC3FF80
01FF81FFC0
03FF007FE0
01FE003FC0
00FC001F80
0078000E00
0010000400
0000000000
0000000000
0000FFC000
000FFFF800
003FFFFE00
007FFFFF00
01FFFFFFC0
03FFFFFFE0
03FFFFFFE0
07FFFFFFF0
0FFFFFFFF8
0FFF81FFF8
1FFF007FFC
1FFE003FFC
3FFC001FFE
3FFC001FFE
3FF8000FFE
7FF8000FF8
7FF8000F80
7FF0000800
7FF0000000
7FF0000000
FFF0000000
FFF0000000
FFF0000000
FFF0000000
FFF0000000
FFF0000000
FFF0000000
FFF0000000
FFF0000000
FFF0000000
FFF0000000
FFF0000000
FFF0000000
FFF0000000
7FF0000000
7FF0000000
7FF0000800
7FF8000F80
7FF8000FF8
3FF8000FFE
3FFC001FFE
3FFC001FFE
1FFE003FFC
1FFF007FFC
0FFF81FFF8
0FFFFFFFF8
07FFFFFFF0
03FFFFFFE0
03FFFFFFE0
01FFFFFFC0
007FFFFF80
003FFFFE00
000FFFF800
0001FFC000
ENDCHAR
STARTCHAR ccircumflex
ENCODING 265
SWIDTH 600 0
DWIDTH 45 0
BBX 37 60 4 -1
BITMAP
0003FF8000
0003FF8000
0007FFC000
000FFFE000
001FFFF000
003FFFF800
007FFFFC00
007FFFFE00
00FFCFFE00
01FF87FF00
03FF01FF80
07FE00FFC0
03FC007F80
01F8003F00
00F0001C00
0020000800
0000000000
0000000000
0000000000
0001FF8000
000FFFF000
003FFFFC00
00FFFFFE00
01FFFFFF80
03FFFFFF80
07FFFFFFC0
0FFFFFFFE0
1FFFFFFFF0
1FFF81FFF0
3FFE007FC0
3FFC003F80
3FF8001E00
7FF8001800
7FF0000000
7FF0000000
7FF0000000
7FF0000000
7FF0000000
FFF0000000
FFF0000000
7FF0000000
7FF0000000
7FF0000000
7FF0000000
7FF0000000
7FF0000000
7FF8000C00
3FF8001F00
3FFC003F80
3FFE007FE0
1FFF81FFF8
1FFFFFFFF0
0FFFFFFFF0
07FFFFFFE0
03FFFFFFC0
01FFFFFF80
00FFFFFF00
007FFFFC00
000FFFF800
0001FF8000
ENDCHAR
STARTCHAR Cdotaccent
ENCODING 266
SWIDTH 600 0
DWIDTH 45 0
BBX 39 70 3 -1
BITMAP
00007F0000
0001FFC000
0003FFC000
0003FFE000
0003FFE000
0003FFE000
0003FFE000
0003FFE000
0003FFE000
0003FFE000
0003FFC000
0001FFC000
00007F0000
0000000000
0000000000
0000000000
0000FFC000
000FFFF800
003FFFFE00
007FFFFF00
01FFFFFFC0
03FFFFFFE0
03FFFFFFE0
07FFFFFFF0
0FFFFFFFF8
0FFF81FFF8
1FFF007FFC
1FFE003FFC
3FFC001FFE
3FFC001FFE
3FF8000FFE
7FF8000FF8
7FF8000F80
7FF0000800
7FF0000000
7FF0000000
FFF0000000
FFF0000000
FFF0000000
FFF0000000
FFF0000000
FFF0000000
FFF0000000
FFF0000000
FFF0000000
FFF0000000
FFF0000000
FFF0000000
FFF0000000
FFF0000000
7FF0000000
7FF0000000
7FF0000800
7FF8000F80
7FF8000FF8
3FF8000FFE
3FFC001FFE
3FFC001FFE
1FFE003FFC
1FFF007FFC
0FFF81FFF8
0FFFFFFFF8
07FFFFFFF0
03FFFFFFE0
03FFFFFFE0
01FFFFFFC0
007FFFFF80
003FFFFE00
000FFFF800
0001FFC000
ENDCHAR
STARTCHAR cdotaccent
ENCODING 267
SWIDTH 600 0
DWIDTH 45 0
BBX 37 58 4 -1
BITMAP
0000FE0000
0003FF8000
0003FF8000
0007FFC000
0007FFC000
0007FFC000
0007FFC000
0007FFC000
0007FFC000
0007FFC000
0003FF8000
0003FF8000
0000FE0000
0000000000
0000000000
0000000000
0000000000
0001FF8000
000FFFF000
003FFFFC00
00FFFFFE00
01FFFFFF80
03FFFFFF80
07FFFFFFC0
0FFFFFFFE0
1FFFFFFFF0
1FFF81FFF0
3FFE007FC0
3FFC003F80
3FF8001E00
7FF8001800
7FF0000000
7FF0000000
7FF0000000
7FF0000000
7FF0000000
FFF0000000
FFF0000000
7FF0000000
7FF0000000
7FF0000000
7FF0000000
7FF0000000
7FF0000000
7FF8000C00
3FF8001F00
3FFC003F80
3FFE007FE0
1FFF81FFF8
1FFFFFFFF0
0FFFFFFFF0
07FFFFFFE0
03FFFFFFC0
01FFFFFF80
00FFFFFF00
007FFFFC00
000FFFF800
0001FF8000
ENDCHAR
STARTCHAR Ccaron
ENCODING 268
SWIDTH 600 0
DWIDTH 45 0
BBX 39 73 3 -1
BITMAP
0010000400
0038000F00
00FC001F80
01FE003FC0
03FF007FE0
01FF80FFC0
00FFC1FF80
007FE3FF00
007FF7FE00
003FFFFE00
001FFFFC00
000FFFF800
0007FFF000
0003FFE000
0003FFC000
0001FF8000
0000000000
0000000000
0000000000
0000FFC000
000FFFF800
003FFFFE00
007FFFFF00
01FFFFFFC0
03FFFFFFE0
03FFFFFFE0
07FFFFFFF0
0FFFFFFFF8
0FFF81FFF8
1FFF007FFC
1FFE003FFC
3FFC001FFE
3FFC001FFE
3FF8000FFE
7FF8000FF8
7FF8000F80
7FF0000800
7FF0000000
7FF0000000
FFF0000000
FFF0000000
FFF0000000
FFF0000000
FFF0000000
FFF0000000
FFF0000000
FFF0000000
FFF0000000
FFF0000000
FFF0000000
FFF0000000
FFF0000000
FFF0000000
7FF0000000
7FF0000000
7FF0000800
7FF8000F80
7FF8000FF8
3FF8000FFE
3FFC001FFE
3FFC001FFE
1FFE003FFC
1FFF007FFC
0FFF81FFF8
0FFFFFFFF8
07FFFFFFF0
03FFFFFFE0
03FFFFFFE0
01FFFFFFC0
007FFFFF80
003FFFFE00
000FFFF800
0001FFC000
ENDCHAR
STARTCHAR ccaron
ENCODING 269
SWIDTH 600 0
DWIDTH 45 0
BBX 37 60 4 -1
BITMAP
0020000800
0070001E00
01F8003F00
03FC007F80
07FE00FFC0
03FF81FF80
01FFC3FF00
00FFE7FE00
007FFFFE00
007FFFFC00
003FFFF800
001FFFF000
000FFFE000
0007FFC000
0003FF8000
0003FF8000
0000000000
0000000000
0000000000
0001FF8000
000FFFF000
003FFFFC00
00FFFFFE00
01FFFFFF80
03FFFFFF80
07FFFFFFC0
0FFFFFFFE0
1FFFFFFFF0
1FFF81FFF0
3FFE007FC0
3FFC003F80
3FF8001E00
7FF8001800
7FF0000000
7FF0000000
7FF0000000
7FF0000000
7FF0000000
FFF0000000
FFF0000000
7FF0000000
7FF0000000
7FF0000000
7FF0000000
7FF0000000
7FF0000000
7FF8000C00
3FF8001F00
3FFC003F80
3FFE007FE0
1FFF81FFF8
1FFFFFFFF0
0FFFFFFFF0
07FFFFFFE0
03FFFFFFC0
01FFFFFF80
00FFFFFF00
007FFFFC00
000FFFF800
0001FF8000
ENDCHAR
STARTCHAR Dcaron
ENCODING 270
SWIDTH 600 0
DWIDTH 45 0
BBX 37 72 5 0
BITMAP
0300004000
078000E000
0FC003F000
3FE007F800
7FF00FFC00
3FF81FF800
1FFC3FF800
0FFE7FF000
07FFFFE000
03FFFFC000
01FFFF8000
01FFFF0000
00FFFF0000
007FFE0000
003FFC0000
001FF80000
0000000000
0000000000
0000000000
0000000000
FFFFFC0000
FFFFFF8000
FFFFFFF000
FFFFFFF800
FFFFFFFC00
FFFFFFFE00
FFFFFFFF00
FFFFFFFF80
FFFFFFFFC0
FFE01FFFC0
FFE003FFE0
FFE001FFE0
FFE001FFE0
FFE000FFF0
FFE000FFF0
FFE0007FF0
FFE0007FF8
FFE0007FF8
FFE0007FF8
FFE0003FF8
FFE0003FF8
FFE0003FF8
FFE0003FF8
FFE0003FF8
FFE0003FF8
FFE0003FF8
FFE0003FF8
FFE0003FF8
FFE0003FF8
FFE0003FF8
FFE0003FF8
FFE0003FF8
FFE0007FF8
FFE0007FF8
FFE0007FF8
FFE0007FF8
FFE0007FF0
FFE000FFF0
FFE000FFF0
FFE001FFE0
FFE001FFE0
FFE003FFE0
FFE01FFFC0
FFFFFFFFC0
FFFFFFFF80
FFFFFFFF00
FFFFFFFE00
FFFFFFFC00
FFFFFFF800
FFFFFFE000
FFFFFFC000
FFFFFC0000
ENDCHAR
STARTCHAR dcaron
ENCODING 271
SWIDTH 600 0
DWIDTH 45 0
BBX 46 57 2 -1
BITMAP
000003FF0FFC
000003FF0FF8
000003FF0FF8
000003FF0FF8
000003FF0FF8
000003FF0FF0
000003FF0FF0
000003FF0FF0
000003FF0FF0
000003FF0FE0
000003FF0FE0
000003FF0FE0
000003FF0FE0
000003FF0FC0
000003FF0FC0
000003FF0FC0
007E03FF0000
01FF83FF0000
07FFC3FF0000
0FFFE3FF0000
1FFFE3FF0000
1FFFF3FF0000
3FFFF3FF0000
3FFFFBFF0000
3FFFFBFF0000
7FFC1FFF0000
7FF80FFF0000
7FF007FF0000
7FF007FF0000
FFE007FF0000
FFE003FF0000
FFE003FF0000
FFE003FF0000
FFE003FF0000
FFE003FF0000
FFE003FF0000
FFE003FF0000
FFE003FF0000
FFE003FF0000
FFE003FF0000
FFE003FF0000
FFE003FF0000
FFE003FF0000
FFE007FF0000
7FF007FF0000
7FF007FF0000
7FF80FFF0000
7FFC1FFF0000
3FFFFBFF0000
3FFFFBFF0000
3FFFF3FF0000
1FFFF3FF0000
1FFFE3FF0000
0FFFE3FF0000
07FFC3FF0000
03FF83FF0000
007E00000000
ENDCHAR
STARTCHAR Dcroat
ENCODING 272
SWIDTH 600 0
DWIDTH 45 0
BBX 41 52 1 0
BITMAP
0FFFFFC00000
0FFFFFF80000
0FFFFFFF0000
0FFFFFFF8000
0FFFFFFFC000
0FFFFFFFE000
0FFFFFFFF000
0FFFFFFFF800
0FFFFFFFFC00
0FFE01FFFC00
0FFE003FFE00
0FFE001FFE00
0FFE001FFE00
0FFE000FFF00
0FFE000FFF00
0FFE0007FF00
0FFE0007FF80
0FFE0007FF80
0FFE0007FF80
0FFE0003FF80
FFFFFF03FF80
FFFFFF03FF80
FFFFFF03FF80
FFFFFF03FF80
FFFFFF03FF80
FFFFFF03FF80
FFFFFF03FF80
FFFFFF03FF80
FFFFFF03FF80
0FFE0003FF80
0FFE0003FF80
0FFE0003FF80
0FFE0007FF80
0FFE0007FF80
0FFE0007FF80
0FFE0007FF80
0FFE0007FF00
0FFE000FFF00
0FFE000FFF00
0FFE001FFE00
0FFE001FFE00
0FFE003FFE00
0FFE01FFFC00
0FFFFFFFFC00
0FFFFFFFF800
0FFFFFFFF000
0FFFFFFFE000
0FFFFFFFC000
0FFFFFFF8000
0FFFFFFE0000
0FFFFFFC0000
0FFFFFC00000
ENDCHAR
STARTCHAR dcroat
ENCODING 273
SWIDTH 600 0
DWIDTH 45 0
BBX 42 57 3 -1
BITMAP
0000003FFC00
0000003FFC00
0000003FFC00
0000003FFC00
0000FFFFFFC0
0000FFFFFFC0
0000FFFFFFC0
0000FFFFFFC0
0000FFFFFFC0
0000FFFFFFC0
0000FFFFFFC0
0000FFFFFFC0
0000FFFFFFC0
0000003FFC00
0000003FFC00
0000003FFC00
001FC03FFC00
00FFF83FFC00
03FFFC3FFC00
07FFFE3FFC00
0FFFFF3FFC00
0FFFFFBFFC00
1FFFFFBFFC00
3FFFFFFFFC00
3FFFFFFFFC00
3FFF03FFFC00
7FFC00FFFC00
7FF8007FFC00
7FF8003FFC00
FFF0003FFC00
FFF0003FFC00
FFF0003FFC00
FFF0003FFC00
FFE0003FFC00
FFE0003FFC00
FFE0003FFC00
FFE0003FFC00
FFE0003FFC00
FFE0003FFC00
FFE0003FFC00
FFF0003FFC00
FFF0003FFC00
FFF0003FFC00
FFF0003FFC00
7FF8003FFC00
7FF8007FFC00
7FFC00FFFC00
3FFF03FFFC00
3FFFFFFFFC00
3FFFFFFFFC00
1FFFFFBFFC00
0FFFFFBFFC00
0FFFFF3FFC00
07FFFE3FFC00
03FFFC3FFC00
00FFF83FFC00
003FC0000000
ENDCHAR
STARTCHAR Emacron
ENCODING 274
SWIDTH 600 0
DWIDTH 45 0
BBX 33 67 6 0
BITMAP
07FFFFF000
07FFFFF000
07FFFFF000
07FFFFF000
07FFFFF000
07FFFFF000
07FFFFF000
07FFFFF000
0000000000
0000000000
0000000000
0000000000
0000000000
0000000000
0000000000
FFFFFFFF80
FFFFFFFF80
FFFFFFFF80
FFFFFFFF80
FFFFFFFF80
FFFFFFFF80
FFFFFFFF80
FFFFFFFF80
FFFFFFFF80
FFE0000000
FFE0000000
FFE0000000
FFE0000000
FFE0000000
FFE0000000
FFE0000000
FFE0000000
FFE0000000
FFE0000000
FFE0000000
FFE0000000
FFFFFFFF80
FFFFFFFF80
FFFFFFFF80
FFFFFFFF80
FFFFFFFF80
FFFFFFFF80
FFFFFFFF80
FFFFFFFF80
FFFFFFFF80
FFE0000000
FFE0000000
FFE0000000
FFE0000000
FFE0000000
FFE0000000
FFE0000000
FFE0000000
FFE0000000
FFE0000000
FFE0000000
FFE0000000
FFE0000000
FFFFFFFF80
FFFFFFFF80
FFFFFFFF80
FFFFFFFF80
FFFFFFFF80
FFFFFFFF80
FFFFFFFF80
FFFFFFFF80
FFFFFFFF80
ENDCHAR
STARTCHAR emacron
ENCODING 275
SWIDTH 600 0
DWIDTH 45 0
BBX 37 55 4 -1
BITMAP
01FFFFFC00
01FFFFFC00
01FFFFFC00
01FFFFFC00
01FFFFFC00
01FFFFFC00
01FFFFFC00
01FFFFFC00
0000000000
0000000000
0000000000
0000000000
0000000000
0000000000
0003FE0000
001FFFE000
007FFFF800
01FFFFFC00
03FFFFFE00
07FFFFFF00
0FFFFFFF80
1FFFFFFFC0
1FFFFFFFE0
3FFE03FFE0
3FFC00FFF0
7FF0007FF0
7FF0007FF0
7FE0003FF8
FFE0003FF8
FFE0003FF8
FFE0003FF8
FFFFFFFFF8
FFFFFFFFF8
FFFFFFFFF8
FFFFFFFFF8
FFFFFFFFF8
FFFFFFFFF8
FFE0000000
FFE0000000
FFE0000000
FFE0000000
7FF0000200
7FF0000600
7FF8000F00
3FFC003F80
3FFF00FFC0
1FFFFFFFE0
1FFFFFFFF0
0FFFFFFFF0
07FFFFFFE0
03FFFFFFC0
01FFFFFF00
00FFFFFC00
001FFFF800
0003FF8000
ENDCHAR
STARTCHAR Ebreve
ENCODING 276
SWIDTH 600 0
DWIDTH 45 0
BBX 33 72 6 0
BITMAP
0180004000
07C000F000
1FC001FC00
3FE001FE00
1FF003FE00
1FF007FC00
0FF80FFC00
0FFE1FF800
07FFFFF800
07FFFFF000
03FFFFE000
01FFFFE000
00FFFFC000
007FFF8000
003FFE0000
0007F00000
0000000000
0000000000
0000000000
0000000000
FFFFFFFF80
FFFFFFFF80
FFFFFFFF80
FFFFFFFF80
FFFFFFFF80
FFFFFFFF80
FFFFFFFF80
FFFFFFFF80
FFFFFFFF80
FFE0000000
FFE0000000
FFE0000000
FFE0000000
FFE0000000
FFE0000000
FFE0000000
FFE0000000
FFE0000000
FFE0000000
FFE0000000
FFE0000000
FFFFFFFF80
FFFFFFFF80
FFFFFFFF80
FFFFFFFF80
FFFFFFFF80
FFFFFFFF80
FFFFFFFF80
FFFFFFFF80
FFFFFFFF80
FFE0000000
FFE0000000
FFE0000000
FFE0000000
FFE0000000
FFE0000000
FFE0000000
FFE0000000
FFE0000000
FFE0000000
FFE0000000
FFE0000000
FFE0000000
FFFFFFFF80
FFFFFFFF80
FFFFFFFF80
FFFFFFFF80
FFFFFFFF80
FFFFFFFF80
FFFFFFFF80
FFFFFFFF80
FFFFFFFF80
ENDCHAR
STARTCHAR ebreve
ENCODING 277
SWIDTH 600 0
DWIDTH 45 0
BBX 37 60 4 -1
BITMAP
0060003000
01E0003C00
07F0007F00
0FF800FF80
07F800FF80
07FC01FF00
07FE03FF00
03FF07FE00
03FFFFFE00
01FFFFFC00
00FFFFF800
007FFFF800
003FFFF000
001FFFC000
000FFF8000
0001FC0000
0000000000
0000000000
0000000000
0003FE0000
001FFFE000
007FFFF800
01FFFFFC00
03FFFFFE00
07FFFFFF00
0FFFFFFF80
1FFFFFFFC0
1FFFFFFFE0
3FFE03FFE0
3FFC00FFF0
7FF0007FF0
7FF0007FF0
7FE0003FF8
FFE0003FF8
FFE0003FF8
FFE0003FF8
FFFFFFFFF8
FFFFFFFFF8
FFFFFFFFF8
FFFFFFFFF8
FFFFFFFFF8
FFFFFFFFF8
FFE0000000
FFE0000000
FFE0000000
FFE0000000
7FF0000200
7FF0000600
7FF8000F00
3FFC003F80
3FFF00FFC0
1FFFFFFFE0
1FFFFFFFF0
0FFFFFFFF0
07FFFFFFE0
03FFFFFFC0
01FFFFFF00
00FFFFFC00
001FFFF800
0003FF8000
ENDCHAR
STARTCHAR Edotaccent
ENCODING 278
SWIDTH 600 0
DWIDTH 45 0
BBX 33 69 6 0
BITMAP
0007F00000
000FFC0000
001FFE0000
003FFE0000
003FFE0000
003FFE0000
003FFE0000
003FFE0000
003FFE0000
003FFE0000
001FFE0000
000FFC0000
0007F00000
0000000000
0000000000
0000000000
0000000000
FFFFFFFF80
FFFFFFFF80
FFFFFFFF80
FFFFFFFF80
FFFFFFFF80
FFFFFFFF80
FFFFFFFF80
FFFFFFFF80
FFFFFFFF80
FFE0000000
FFE0000000
FFE0000000
FFE0000000
FFE0000000
FFE0000000
FFE0000000
FFE0000000
FFE0000000
FFE0000000
FFE0000000
FFE0000000
FFFFFFFF80
FFFFFFFF80
FFFFFFFF80
FFFFFFFF80
FFFFFFFF80
FFFFFFFF80
FFFFFFFF80
FFFFFFFF80
FFFFFFFF80
FFE0000000
FFE0000000
FFE0000000
FFE0000000
FFE0000000
FFE0000000
FFE0000000
FFE0000000
FFE0000000
FFE0000000
FFE0000000
FFE0000000
FFE0000000
FFFFFFFF80
FFFFFFFF80
FFFFFFFF80
FFFFFFFF80
FFFFFFFF80
FFFFFFFF80
FFFFFFFF80
FFFFFFFF80
FFFFFFFF80
ENDCHAR
STARTCHAR edotaccent
ENCODING 279
SWIDTH 600 0
DWIDTH 45 0
BBX 37 58 4 -1
BITMAP
0001FC0000
0007FF0000
0007FF0000
000FFF8000
000FFF8000
000FFF8000
000FFF8000
000FFF8000
000FFF8000
000FFF8000
0007FF0000
0007FF0000
0001FC0000
0000000000
0000000000
0000000000
0000000000
0003FE0000
001FFFE000
007FFFF800
01FFFFFC00
03FFFFFE00
07FFFFFF00
0FFFFFFF80
1FFFFFFFC0
1FFFFFFFE0
3FFE03FFE0
3FFC00FFF0
7FF0007FF0
7FF0007FF0
7FE0003FF8
FFE0003FF8
FFE0003FF8
FFE0003FF8
FFFFFFFFF8
FFFFFFFFF8
FFFFFFFFF8
FFFFFFFFF8
FFFFFFFFF8
FFFFFFFFF8
FFE0000000
FFE0000000
FFE0000000
FFE0000000
7FF0000200
7FF0000600
7FF8000F00
3FFC003F80
3FFF00FFC0
1FFFFFFFE0
1FFFFFFFF0
0FFFFFFFF0
07FFFFFFE0
03FFFFFFC0
01FFFFFF00
00FFFFFC00
001FFFF800
0003FF8000
ENDCHAR
STARTCHAR Eogonek
ENCODING 280
SWIDTH 600 0
DWIDTH 45 0
BBX 36 68 6 -16
BITMAP
FFFFFFFF80
FFFFFFFF80
FFFFFFFF80
FFFFFFFF80
FFFFFFFF80
FFFFFFFF80
FFFFFFFF80
FFFFFFFF80
FFFFFFFF80
FFE0000000
FFE0000000
FFE0000000
FFE0000000
FFE0000000
FFE0000000
FFE0000000
FFE0000000
FFE0000000
FFE0000000
FFE0000000
FFE0000000
FFFFFFFF80
FFFFFFFF80
FFFFFFFF80
FFFFFFFF80
FFFFFFFF80
FFFFFFFF80
FFFFFFFF80
FFFFFFFF80
FFFFFFFF80
FFE0000000
FFE0000000
FFE0000000
FFE0000000
FFE0000000
FFE0000000
FFE0000000
FFE0000000
FFE0000000
FFE0000000
FFE0000000
FFE0000000
FFE0000000
FFFFFFFF80
FFFFFFFF80
FFFFFFFF80
FFFFFFFF80
FFFFFFFF80
FFFFFFFF80
FFFFFFFF80
FFFFFFFF80
FFFFFFFF80
0000003F80
000000FE00
000003F800
000007F000
00000FE000
00001FC000
00003F8000
00003F8000
00007F8100
00007FC380
00007FFFC0
00003FFFE0
00003FFFF0
00001FFFE0
00000FFF80
000001FE00
ENDCHAR
STARTCHAR eogonek
ENCODING 281
SWIDTH 600 0
DWIDTH 45 0
BBX 37 56 4 -16
BITMAP
0003FE0000
001FFFE000
007FFFF800
01FFFFFC00
03FFFFFE00
07FFFFFF00
0FFFFFFF80
1FFFFFFFC0
1FFFFFFFE0
3FFE03FFE0
3FFC00FFF0
7FF0007FF0
7FF0007FF0
7FE0003FF8
FFE0003FF8
FFE0003FF8
FFE0003FF8
FFFFFFFFF8
FFFFFFFFF8
FFFFFFFFF8
FFFFFFFFF8
FFFFFFFFF8
FFFFFFFFF8
FFE0000000
FFE0000000
FFE0000000
FFE0000000
7FF0000400
7FF0000600
7FF8000F00
3FFC003F80
3FFF00FFC0
1FFFFFFFE0
1FFFFFFFF0
0FFFFFFFE0
07FFFFFFC0
03FFFFFF80
01FFFFFF00
00FFFFFE00
001FFFF800
0003FFF000
000003E000
00000F8000
00003F0000
0000FE0000
0001FC0000
0001FC0000
0003F80000
0003FC0800
0003FC3C00
0003FFFE00
0003FFFF00
0001FFFF00
0001FFFE00
0000FFFC00
00001FF000
ENDCHAR
STARTCHAR Ecaron
ENCODING 282
SWIDTH 600 0
DWIDTH 45 0
BBX 33 72 6 0
BITMAP
0100006000
038000F000
07C001F800
1FE003FC00
3FF807FE00
1FFC0FFC00
0FFE1FF800
07FF3FF800
03FFFFF000
01FFFFE000
01FFFFC000
00FFFF8000
007FFF0000
003FFE0000
001FFE0000
000FFC0000
0000000000
0000000000
0000000000
0000000000
FFFFFFFF80
FFFFFFFF80
FFFFFFFF80
FFFFFFFF80
FFFFFFFF80
FFFFFFFF80
FFFFFFFF80
FFFFFFFF80
FFFFFFFF80
FFE0000000
FFE0000000
FFE0000000
FFE0000000
FFE0000000
FFE0000000
FFE0000000
FFE0000000
FFE0000000
FFE0000000
FFE0000000
FFE0000000
FFFFFFFF80
FFFFFFFF80
FFFFFFFF80
FFFFFFFF80
FFFFFFFF80
FFFFFFFF80
FFFFFFFF80
FFFFFFFF80
FFFFFFFF80
FFE0000000
FFE0000000
FFE0000000
FFE0000000
FFE0000000
FFE0000000
FFE0000000
FFE0000000
FFE0000000
FFE0000000
FFE0000000
FFE0000000
FFE0000000
FFFFFFFF80
FFFFFFFF80
FFFFFFFF80
FFFFFFFF80
FFFFFFFF80
FFFFFFFF80
FFFFFFFF80
FFFFFFFF80
FFFFFFFF80
ENDCHAR
STARTCHAR ecaron
ENCODING 283
SWIDTH 600 0
DWIDTH 45 0
BBX 37 60 4 -1
BITMAP
0040001000
00E0003C00
03F0007E00
07F800FF00
0FFC01FF80
07FF03FF00
03FF87FE00
01FFCFFC00
00FFFFFC00
00FFFFF800
007FFFF000
003FFFE000
001FFFC000
000FFF8000
0007FF8000
0007FF0000
0000000000
0000000000
0000000000
0003FE0000
001FFFE000
007FFFF800
01FFFFFC00
03FFFFFE00
07FFFFFF00
0FFFFFFF80
1FFFFFFFC0
1FFFFFFFE0
3FFE03FFE0
3FFC00FFF0
7FF0007FF0
7FF0007FF0
7FE0003FF8
FFE0003FF8
FFE0003FF8
FFE0003FF8
FFFFFFFFF8
FFFFFFFFF8
FFFFFFFFF8
FFFFFFFFF8
FFFFFFFFF8
FFFFFFFFF8
FFE0000000
FFE0000000
FFE0000000
FFE0000000
7FF0000200
7FF0000600
7FF8000F00
3FFC003F80
3FFF00FFC0
1FFFFFFFE0
1FFFFFFFF0
0FFFFFFFF0
07FFFFFFE0
03FFFFFFC0
01FFFFFF00
00FFFFFC00
001FFFF800
0003FF8000
ENDCHAR
STARTCHAR Gcircumflex
ENCODING 284
SWIDTH 600 0
DWIDTH 45 0
BBX 38 72 3 -1
BITMAP
0003FF8000
0003FFC000
0007FFC000
000FFFE000
001FFFF000
003FFFF800
007FFFFC00
007FFFFE00
00FFCFFE00
01FF83FF00
03FF01FF80
07FE00FFC0
03FC007F80
01F8003F00
00F0001C00
0020000800
0000000000
0000000000
0001FF8000
001FFFF000
007FFFFC00
00FFFFFE00
01FFFFFF00
03FFFFFF80
07FFFFFFC0
0FFFFFFFE0
0FFFFFFFE0
1FFF03FFF0
1FFE00FFF0
3FFC007FF8
3FF8007FF8
7FF8003FF8
7FF8003FFC
7FF0001FF0
7FF0001F00
FFF0001000
FFF0000000
FFF0000000
FFF0000000
FFF0000000
FFF0000000
FFF0000000
FFF01FFFFC
FFF01FFFFC
FFF01FFFFC
FFF01FFFFC
FFF01FFFFC
FFF01FFFFC
FFF01FFFFC
FFF01FFFFC
FFF01FFFFC
FFF0000FFC
FFF0000FFC
FFF0000FFC
FFF0000FFC
FFF0000FFC
7FF0000FFC
7FF8000FFC
7FF8001FFC
7FFC001FFC
3FFC003FFC
3FFE007FFC
3FFF81FFFC
1FFFFFFFFC
1FFFFFEFFC
0FFFFFCFFC
07FFFFCFFC
07FFFF8FFC
03FFFF0FFC
00FFFE0FFC
007FFC0FFC
000FE00000
ENDCHAR
STARTCHAR gcircumflex
ENCODING 285
SWIDTH 600 0
DWIDTH 45 0
BBX 40 75 4 -16
BITMAP
0007FE0000
000FFF0000
001FFF8000
001FFFC000
003FFFE000
007FFFE000
00FFFFF000
01FFFFF800
03FF9FFC00
07FF0FFE00
07FE07FF00
0FFC03FF00
07F801FF80
03F000FC00
01E0007800
0080001000
0000000000
0000000000
0000000000
0007FE0000
007FFFFFFF
01FFFFFFFF
03FFFFFFFF
07FFFFFFFF
0FFFFFFFFF
1FFFFFFFFF
1FFE07FFFF
3FF801FFC0
3FF800FFC0
3FF000FFE0
7FF000FFE0
7FF000FFE0
7FF0007FE0
7FF0007FE0
7FF000FFE0
7FF000FFE0
3FF000FFE0
3FF800FFC0
3FF801FFC0
1FFE07FFC0
1FFFFFFF80
0FFFFFFF00
07FFFFFE00
03FFFFFC00
00FFFFF800
00FFFFE000
07E7FE0000
1FC0000000
3FC0000000
3FC0000000
3FC0000000
3FE0000000
3FFFFFFC00
3FFFFFFF80
3FFFFFFFE0
1FFFFFFFF8
0FFFFFFFFC
03FFFFFFFC
03FFFFFFFE
0FFFFFFFFE
3FFFFFFFFE
7FC0001FFF
FF800007FF
FF800007FF
FF800007FF
FF800007FE
FFC0000FFE
FFF0003FFE
FFFFFFFFFC
FFFFFFFFFC
7FFFFFFFF8
3FFFFFFFE0
1FFFFFFFC0
03FFFFFE00
003FFFC000
ENDCHAR
STARTCHAR Gbreve
ENCODING 286
SWIDTH 600 0
DWIDTH 45 0
BBX 38 73 3 -1
BITMAP
0030001800
00F0001E00
03F8003F80
07FC007FC0
03FC007FC0
03FE00FF80
03FF01FF80
01FF83FF00
01FFFFFF00
00FFFFFE00
007FFFFC00
003FFFFC00
001FFFF800
000FFFE000
0007FFC000
0000FE0000
0000000000
0000000000
0000000000
0001FF8000
001FFFF000
007FFFFC00
00FFFFFE00
01FFFFFF00
03FFFFFF80
07FFFFFFC0
0FFFFFFFE0
0FFFFFFFE0
1FFF03FFF0
1FFE00FFF0
3FFC007FF8
3FF8007FF8
7FF8003FF8
7FF8003FFC
7FF0001FF0
7FF0001F00
FFF0001000
FFF0000000
FFF0000000
FFF0000000
FFF0000000
FFF0000000
FFF0000000
FFF01FFFFC
FFF01FFFFC
FFF01FFFFC
FFF01FFFFC
FFF01FFFFC
FFF01FFFFC
FFF01FFFFC
FFF01FFFFC
FFF01FFFFC
FFF0000FFC
FFF0000FFC
FFF0000FFC
FFF0000FFC
FFF0000FFC
7FF0000FFC
7FF8000FFC
7FF8001FFC
7FFC001FFC
3FFC003FFC
3FFE007FFC
3FFF81FFFC
1FFFFFFFFC
1FFFFFEFFC
0FFFFFCFFC
07FFFFCFFC
07FFFF8FFC
03FFFF0FFC
00FFFE0FFC
007FFC0FFC
000FE00000
ENDCHAR
STARTCHAR gbreve
ENCODING 287
SWIDTH 600 0
DWIDTH 45 0
BBX 40 75 4 -16
BITMAP
00C0003000
03E0007C00
0FF0007F00
0FF000FF80
0FF801FF00
07FC01FF00
07FE03FE00
07FF0FFE00
03FFFFFC00
01FFFFFC00
01FFFFF800
00FFFFF000
007FFFE000
003FFFC000
000FFF0000
0003FC0000
0000000000
0000000000
0000000000
0007FE0000
007FFFFFFF
01FFFFFFFF
03FFFFFFFF
07FFFFFFFF
0FFFFFFFFF
1FFFFFFFFF
1FFE07FFFF
3FF801FFC0
3FF800FFC0
3FF000FFE0
7FF000FFE0
7FF000FFE0
7FF0007FE0
7FF0007FE0
7FF000FFE0
7FF000FFE0
3FF000FFE0
3FF800FFC0
3FF801FFC0
1FFE07FFC0
1FFFFFFF80
0FFFFFFF00
07FFFFFE00
03FFFFFC00
00FFFFF800
00FFFFE000
07E7FE0000
1FC0000000
3FC0000000
3FC0000000
3FC0000000
3FE0000000
3FFFFFFC00
3FFFFFFF80
3FFFFFFFE0
1FFFFFFFF8
0FFFFFFFFC
03FFFFFFFC
03FFFFFFFE
0FFFFFFFFE
3FFFFFFFFE
7FC0001FFF
FF800007FF
FF800007FF
FF800007FF
FF800007FE
FFC0000FFE
FFF0003FFE
FFFFFFFFFC
FFFFFFFFFC
7FFFFFFFF8
3FFFFFFFE0
1FFFFFFFC0
03FFFFFE00
003FFFC000
ENDCHAR
STARTCHAR Gdotaccent
ENCODING 288
SWIDTH 600 0
DWIDTH 45 0
BBX 38 70 3 -1
BITMAP
0000FE0000
0003FF8000
0003FF8000
0007FFC000
0007FFC000
0007FFC000
0007FFC000
0007FFC000
0007FFC000
0007FFC000
0003FF8000
0003FF8000
0000FE0000
0000000000
0000000000
0000000000
0001FF8000
001FFFF000
007FFFFC00
00FFFFFE00
01FFFFFF00
03FFFFFF80
07FFFFFFC0
0FFFFFFFE0
0FFFFFFFE0
1FFF03FFF0
1FFE00FFF0
3FFC007FF8
3FF8007FF8
7FF8003FF8
7FF8003FFC
7FF0001FF0
7FF0001F00
FFF0001000
FFF0000000
FFF0000000
FFF0000000
FFF0000000
FFF0000000
FFF0000000
FFF01FFFFC
FFF01FFFFC
FFF01FFFFC
FFF01FFFFC
FFF01FFFFC
FFF01FFFFC
FFF01FFFFC
FFF01FFFFC
FFF01FFFFC
FFF0000FFC
FFF0000FFC
FFF0000FFC
FFF0000FFC
FFF0000FFC
7FF0000FFC
7FF8000FFC
7FF8001FFC
7FFC001FFC
3FFC003FFC
3FFE007FFC
3FFF81FFFC
1FFFFFFFFC
1FFFFFEFFC
0FFFFFCFFC
07FFFFCFFC
07FFFF8FFC
03FFFF0FFC
00FFFE0FFC
007FFC0FFC
000FE00000
ENDCHAR
STARTCHAR gdotaccent
ENCODING 289
SWIDTH 600 0
DWIDTH 45 0
BBX 40 73 4 -16
BITMAP
0001FC0000
0007FE0000
000FFF0000
000FFF0000
001FFF8000
001FFF8000
001FFF8000
001FFF8000
001FFF8000
000FFF0000
000FFF0FFC
0007FE1FFC
0001FC3FFC
0000007FFC
0000007FFC
0000007FFC
0000007FFC
0007FE7FFC
007FFFFFFC
01FFFFF000
03FFFFFC00
07FFFFFE00
0FFFFFFF00
1FFFFFFF80
1FFE07FF80
3FF801FFC0
3FF800FFC0
3FF000FFE0
7FF000FFE0
7FF000FFE0
7FF0007FE0
7FF0007FE0
7FF000FFE0
7FF000FFE0
3FF000FFE0
3FF800FFC0
3FF801FFC0
1FFE07FFC0
1FFFFFFF80
0FFFFFFF00
07FFFFFE00
03FFFFFC00
00FFFFF800
00FFFFE000
07E7FE0000
1FC0000000
3FC0000000
3FC0000000
3FC0000000
3FE0000000
3FFFFFFC00
3FFFFFFF80
3FFFFFFFE0
1FFFFFFFF8
0FFFFFFFFC
03FFFFFFFC
03FFFFFFFE
0FFFFFFFFE
3FFFFFFFFE
7FC0001FFF
FF800007FF
FF800007FF
FF800007FF
FF800007FE
FFC0000FFE
FFF0003FFE
FFFFFFFFFC
FFFFFFFFFC
7FFFFFFFF8
3FFFFFFFE0
1FFFFFFFC0
03FFFFFE00
003FFFC000
ENDCHAR
STARTCHAR Gcommaaccent
ENCODING 290
SWIDTH 600 0
DWIDTH 45 0
BBX 38 73 3 -20
BITMAP
0001FF8000
001FFFF000
007FFFFC00
00FFFFFE00
01FFFFFF00
03FFFFFF80
07FFFFFFC0
0FFFFFFFE0
0FFFFFFFE0
1FFF03FFF0
1FFE00FFF0
3FFC007FF8
3FF8007FF8
7FF8003FF8
7FF8003FFC
7FF0001FF0
7FF0001F00
FFF0001000
FFF0000000
FFF0000000
FFF0000000
FFF0000000
FFF0000000
FFF0000000
FFF01FFFFC
FFF01FFFFC
FFF01FFFFC
FFF01FFFFC
FFF01FFFFC
FFF01FFFFC
FFF01FFFFC
FFF01FFFFC
FFF01FFFFC
FFF0000FFC
FFF0000FFC
FFF0000FFC
FFF0000FFC
FFF0000FFC
7FF0000FFC
7FF8000FFC
7FF8001FFC
7FFC001FFC
3FFC003FFC
3FFE007FFC
3FFF81FFFC
1FFFFFFFFC
1FFFFFEFFC
0FFFFFCFFC
07FFFFCFFC
07FFFF8FFC
03FFFF0FFC
00FFFE0FFC
007FFC0FFC
000FE00000
0000000000
0000000000
0000000000
0007FF8000
0007FF8000
0007FF0000
0007FF0000
0007FE0000
0007FE0000
0007FE0000
0007FC0000
0007FC0000
0007F80000
0007F80000
0007F80000
000FF00000
000FF00000
000FE00000
000FE00000
ENDCHAR
STARTCHAR gcommaaccent
ENCODING 291
SWIDTH 600 0
DWIDTH 45 0
BBX 40 75 4 -16
BITMAP
00003F8000
00003F8000
00003F8000
00007F8000
00007F8000
0000FF8000
0000FF8000
0000FF8000
0001FF8000
0001FF8000
0003FF0000
0003FF0000
0003FF0FFC
0007FF1FFC
0007FF3FFC
000FFF7FFC
0000007FFC
0000007FFC
0000007FFC
0007FE7FFC
007FFFFFFC
01FFFFF000
03FFFFFC00
07FFFFFE00
0FFFFFFF00
1FFFFFFF80
1FFE07FF80
3FF801FFC0
3FF800FFC0
3FF000FFE0
7FF000FFE0
7FF000FFE0
7FF0007FE0
7FF0007FE0
7FF000FFE0
7FF000FFE0
3FF000FFE0
3FF800FFC0
3FF801FFC0
1FFE07FFC0
1FFFFFFF80
0FFFFFFF00
07FFFFFE00
03FFFFFC00
00FFFFF800
00FFFFE000
07E7FE0000
1FC0000000
3FC0000000
3FC0000000
3FC0000000
3FE0000000
3FFFFFFC00
3FFFFFFF80
3FFFFFFFE0
1FFFFFFFF8
0FFFFFFFFC
03FFFFFFFC
03FFFFFFFE
0FFFFFFFFE
3FFFFFFFFE
7FC0001FFF
FF800007FF
FF800007FF
FF800007FF
FF800007FE
FFC0000FFE
FFF0003FFE
FFFFFFFFFC
FFFFFFFFFC
7FFFFFFFF8
3FFFFFFFE0
1FFFFFFFC0
03FFFFFE00
003FFFC000
ENDCHAR
STARTCHAR Hcircumflex
ENCODING 292
SWIDTH 600 0
DWIDTH 45 0
BBX 35 71 5 0
BITMAP
000FFE0000
000FFE0000
001FFF0000
003FFF8000
007FFFC000
00FFFFE000
01FFFFF000
01FFFFF800
03FF3FF800
07FE1FFC00
0FFC07FE00
1FF803FF00
0FF001FE00
07E000FC00
03C0007000
0080002000
0000000000
0000000000
0000000000
FFE000FFE0
FFE000FFE0
FFE000FFE0
FFE000FFE0
FFE000FFE0
FFE000FFE0
FFE000FFE0
FFE000FFE0
FFE000FFE0
FFE000FFE0
FFE000FFE0
FFE000FFE0
FFE000FFE0
FFE000FFE0
FFE000FFE0
FFE000FFE0
FFE000FFE0
FFE000FFE0
FFE000FFE0
FFE000FFE0
FFE000FFE0
FFFFFFFFE0
FFFFFFFFE0
FFFFFFFFE0
FFFFFFFFE0
FFFFFFFFE0
FFFFFFFFE0
FFFFFFFFE0
FFFFFFFFE0
FFFFFFFFE0
FFE000FFE0
FFE000FFE0
FFE000FFE0
FFE000FFE0
FFE000FFE0
FFE000FFE0
FFE000FFE0
FFE000FFE0
FFE000FFE0
FFE000FFE0
FFE000FFE0
FFE000FFE0
FFE000FFE0
FFE000FFE0
FFE000FFE0
FFE000FFE0
FFE000FFE0
FFE000FFE0
FFE000FFE0
FFE000FFE0
FFE000FFE0
FFE000FFE0
ENDCHAR
STARTCHAR hcircumflex
ENCODING 293
SWIDTH 600 0
DWIDTH 45 0
BBX 44 73 -4 0
BITMAP
007FF0000000
007FF0000000
00FFF8000000
01FFFC000000
03FFFE000000
07FFFF000000
0FFFFF800000
0FFFFFC00000
1FF9FFC00000
3FF0FFE00000
7FE03FF00000
FFC01FF80000
7F800FF00000
3F0007E00000
1E0003800000
040001000000
000000000000
007FF0000000
007FF0000000
007FF0000000
007FF0000000
007FF0000000
007FF0000000
007FF0000000
007FF0000000
007FF0000000
007FF0000000
007FF0000000
007FF0000000
007FF0000000
007FF0000000
007FF0000000
007FF0000000
007FF00FF000
007FF03FFC00
007FF07FFF00
007FF0FFFF80
007FF1FFFF80
007FF3FFFFC0
007FF7FFFFE0
007FF7FFFFE0
007FF7FFFFF0
007FFF03FFF0
007FFC01FFF0
007FF800FFF0
007FF0007FF0
007FF0007FF0
007FF0007FF0
007FF0007FF0
007FF0007FF0
007FF0007FF0
007FF0007FF0
007FF0007FF0
007FF0007FF0
007FF0007FF0
007FF0007FF0
007FF0007FF0
007FF0007FF0
007FF0007FF0
007FF0007FF0
007FF0007FF0
007FF0007FF0
007FF0007FF0
007FF0007FF0
007FF0007FF0
007FF0007FF0
007FF0007FF0
007FF0007FF0
007FF0007FF0
007FF0007FF0
007FF0007FF0
007FF0007FF0
007FF0007FF0
ENDCHAR
STARTCHAR Hbar
ENCODING 294
SWIDTH 600 0
DWIDTH 45 0
BBX 45 52 0 0
BITMAP
07FF0007FF00
07FF0007FF00
07FF0007FF00
07FF0007FF00
07FF0007FF00
FFFF0007FFF8
FFFFFFFFFFF8
FFFFFFFFFFF8
FFFFFFFFFFF8
FFFFFFFFFFF8
FFFFFFFFFFF8
FFFFFFFFFFF8
FFFFFFFFFFF8
FFFF0007FFF8
07FF0007FF00
07FF0007FF00
07FF0007FF00
07FF0007FF00
07FF0007FF00
07FF0007FF00
07FF0007FF00
07FFFFFFFF00
07FFFFFFFF00
07FFFFFFFF00
07FFFFFFFF00
07FFFFFFFF00
07FFFFFFFF00
07FFFFFFFF00
07FFFFFFFF00
07FFFFFFFF00
07FF0007FF00
07FF0007FF00
07FF0007FF00
07FF0007FF00
07FF0007FF00
07FF0007FF00
07FF0007FF00
07FF0007FF00
07FF0007FF00
07FF0007FF00
07FF0007FF00
07FF0007FF00
07FF0007FF00
07FF0007FF00
07FF0007FF00
07FF0007FF00
07FF0007FF00
07FF0007FF00
07FF0007FF00
07FF0007FF00
07FF0007FF00
07FF0007FF00
ENDCHAR
STARTCHAR hbar
ENCODING 295
SWIDTH 600 0
DWIDTH 45 0
BBX 39 56 1 0
BITMAP
0FFE000000
0FFE000000
0FFE000000
0FFE000000
FFFFFF8000
FFFFFF8000
FFFFFF8000
FFFFFF8000
FFFFFF8000
FFFFFF8000
FFFFFF8000
FFFFFF8000
FFFFFF8000
0FFE000000
0FFE000000
0FFE000000
0FFE01FE00
0FFE07FF80
0FFE0FFFE0
0FFE1FFFF0
0FFE3FFFF0
0FFE7FFFF8
0FFEFFFFFC
0FFEFFFFFC
0FFEFFFFFE
0FFFE07FFE
0FFF803FFE
0FFF001FFE
0FFE000FFE
0FFE000FFE
0FFE000FFE
0FFE000FFE
0FFE000FFE
0FFE000FFE
0FFE000FFE
0FFE000FFE
0FFE000FFE
0FFE000FFE
0FFE000FFE
0FFE000FFE
0FFE000FFE
0FFE000FFE
0FFE000FFE
0FFE000FFE
0FFE000FFE
0FFE000FFE
0FFE000FFE
0FFE000FFE
0FFE000FFE
0FFE000FFE
0FFE000FFE
0FFE000FFE
0FFE000FFE
0FFE000FFE
0FFE000FFE
0FFE000FFE
ENDCHAR
STARTCHAR Itilde
ENCODING 296
SWIDTH 600 0
DWIDTH 45 0
BBX 33 68 6 0
BITMAP
00FC000000
03FF802000
0FFFE07000
1FFFFFF800
3FFFFFF800
1FFFFFFC00
0FFFFFFE00
0FFFFFFC00
0707FFF800
0200FFE000
00001FC000
0000000000
0000000000
0000000000
0000000000
0000000000
FFFFFFFF80
FFFFFFFF80
FFFFFFFF80
FFFFFFFF80
FFFFFFFF80
FFFFFFFF80
FFFFFFFF80
FFFFFFFF80
FFFFFFFF80
001FFC0000
001FFC0000
001FFC0000
001FFC0000
001FFC0000
001FFC0000
001FFC0000
001FFC0000
001FFC0000
001FFC0000
001FFC0000
001FFC0000
001FFC0000
001FFC0000
001FFC0000
001FFC0000
001FFC0000
001FFC0000
001FFC0000
001FFC0000
001FFC0000
001FFC0000
001FFC0000
001FFC0000
001FFC0000
001FFC0000
001FFC0000
001FFC0000
001FFC0000
001FFC0000
001FFC0000
001FFC0000
001FFC0000
001FFC0000
FFFFFFFF80
FFFFFFFF80
FFFFFFFF80
FFFFFFFF80
FFFFFFFF80
FFFFFFFF80
FFFFFFFF80
FFFFFFFF80
FFFFFFFF80
ENDCHAR
STARTCHAR itilde
ENCODING 297
SWIDTH 600 0
DWIDTH 45 0
BBX 35 55 7 0
BITMAP
007E000000
01FFC00800
03FFF83800
07FFFFFC00
0FFFFFFE00
0FFFFFFF00
07FFFFFF00
03FFFFFE00
03C1FFFC00
01003FF800
00000FE000
0000000000
0000000000
0000000000
0000000000
0000000000
FFFFFE0000
FFFFFE0000
FFFFFE0000
FFFFFE0000
FFFFFE0000
FFFFFE0000
FFFFFE0000
FFFFFE0000
FFFFFE0000
000FFE0000
000FFE0000
000FFE0000
000FFE0000
000FFE0000
000FFE0000
000FFE0000
000FFE0000
000FFE0000
000FFE0000
000FFE0000
000FFE0000
000FFE0000
000FFE0000
000FFE0000
000FFE0000
000FFE0000
000FFE0000
000FFE0000
000FFE0000
000FFE0000
FFFFFFFFE0
FFFFFFFFE0
FFFFFFFFE0
FFFFFFFFE0
FFFFFFFFE0
FFFFFFFFE0
FFFFFFFFE0
FFFFFFFFE0
FFFFFFFFE0
ENDCHAR
STARTCHAR Imacron
ENCODING 298
SWIDTH 600 0
DWIDTH 45 0
BBX 33 67 6 0
BITMAP
07FFFFF000
07FFFFF000
07FFFFF000
07FFFFF000
07FFFFF000
07FFFFF000
07FFFFF000
07FFFFF000
0000000000
0000000000
0000000000
0000000000
0000000000
0000000000
0000000000
FFFFFFFF80
FFFFFFFF80
FFFFFFFF80
FFFFFFFF80
FFFFFFFF80
FFFFFFFF80
FFFFFFFF80
FFFFFFFF80
FFFFFFFF80
001FFC0000
001FFC0000
001FFC0000
001FFC0000
001FFC0000
001FFC0000
001FFC0000
001FFC0000
001FFC0000
001FFC0000
001FFC0000
001FFC0000
001FFC0000
001FFC0000
001FFC0000
001FFC0000
001FFC0000
001FFC0000
001FFC0000
001FFC0000
001FFC0000
001FFC0000
001FFC0000
001FFC0000
001FFC0000
001FFC0000
001FFC0000
001FFC0000
001FFC0000
001FFC0000
001FFC0000
001FFC0000
001FFC0000
001FFC0000
FFFFFFFF80
FFFFFFFF80
FFFFFFFF80
FFFFFFFF80
FFFFFFFF80
FFFFFFFF80
FFFFFFFF80
FFFFFFFF80
FFFFFFFF80
ENDCHAR
STARTCHAR imacron
ENCODING 299
SWIDTH 600 0
DWIDTH 45 0
BBX 35 54 7 0
BITMAP
03FFFFF800
03FFFFF800
03FFFFF800
03FFFFF800
03FFFFF800
03FFFFF800
03FFFFF800
03FFFFF800
0000000000
0000000000
0000000000
0000000000
0000000000
0000000000
0000000000
FFFFFE0000
FFFFFE0000
FFFFFE0000
FFFFFE0000
FFFFFE0000
FFFFFE0000
FFFFFE0000
FFFFFE0000
FFFFFE0000
000FFE0000
000FFE0000
000FFE0000
000FFE0000
000FFE0000
000FFE0000
000FFE0000
000FFE0000
000FFE0000
000FFE0000
000FFE0000
000FFE0000
000FFE0000
000FFE0000
000FFE0000
000FFE0000
000FFE0000
000FFE0000
000FFE0000
000FFE0000
000FFE0000
FFFFFFFFE0
FFFFFFFFE0
FFFFFFFFE0
FFFFFFFFE0
FFFFFFFFE0
FFFFFFFFE0
FFFFFFFFE0
FFFFFFFFE0
FFFFFFFFE0
ENDCHAR
STARTCHAR Ibreve
ENCODING 300
SWIDTH 600 0
DWIDTH 45 0
BBX 33 72 6 0
BITMAP
018000C000
078000F000
1FC001FC00
3FE003FE00
3FE003FC00
1FF007FC00
1FF80FFC00
0FFC1FF800
0FFFFFF800
07FFFFF000
03FFFFE000
01FFFFC000
00FFFF8000
007FFF0000
003FFE0000
0007F00000
0000000000
0000000000
0000000000
0000000000
FFFFFFFF80
FFFFFFFF80
FFFFFFFF80
FFFFFFFF80
FFFFFFFF80
FFFFFFFF80
FFFFFFFF80
FFFFFFFF80
FFFFFFFF80
001FFC0000
001FFC0000
001FFC0000
001FFC0000
001FFC0000
001FFC0000
001FFC0000
001FFC0000
001FFC0000
001FFC0000
001FFC0000
001FFC0000
001FFC0000
001FFC0000
001FFC0000
001FFC0000
001FFC0000
001FFC0000
001FFC0000
001FFC0000
001FFC0000
001FFC0000
001FFC0000
001FFC0000
001FFC0000
001FFC0000
001FFC0000
001FFC0000
001FFC0000
001FFC0000
001FFC0000
001FFC0000
001FFC0000
001FFC0000
FFFFFFFF80
FFFFFFFF80
FFFFFFFF80
FFFFFFFF80
FFFFFFFF80
FFFFFFFF80
FFFFFFFF80
FFFFFFFF80
FFFFFFFF80
ENDCHAR
STARTCHAR ibreve
ENCODING 301
SWIDTH 600 0
DWIDTH 45 0
BBX 35 59 7 0
BITMAP
00C0003000
03E0007C00
0FE000FF00
1FF000FF00
0FF801FF00
0FF803FE00
07FC07FE00
07FF0FFE00
03FFFFFC00
03FFFFF800
01FFFFF800
00FFFFF000
007FFFE000
003FFFC000
000FFF0000
0003FC0000
0000000000
0000000000
0000000000
0000000000
FFFFFE0000
FFFFFE0000
FFFFFE0000
FFFFFE0000
FFFFFE0000
FFFFFE0000
FFFFFE0000
FFFFFE0000
FFFFFE0000
000FFE0000
000FFE0000
000FFE0000
000FFE0000
000FFE0000
000FFE0000
000FFE0000
000FFE0000
000FFE0000
000FFE0000
000FFE0000
000FFE0000
000FFE0000
000FFE0000
000FFE0000
000FFE0000
000FFE0000
000FFE0000
000FFE0000
000FFE0000
000FFE0000
FFFFFFFFE0
FFFFFFFFE0
FFFFFFFFE0
FFFFFFFFE0
FFFFFFFFE0
FFFFFFFFE0
FFFFFFFFE0
FFFFFFFFE0
FFFFFFFFE0
ENDCHAR
STARTCHAR Iogonek
ENCODING 302
SWIDTH 600 0
DWIDTH 45 0
BBX 36 68 6 -16
BITMAP
FFFFFFFF80
FFFFFFFF80
FFFFFFFF80
FFFFFFFF80
FFFFFFFF80
FFFFFFFF80
FFFFFFFF80
FFFFFFFF80
FFFFFFFF80
001FFC0000
001FFC0000
001FFC0000
001FFC0000
001FFC0000
001FFC0000
001FFC0000
001FFC0000
001FFC0000
001FFC0000
001FFC0000
001FFC0000
001FFC0000
001FFC0000
001FFC0000
001FFC0000
001FFC0000
001FFC0000
001FFC0000
001FFC0000
001FFC0000
001FFC0000
001FFC0000
001FFC0000
001FFC0000
001FFC0000
001FFC0000
001FFC0000
001FFC0000
001FFC0000
001FFC0000
001FFC0000
001FFC0000
001FFC0000
FFFFFFFF80
FFFFFFFF80
FFFFFFFF80
FFFFFFFF80
FFFFFFFF80
FFFFFFFF80
FFFFFFFF80
FFFFFFFF80
FFFFFFFF80
0000003F00
000000FC00
000003F800
000007E000
00000FC000
00001FC000
00003F8000
00003F8000
00007F8100
00007FC380
00007FFFC0
00003FFFE0
00003FFFF0
00001FFFE0
00000FFF80
000003FE00
ENDCHAR
STARTCHAR iogonek
ENCODING 303
SWIDTH 600 0
DWIDTH 45 0
BBX 37 73 7 -16
BITMAP
0003F80000
0007FE0000
000FFF0000
001FFF0000
001FFF8000
001FFF8000
001FFF8000
001FFF8000
001FFF8000
000FFF0000
000FFF0000
0007FE0000
0003F80000
0000000000
0000000000
0000000000
0000000000
0000000000
FFFFFE0000
FFFFFE0000
FFFFFE0000
FFFFFE0000
FFFFFE0000
FFFFFE0000
FFFFFE0000
FFFFFE0000
FFFFFE0000
000FFE0000
000FFE0000
000FFE0000
000FFE0000
000FFE0000
000FFE0000
000FFE0000
000FFE0000
000FFE0000
000FFE0000
000FFE0000
000FFE0000
000FFE0000
000FFE0000
000FFE0000
000FFE0000
000FFE0000
000FFE0000
000FFE0000
000FFE0000
000FFE0000
FFFFFFFFE0
FFFFFFFFE0
FFFFFFFFE0
FFFFFFFFE0
FFFFFFFFE0
FFFFFFFFE0
FFFFFFFFE0
FFFFFFFFE0
FFFFFFFFE0
0000001FC0
0000007F00
000000FE00
000003F800
000007F000
00000FE000
00001FE000
00001FC000
00001FC040
00001FE1E0
00001FFFF0
00001FFFF8
00001FFFF8
00000FFFF0
000007FFE0
000000FF00
ENDCHAR
STARTCHAR Idotaccent
ENCODING 304
SWIDTH 600 0
DWIDTH 45 0
BBX 33 69 6 0
BITMAP
0007F00000
001FFC0000
001FFC0000
003FFE0000
003FFE0000
003FFE0000
003FFE0000
003FFE0000
003FFE0000
003FFE0000
001FFC0000
001FFC0000
0007F00000
0000000000
0000000000
0000000000
0000000000
FFFFFFFF80
FFFFFFFF80
FFFFFFFF80
FFFFFFFF80
FFFFFFFF80
FFFFFFFF80
FFFFFFFF80
FFFFFFFF80
FFFFFFFF80
001FFC0000
001FFC0000
001FFC0000
001FFC0000
001FFC0000
001FFC0000
001FFC0000
001FFC0000
001FFC0000
001FFC0000
001FFC0000
001FFC0000
001FFC0000
001FFC0000
001FFC0000
001FFC0000
001FFC0000
001FFC0000
001FFC0000
001FFC0000
001FFC0000
001FFC0000
001FFC0000
001FFC0000
001FFC0000
001FFC0000
001FFC0000
001FFC0000
001FFC0000
001FFC0000
001FFC0000
001FFC0000
001FFC0000
001FFC0000
FFFFFFFF80
FFFFFFFF80
FFFFFFFF80
FFFFFFFF80
FFFFFFFF80
FFFFFFFF80
FFFFFFFF80
FFFFFFFF80
FFFFFFFF80
ENDCHAR
STARTCHAR dotlessi
ENCODING 305
SWIDTH 600 0
DWIDTH 45 0
BBX 35 39 7 0
BITMAP
FFFFFE0000
FFFFFE0000
FFFFFE0000
FFFFFE0000
FFFFFE0000
FFFFFE0000
FFFFFE0000
FFFFFE0000
FFFFFE0000
000FFE0000
000FFE0000
000FFE0000
000FFE0000
000FFE0000
000FFE0000
000FFE0000
000FFE0000
000FFE0000
000FFE0000
000FFE0000
000FFE0000
000FFE0000
000FFE0000
000FFE0000
000FFE0000
000FFE0000
000FFE0000
000FFE0000
000FFE0000
000FFE0000
FFFFFFFFE0
FFFFFFFFE0
FFFFFFFFE0
FFFFFFFFE0
FFFFFFFFE0
FFFFFFFFE0
FFFFFFFFE0
FFFFFFFFE0
FFFFFFFFE0
ENDCHAR
STARTCHAR IJ
ENCODING 306
SWIDTH 600 0
DWIDTH 45 0
BBX 35 53 4 -1
BITMAP
7FF000FFE0
7FF000FFE0
7FF000FFE0
7FF000FFE0
7FF000FFE0
7FF000FFE0
7FF000FFE0
7FF000FFE0
7FF000FFE0
7FF000FFE0
7FF000FFE0
7FF000FFE0
7FF000FFE0
7FF000FFE0
7FF000FFE0
7FF000FFE0
7FF000FFE0
7FF000FFE0
7FF000FFE0
7FF000FFE0
7FF000FFE0
7FF000FFE0
7FF000FFE0
7FF000FFE0
7FF000FFE0
7FF000FFE0
7FF000FFE0
7FF000FFE0
7FF000FFE0
000000FFE0
000000FFE0
000000FFE0
000000FFE0
000000FFE0
000000FFE0
000000FFE0
002000FFE0
07E000FFE0
7FE000FFE0
FFF000FFE0
FFF001FFE0
7FF801FFE0
7FFC03FFE0
7FFE07FFC0
3FFFFFFFC0
3FFFFFFF80
1FFFFFFF80
0FFFFFFF00
07FFFFFE00
03FFFFFC00
00FFFFF000
003FFFC000
0007FE0000
ENDCHAR
STARTCHAR ij
ENCODING 307
SWIDTH 600 0
DWIDTH 45 0
BBX 37 72 4 -15
BITMAP
0FE0003F80
3FF0007FE0
7FF800FFF0
7FFC01FFF0
FFFC01FFF0
FFFC01FFF8
FFFC01FFF8
FFFC01FFF8
FFFC01FFF8
7FFC01FFF0
7FF800FFF0
3FF0007FE0
0FE0003F80
0000000000
0000000000
0000000000
0000000000
0000000000
3FF800FFE0
3FF800FFE0
3FF800FFE0
3FF800FFE0
3FF800FFE0
3FF800FFE0
3FF800FFE0
3FF800FFE0
3FF800FFE0
3FF800FFE0
3FF800FFE0
3FF800FFE0
3FF800FFE0
3FF800FFE0
3FF800FFE0
3FF800FFE0
3FF800FFE0
3FF800FFE0
3FF800FFE0
3FF800FFE0
3FF800FFE0
3FF800FFE0
3FF800FFE0
3FF800FFE0
3FF800FFE0
3FF800FFE0
3FF800FFE0
3FF800FFE0
3FF800FFE0
3FF800FFE0
3FF800FFE0
3FF800FFE0
3FF800FFE0
3FF800FFE0
3FF800FFE0
3FF800FFE0
3FF800FFE0
3FF800FFE0
3FF800FFE0
000000FFE0
000000FFE0
000000FFE0
000000FFE0
000000FFE0
000000FFE0
0007FFFFE0
0007FFFFE0
0007FFFFE0
0007FFFFC0
0007FFFFC0
0007FFFF80
0007FFFF00
0007FFFC00
0007FFF000
ENDCHAR
STARTCHAR Jcircumflex
ENCODING 308
SWIDTH 600 0
DWIDTH 45 0
BBX 36 72 3 -1
BITMAP
0000FFC000
0001FFE000
0003FFF000
0007FFF800
0007FFFC00
000FFFFC00
001FFFFE00
003FFFFF00
007FF3FF80
00FFE1FFC0
00FFC0FFE0
01FF807FE0
00FF003FF0
007E001F80
0038000F00
0010000600
0000000000
0000000000
0000000000
01FFFFFFE0
01FFFFFFE0
01FFFFFFE0
01FFFFFFE0
01FFFFFFE0
01FFFFFFE0
01FFFFFFE0
01FFFFFFE0
01FFFFFFE0
000000FFE0
000000FFE0
000000FFE0
000000FFE0
000000FFE0
000000FFE0
000000FFE0
000000FFE0
000000FFE0
000000FFE0
000000FFE0
000000FFE0
000000FFE0
000000FFE0
000000FFE0
000000FFE0
000000FFE0
000000FFE0
000000FFE0
000000FFE0
000000FFE0
000000FFE0
000000FFE0
000000FFE0
000000FFE0
000000FFE0
000000FFE0
002000FFE0
07E000FFE0
FFE000FFE0
FFE000FFE0
FFF001FFE0
7FF001FFE0
7FF803FFE0
7FFE0FFFC0
3FFFFFFFC0
3FFFFFFF80
1FFFFFFF80
0FFFFFFF00
07FFFFFE00
03FFFFFC00
01FFFFF000
007FFFC000
0007FE0000
ENDCHAR
STARTCHAR jcircumflex
ENCODING 309
SWIDTH 600 0
DWIDTH 45 0
BBX 35 74 7 -15
BITMAP
0001FF8000
0003FFC000
0003FFE000
0007FFF000
000FFFF800
001FFFFC00
003FFFFC00
007FFFFE00
00FFE7FF00
00FFC3FF80
01FF81FFC0
03FF00FFE0
01FE007FC0
00FC001F80
0078000E00
0030000400
0000000000
0000000000
0000000000
0000000000
FFFFFFC000
FFFFFFC000
FFFFFFC000
FFFFFFC000
FFFFFFC000
FFFFFFC000
FFFFFFC000
FFFFFFC000
FFFFFFC000
0001FFC000
0001FFC000
0001FFC000
0001FFC000
0001FFC000
0001FFC000
0001FFC000
0001FFC000
0001FFC000
0001FFC000
0001FFC000
0001FFC000
0001FFC000
0001FFC000
0001FFC000
0001FFC000
0001FFC000
0001FFC000
0001FFC000
0001FFC000
0001FFC000
0001FFC000
0001FFC000
0001FFC000
0001FFC000
0001FFC000
0001FFC000
0001FFC000
0001FFC000
0001FFC000
0001FFC000
0001FFC000
0001FFC000
0001FFC000
0001FFC000
0001FFC000
FFFFFFC000
FFFFFF8000
FFFFFF8000
FFFFFF8000
FFFFFF0000
FFFFFE0000
FFFFFC0000
FFFFF80000
FFFFC00000
ENDCHAR
STARTCHAR Kcommaaccent
ENCODING 310
SWIDTH 600 0
DWIDTH 45 0
BBX 40 72 5 -20
BITMAP
FFE0001FFE
FFE0003FFC
FFE0007FFC
FFE000FFF8
FFE000FFF0
FFE001FFF0
FFE003FFE0
FFE003FFC0
FFE007FF80
FFE00FFF80
FFE01FFF00
FFE01FFE00
FFE03FFE00
FFE07FFC00
FFE07FF800
FFE0FFF000
FFE1FFF000
FFE1FFE000
FFE3FFC000
FFE7FFC000
FFE7FF8000
FFEFFF0000
FFFFFF0000
FFFFFF8000
FFFFFF8000
FFFFFFC000
FFFFFFC000
FFFFFFE000
FFFFFFE000
FFFFFFF000
FFFFFFF000
FFFE7FF800
FFFC7FFC00
FFFC3FFC00
FFF83FFE00
FFF01FFE00
FFF01FFF00
FFE00FFF00
FFE00FFF80
FFE007FF80
FFE007FFC0
FFE003FFC0
FFE003FFE0
FFE001FFF0
FFE000FFF0
FFE000FFF8
FFE0007FF8
FFE0007FFC
FFE0003FFC
FFE0003FFE
FFE0001FFE
FFE0001FFF
0000000000
0000000000
0000000000
0000000000
0007FF8000
0007FF8000
0007FF0000
0007FF0000
0007FE0000
0007FE0000
0007FE0000
0007FC0000
0007FC0000
0007F80000
0007F80000
0007F80000
000FF00000
000FF00000
000FE00000
000FE00000
ENDCHAR
STARTCHAR kcommaaccent
ENCODING 311
SWIDTH 600 0
DWIDTH 45 0
BBX 39 76 5 -20
BITMAP
FFE0000000
FFE0000000
FFE0000000
FFE0000000
FFE0000000
FFE0000000
FFE0000000
FFE0000000
FFE0000000
FFE0000000
FFE0000000
FFE0000000
FFE0000000
FFE0000000
FFE0000000
FFE0000000
FFE0000000
FFE000FFFC
FFE001FFF0
FFE003FFE0
FFE007FFC0
FFE007FF80
FFE00FFF00
FFE01FFE00
FFE03FFC00
FFE07FF800
FFE0FFF000
FFE1FFE000
FFE3FFC000
FFE7FF8000
FFE7FF0000
FFEFFE0000
FFFFFE0000
FFFFFE0000
FFFFFF0000
FFFFFF8000
FFFFFF8000
FFFFFFC000
FFFFFFE000
FFFDFFF000
FFF8FFF000
FFF0FFF800
FFE07FFC00
FFE03FFC00
FFE03FFE00
FFE01FFF00
FFE00FFF00
FFE00FFF80
FFE007FFC0
FFE003FFE0
FFE003FFE0
FFE001FFF0
FFE000FFF8
FFE000FFF8
FFE0007FFC
FFE0003FFE
0000000000
0000000000
0000000000
0000000000
000FFF0000
000FFE0000
000FFE0000
000FFE0000
000FFC0000
000FFC0000
000FF80000
000FF80000
000FF80000
001FF00000
001FF00000
001FE00000
001FE00000
001FE00000
001FC00000
001FC00000
ENDCHAR
STARTCHAR kgreenlandic
ENCODING 312
SWIDTH 600 0
DWIDTH 45 0
BBX 39 39 5 0
BITMAP
FFE000FFFC
FFE001FFF0
FFE003FFE0
FFE007FFC0
FFE007FF80
FFE00FFF00
FFE01FFE00
FFE03FFC00
FFE07FF800
FFE0FFF000
FFE1FFE000
FFE1FFC000
FFE3FF8000
FFE7FF0000
FFEFFE0000
FFEFFE0000
FFFFFE0000
FFFFFF0000
FFFFFF8000
FFFFFF8000
FFFFFFC000
FFFFFFE000
FFFDFFF000
FFF8FFF000
FFF0FFF800
FFE07FFC00
FFE03FFC00
FFE03FFE00
FFE01FFF00
FFE00FFF00
FFE00FFF80
FFE007FFC0
FFE003FFE0
FFE003FFE0
FFE001FFF0
FFE000FFF8
FFE000FFF8
FFE0007FFC
FFE0003FFE
ENDCHAR
STARTCHAR Lacute
ENCODING 313
SWIDTH 600 0
DWIDTH 45 0
BBX 34 74 7 0
BITMAP
0100000000
01C0000000
03F0000000
03FC000000
07FF000000
07FF800000
0FFF000000
0FFE000000
1FFC000000
1FF8000000
3FF8000000
3FF0000000
7FE0000000
7FC0000000
FF80000000
3F80000000
0F00000000
0200000000
0000000000
0000000000
0000000000
0000000000
FFE0000000
FFE0000000
FFE0000000
FFE0000000
FFE0000000
FFE0000000
FFE0000000
FFE0000000
FFE0000000
FFE0000000
FFE0000000
FFE0000000
FFE0000000
FFE0000000
FFE0000000
FFE0000000
FFE0000000
FFE0000000
FFE0000000
FFE0000000
FFE0000000
FFE0000000
FFE0000000
FFE0000000
FFE0000000
FFE0000000
FFE0000000
FFE0000000
FFE0000000
FFE0000000
FFE0000000
FFE0000000
FFE0000000
FFE0000000
FFE0000000
FFE0000000
FFE0000000
FFE0000000
FFE0000000
FFE0000000
FFE0000000
FFE0000000
FFE0000000
FFFFFFFFC0
FFFFFFFFC0
FFFFFFFFC0
FFFFFFFFC0
FFFFFFFFC0
FFFFFFFFC0
FFFFFFFFC0
FFFFFFFFC0
FFFFFFFFC0
ENDCHAR
STARTCHAR lacute
ENCODING 314
SWIDTH 600 0
DWIDTH 45 0
BBX 35 75 5 0
BITMAP
0000100000
00001C0000
00003F0000
00003FC000
00007FF000
00007FF800
0000FFE000
0000FFE000
0001FFC000
0001FF8000
0003FF0000
0003FF0000
0007FE0000
0007FC0000
000FF80000
0003F80000
0000F00000
0000200000
0000000000
FFFFFE0000
FFFFFE0000
FFFFFE0000
FFFFFE0000
FFFFFE0000
FFFFFE0000
FFFFFE0000
FFFFFE0000
FFFFFE0000
000FFE0000
000FFE0000
000FFE0000
000FFE0000
000FFE0000
000FFE0000
000FFE0000
000FFE0000
000FFE0000
000FFE0000
000FFE0000
000FFE0000
000FFE0000
000FFE0000
000FFE0000
000FFE0000
000FFE0000
000FFE0000
000FFE0000
000FFE0000
000FFE0000
000FFE0000
000FFE0000
000FFE0000
000FFE0000
000FFE0000
000FFE0000
000FFE0000
000FFE0000
000FFE0000
000FFE0000
000FFE0000
000FFE0000
000FFE0000
000FFE0000
000FFE0000
000FFE0000
000FFE0000
FFFFFFFFE0
FFFFFFFFE0
FFFFFFFFE0
FFFFFFFFE0
FFFFFFFFE0
FFFFFFFFE0
FFFFFFFFE0
FFFFFFFFE0
FFFFFFFFE0
ENDCHAR
STARTCHAR Lcommaaccent
ENCODING 315
SWIDTH 600 0
DWIDTH 45 0
BBX 34 72 7 -20
BITMAP
FFE0000000
FFE0000000
FFE0000000
FFE0000000
FFE0000000
FFE0000000
FFE0000000
FFE0000000
FFE0000000
FFE0000000
FFE0000000
FFE0000000
FFE0000000
FFE0000000
FFE0000000
FFE0000000
FFE0000000
FFE0000000
FFE0000000
FFE0000000
FFE0000000
FFE0000000
FFE0000000
FFE0000000
FFE0000000
FFE0000000
FFE0000000
FFE0000000
FFE0000000
FFE0000000
FFE0000000
FFE0000000
FFE0000000
FFE0000000
FFE0000000
FFE0000000
FFE0000000
FFE0000000
FFE0000000
FFE0000000
FFE0000000
FFE0000000
FFE0000000
FFFFFFFFC0
FFFFFFFFC0
FFFFFFFFC0
FFFFFFFFC0
FFFFFFFFC0
FFFFFFFFC0
FFFFFFFFC0
FFFFFFFFC0
FFFFFFFFC0
0000000000
0000000000
0000000000
0000000000
001FFE0000
001FFC0000
001FFC0000
001FF80000
001FF80000
003FF00000
003FF00000
003FF00000
003FE00000
003FE00000
003FC00000
003FC00000
003FC00000
003F800000
003F800000
003F000000
ENDCHAR
STARTCHAR lcommaaccent
ENCODING 316
SWIDTH 600 0
DWIDTH 45 0
BBX 35 76 5 -20
BITMAP
FFFFFE0000
FFFFFE0000
FFFFFE0000
FFFFFE0000
FFFFFE0000
FFFFFE0000
FFFFFE0000
FFFFFE0000
FFFFFE0000
000FFE0000
000FFE0000
000FFE0000
000FFE0000
000FFE0000
000FFE0000
000FFE0000
000FFE0000
000FFE0000
000FFE0000
000FFE0000
000FFE0000
000FFE0000
000FFE0000
000FFE0000
000FFE0000
000FFE0000
000FFE0000
000FFE0000
000FFE0000
000FFE0000
000FFE0000
000FFE0000
000FFE0000
000FFE0000
000FFE0000
000FFE0000
000FFE0000
000FFE0000
000FFE0000
000FFE0000
000FFE0000
000FFE0000
000FFE0000
000FFE0000
000FFE0000
000FFE0000
000FFE0000
FFFFFFFFE0
FFFFFFFFE0
FFFFFFFFE0
FFFFFFFFE0
FFFFFFFFE0
FFFFFFFFE0
FFFFFFFFE0
FFFFFFFFE0
FFFFFFFFE0
0000000000
0000000000
0000000000
0000000000
000FFE0000
000FFE0000
001FFC0000
001FFC0000
001FFC0000
001FF80000
001FF80000
001FF00000
001FF00000
001FF00000
001FE00000
001FE00000
001FC00000
003FC00000
003FC00000
003F800000
ENDCHAR
STARTCHAR Lcaron
ENCODING 317
SWIDTH 600 0
DWIDTH 45 0
BBX 34 55 7 0
BITMAP
00007FF800
00007FF800
00007FF000
FFE07FF000
FFE07FF000
FFE07FF000
FFE07FE000
FFE07FE000
FFE07FE000
FFE07FC000
FFE07FC000
FFE07FC000
FFE07F8000
FFE07F8000
FFE07F8000
FFE07F0000
FFE0000000
FFE0000000
FFE0000000
FFE0000000
FFE0000000
FFE0000000
FFE0000000
FFE0000000
FFE0000000
FFE0000000
FFE0000000
FFE0000000
FFE0000000
FFE0000000
FFE0000000
FFE0000000
FFE0000000
FFE0000000
FFE0000000
FFE0000000
FFE0000000
FFE0000000
FFE0000000
FFE0000000
FFE0000000
FFE0000000
FFE0000000
FFE0000000
FFE0000000
FFE0000000
FFFFFFFFC0
FFFFFFFFC0
FFFFFFFFC0
FFFFFFFFC0
FFFFFFFFC0
FFFFFFFFC0
FFFFFFFFC0
FFFFFFFFC0
FFFFFFFFC0
ENDCHAR
STARTCHAR lcaron
ENCODING 318
SWIDTH 600 0
DWIDTH 45 0
BBX 40 56 5 0
BITMAP
FFFFFE0000
FFFFFE0FFF
FFFFFE0FFF
FFFFFE0FFE
FFFFFE0FFE
FFFFFE0FFE
FFFFFE0FFC
FFFFFE0FFC
FFFFFE0FFC
000FFE0FF8
000FFE0FF8
000FFE0FF8
000FFE0FF0
000FFE0FF0
000FFE0FF0
000FFE0FF0
000FFE0FE0
000FFE0000
000FFE0000
000FFE0000
000FFE0000
000FFE0000
000FFE0000
000FFE0000
000FFE0000
000FFE0000
000FFE0000
000FFE0000
000FFE0000
000FFE0000
000FFE0000
000FFE0000
000FFE0000
000FFE0000
000FFE0000
000FFE0000
000FFE0000
000FFE0000
000FFE0000
000FFE0000
000FFE0000
000FFE0000
000FFE0000
000FFE0000
000FFE0000
000FFE0000
000FFE0000
FFFFFFFFE0
FFFFFFFFE0
FFFFFFFFE0
FFFFFFFFE0
FFFFFFFFE0
FFFFFFFFE0
FFFFFFFFE0
FFFFFFFFE0
FFFFFFFFE0
ENDCHAR
STARTCHAR Ldot
ENCODING 319
SWIDTH 600 0
DWIDTH 45 0
BBX 34 52 7 0
BITMAP
FFE0000000
FFE0000000
FFE0000000
FFE0000000
FFE0000000
FFE0000000
FFE0000000
FFE0000000
FFE0000000
FFE0000000
FFE0000000
FFE0000000
FFE0000000
FFE0000000
FFE0000000
FFE0000000
FFE0000000
FFE0000000
FFE0000000
FFE0000000
FFE001FC00
FFE007FF00
FFE00FFF00
FFE00FFF80
FFE00FFF80
FFE00FFF80
FFE00FFF80
FFE00FFF80
FFE00FFF80
FFE00FFF80
FFE00FFF00
FFE007FF00
FFE001FC00
FFE0000000
FFE0000000
FFE0000000
FFE0000000
FFE0000000
FFE0000000
FFE0000000
FFE0000000
FFE0000000
FFE0000000
FFFFFFFFC0
FFFFFFFFC0
FFFFFFFFC0
FFFFFFFFC0
FFFFFFFFC0
FFFFFFFFC0
FFFFFFFFC0
FFFFFFFFC0
FFFFFFFFC0
ENDCHAR
STARTCHAR ldot
ENCODING 320
SWIDTH 600 0
DWIDTH 45 0
BBX 41 56 4 0
BITMAP
FFFFFE000000
FFFFFE000000
FFFFFE000000
FFFFFE000000
FFFFFE000000
FFFFFE000000
FFFFFE000000
FFFFFE000000
FFFFFE000000
000FFE000000
000FFE000000
000FFE000000
000FFE000000
000FFE000000
000FFE000000
000FFE000000
000FFE000000
000FFE000000
000FFE000000
000FFE000000
000FFE000000
000FFE000000
000FFE000000
000FFE000000
000FFE000000
000FFE000000
000FFE01FC00
000FFE07FE00
000FFE0FFF00
000FFE0FFF80
000FFE0FFF80
000FFE0FFF80
000FFE0FFF80
000FFE0FFF80
000FFE0FFF80
000FFE0FFF80
000FFE0FFF00
000FFE07FE00
000FFE01FC00
000FFE000000
000FFE000000
000FFE000000
000FFE000000
000FFE000000
000FFE000000
000FFE000000
000FFE000000
FFFFFFFFE000
FFFFFFFFE000
FFFFFFFFE000
FFFFFFFFE000
FFFFFFFFE000
FFFFFFFFE000
FFFFFFFFE000
FFFFFFFFE000
FFFFFFFFE000
ENDCHAR
STARTCHAR Lslash
ENCODING 321
SWIDTH 600 0
DWIDTH 45 0
BBX 39 52 2 0
BITMAP
03FF800000
03FF800000
03FF800000
03FF800000
03FF800000
03FF800000
03FF800000
03FF800000
03FF800000
03FF800000
03FF800000
03FF800000
03FF800000
03FF800000
03FF800000
03FF800000
03FF800000
03FF800600
03FF801E00
03FF80FE00
03FF87FE00
03FFBFFE00
03FFFFFE00
03FFFFFE00
03FFFFFE00
07FFFFFE00
3FFFFFF800
FFFFFFE000
FFFFFF0000
FFFFF80000
FFFFC00000
FFFF800000
FFFF800000
FFFF800000
FBFF800000
C3FF800000
03FF800000
03FF800000
03FF800000
03FF800000
03FF800000
03FF800000
03FF800000
03FFFFFFFE
03FFFFFFFE
03FFFFFFFE
03FFFFFFFE
03FFFFFFFE
03FFFFFFFE
03FFFFFFFE
03FFFFFFFE
03FFFFFFFE
ENDCHAR
STARTCHAR lslash
ENCODING 322
SWIDTH 600 0
DWIDTH 45 0
BBX 35 56 5 0
BITMAP
FFFFFE0000
FFFFFE0000
FFFFFE0000
FFFFFE0000
FFFFFE0000
FFFFFE0000
FFFFFE0000
FFFFFE0000
FFFFFE0000
000FFE0000
000FFE0000
000FFE0000
000FFE0000
000FFE0000
000FFE0000
000FFE0000
000FFE0000
000FFE0000
000FFE0000
000FFE0000
000FFE0000
000FFE0000
000FFE0180
000FFE0F80
000FFEFF80
000FFFFF80
000FFFFF80
000FFFFF80
003FFFFF80
01FFFFFF80
0FFFFFFF80
3FFFFFFE00
3FFFFFF000
3FFFFF8000
3FFFFE0000
3FFFFE0000
3FFFFE0000
3FEFFE0000
3E0FFE0000
300FFE0000
000FFE0000
000FFE0000
000FFE0000
000FFE0000
000FFE0000
000FFE0000
000FFE0000
FFFFFFFFE0
FFFFFFFFE0
FFFFFFFFE0
FFFFFFFFE0
FFFFFFFFE0
FFFFFFFFE0
FFFFFFFFE0
FFFFFFFFE0
FFFFFFFFE0
ENDCHAR
STARTCHAR Nacute
ENCODING 323
SWIDTH 600 0
DWIDTH 45 0
BBX 35 74 5 0
BITMAP
0000100000
00001C0000
00003F0000
00003FC000
00007FF000
00007FF800
0000FFE000
0000FFE000
0001FFC000
0001FF8000
0003FF0000
0003FF0000
0007FE0000
0007FC0000
000FF80000
0003F80000
0000F00000
0000200000
0000000000
0000000000
0000000000
0000000000
FFF8003FE0
FFFC003FE0
FFFC003FE0
FFFC003FE0
FFFE003FE0
FFFE003FE0
FFFE003FE0
FFFF003FE0
FFFF003FE0
FFFF003FE0
FFFF803FE0
FFFF803FE0
FFFF803FE0
FFFFC03FE0
FFFFC03FE0
FFFFC03FE0
FFFFE03FE0
FFFFE03FE0
FFBFE03FE0
FF9FF03FE0
FF9FF03FE0
FF9FF83FE0
FF8FF83FE0
FF8FF83FE0
FF8FFC3FE0
FF87FC3FE0
FF87FC3FE0
FF87FE3FE0
FF83FE3FE0
FF83FE3FE0
FF83FF3FE0
FF81FF3FE0
FF81FF3FE0
FF80FFBFE0
FF80FFFFE0
FF80FFFFE0
FF807FFFE0
FF807FFFE0
FF807FFFE0
FF803FFFE0
FF803FFFE0
FF803FFFE0
FF801FFFE0
FF801FFFE0
FF801FFFE0
FF800FFFE0
FF800FFFE0
FF800FFFE0
FF8007FFE0
FF8007FFE0
FF8007FFE0
FF8003FFE0
ENDCHAR
STARTCHAR nacute
ENCODING 324
SWIDTH 600 0
DWIDTH 45 0
BBX 35 61 5 0
BITMAP
0000100000
00001C0000
00001F0000
00003FC000
00007FF000
00007FF800
0000FFF000
0000FFE000
0001FFC000
0001FF8000
0003FF8000
0003FF0000
0007FE0000
0007FC0000
000FFC0000
0003F80000
0000F00000
0000200000
0000000000
0000000000
0000000000
00001FE000
FFE07FF800
FFE0FFFE00
FFE1FFFF00
FFE3FFFF00
FFE7FFFF80
FFEFFFFFC0
FFEFFFFFC0
FFEFFFFFE0
FFFE07FFE0
FFF803FFE0
FFF001FFE0
FFE000FFE0
FFE000FFE0
FFE000FFE0
FFE000FFE0
FFE000FFE0
FFE000FFE0
FFE000FFE0
FFE000FFE0
FFE000FFE0
FFE000FFE0
FFE000FFE0
FFE000FFE0
FFE000FFE0
FFE000FFE0
FFE000FFE0
FFE000FFE0
FFE000FFE0
FFE000FFE0
FFE000FFE0
FFE000FFE0
FFE000FFE0
FFE000FFE0
FFE000FFE0
FFE000FFE0
FFE000FFE0
FFE000FFE0
FFE000FFE0
FFE000FFE0
ENDCHAR
STARTCHAR Ncommaaccent
ENCODING 325
SWIDTH 600 0
DWIDTH 45 0
BBX 35 72 5 -20
BITMAP
FFF8003FE0
FFFC003FE0
FFFC003FE0
FFFC003FE0
FFFE003FE0
FFFE003FE0
FFFE003FE0
FFFF003FE0
FFFF003FE0
FFFF003FE0
FFFF803FE0
FFFF803FE0
FFFF803FE0
FFFFC03FE0
FFFFC03FE0
FFFFC03FE0
FFFFE03FE0
FFFFE03FE0
FFBFE03FE0
FF9FF03FE0
FF9FF03FE0
FF9FF83FE0
FF8FF83FE0
FF8FF83FE0
FF8FFC3FE0
FF87FC3FE0
FF87FC3FE0
FF87FE3FE0
FF83FE3FE0
FF83FE3FE0
FF83FF3FE0
FF81FF3FE0
FF81FF3FE0
FF80FFBFE0
FF80FFFFE0
FF80FFFFE0
FF807FFFE0
FF807FFFE0
FF807FFFE0
FF803FFFE0
FF803FFFE0
FF803FFFE0
FF801FFFE0
FF801FFFE0
FF801FFFE0
FF800FFFE0
FF800FFFE0
FF800FFFE0
FF8007FFE0
FF8007FFE0
FF8007FFE0
FF8003FFE0
0000000000
0000000000
0000000000
0000000000
000FFE0000
000FFE0000
001FFC0000
001FFC0000
001FFC0000
001FF80000
001FF80000
001FF00000
001FF00000
001FF00000
001FE00000
001FE00000
001FC00000
003FC00000
003FC00000
003F800000
ENDCHAR
STARTCHAR ncommaaccent
ENCODING 326
SWIDTH 600 0
DWIDTH 45 0
BBX 35 60 5 -20
BITMAP
00001FE000
FFE07FF800
FFE0FFFE00
FFE1FFFF00
FFE3FFFF00
FFE7FFFF80
FFEFFFFFC0
FFEFFFFFC0
FFEFFFFFE0
FFFE07FFE0
FFF803FFE0
FFF001FFE0
FFE000FFE0
FFE000FFE0
FFE000FFE0
FFE000FFE0
FFE000FFE0
FFE000FFE0
FFE000FFE0
FFE000FFE0
FFE000FFE0
FFE000FFE0
FFE000FFE0
FFE000FFE0
FFE000FFE0
FFE000FFE0
FFE000FFE0
FFE000FFE0
FFE000FFE0
FFE000FFE0
FFE000FFE0
FFE000FFE0
FFE000FFE0
FFE000FFE0
FFE000FFE0
FFE000FFE0
FFE000FFE0
FFE000FFE0
FFE000FFE0
FFE000FFE0
0000000000
0000000000
0000000000
0000000000
000FFF0000
000FFE0000
000FFE0000
001FFC0000
001FFC0000
001FF80000
001FF80000
001FF80000
001FF00000
001FF00000
001FE00000
001FE00000
001FE00000
001FC00000
001FC00000
003F800000
ENDCHAR
STARTCHAR Ncaron
ENCODING 327
SWIDTH 600 0
DWIDTH 45 0
BBX 35 72 5 0
BITMAP
0080002000
01C0007800
07E000FC00
0FF001FE00
1FF803FF00
0FFC07FE00
07FE0FFC00
03FF1FF800
03FFFFF000
01FFFFF000
00FFFFE000
007FFFC000
003FFF8000
001FFF0000
000FFE0000
000FFE0000
0000000000
0000000000
0000000000
0000000000
FFF8003FE0
FFFC003FE0
FFFC003FE0
FFFC003FE0
FFFE003FE0
FFFE003FE0
FFFE003FE0
FFFF003FE0
FFFF003FE0
FFFF003FE0
FFFF803FE0
FFFF803FE0
FFFF803FE0
FFFFC03FE0
FFFFC03FE0
FFFFC03FE0
FFFFE03FE0
FFFFE03FE0
FFBFE03FE0
FF9FF03FE0
FF9FF03FE0
FF9FF83FE0
FF8FF83FE0
FF8FF83FE0
FF8FFC3FE0
FF87FC3FE0
FF87FC3FE0
FF87FE3FE0
FF83FE3FE0
FF83FE3FE0
FF83FF3FE0
FF81FF3FE0
FF81FF3FE0
FF80FFBFE0
FF80FFFFE0
FF80FFFFE0
FF807FFFE0
FF807FFFE0
FF807FFFE0
FF803FFFE0
FF803FFFE0
FF803FFFE0
FF801FFFE0
FF801FFFE0
FF801FFFE0
FF800FFFE0
FF800FFFE0
FF800FFFE0
FF8007FFE0
FF8007FFE0
FF8007FFE0
FF8003FFE0
ENDCHAR
STARTCHAR ncaron
ENCODING 328
SWIDTH 600 0
DWIDTH 45 0
BBX 35 59 5 0
BITMAP
0080003000
01C0007800
07E000FC00
0FF001FE00
1FFC03FF00
0FFE07FE00
07FF0FFC00
03FF9FF800
01FFFFF800
00FFFFF000
00FFFFE000
007FFFC000
003FFF8000
001FFF0000
000FFF0000
0007FE0000
0000000000
0000000000
0000000000
00001FE000
FFE07FF800
FFE0FFFE00
FFE1FFFF00
FFE3FFFF00
FFE7FFFF80
FFEFFFFFC0
FFEFFFFFC0
FFEFFFFFE0
FFFE07FFE0
FFF803FFE0
FFF001FFE0
FFE000FFE0
FFE000FFE0
FFE000FFE0
FFE000FFE0
FFE000FFE0
FFE000FFE0
FFE000FFE0
FFE000FFE0
FFE000FFE0
FFE000FFE0
FFE000FFE0
FFE000FFE0
FFE000FFE0
FFE000FFE0
FFE000FFE0
FFE000FFE0
FFE000FFE0
FFE000FFE0
FFE000FFE0
FFE000FFE0
FFE000FFE0
FFE000FFE0
FFE000FFE0
FFE000FFE0
FFE000FFE0
FFE000FFE0
FFE000FFE0
FFE000FFE0
ENDCHAR
STARTCHAR napostrophe
ENCODING 329
SWIDTH 600 0
DWIDTH 45 0
BBX 41 56 0 0
BITMAP
FFC000000000
FFC000000000
FF8000000000
FF8000000000
FF8000000000
FF0000000000
FF0000000000
FF0000000000
FE0000000000
FE0000000000
FE0000000000
FE0000000000
FC0000000000
FC0000000000
FC0000000000
F80000000000
0000001FC000
00FFE07FF000
00FFE1FFF800
00FFE3FFFC00
00FFE7FFFE00
00FFE7FFFE00
00FFEFFFFF00
00FFEFFFFF00
00FFFFFFFF80
00FFFC1FFF80
00FFF807FF80
00FFF003FF80
00FFE003FF80
00FFE003FF80
00FFE003FF80
00FFE001FF80
00FFE001FF80
00FFE001FF80
00FFE001FF80
00FFE001FF80
00FFE001FF80
00FFE001FF80
00FFE001FF80
00FFE001FF80
00FFE001FF80
00FFE001FF80
00FFE001FF80
00FFE001FF80
00FFE001FF80
00FFE001FF80
00FFE001FF80
00FFE001FF80
00FFE001FF80
00FFE001FF80
00FFE001FF80
00FFE001FF80
00FFE001FF80
00FFE001FF80
00FFE001FF80
00FFE001FF80
ENDCHAR
STARTCHAR Eng
ENCODING 330
SWIDTH 600 0
DWIDTH 45 0
BBX 35 67 5 -15
BITMAP
FFF8003FE0
FFFC003FE0
FFFC003FE0
FFFC003FE0
FFFE003FE0
FFFE003FE0
FFFE003FE0
FFFF003FE0
FFFF003FE0
FFFF003FE0
FFFF803FE0
FFFF803FE0
FFFF803FE0
FFFFC03FE0
FFFFC03FE0
FFFFC03FE0
FFFFE03FE0
FFFFE03FE0
FFBFE03FE0
FF9FF03FE0
FF9FF03FE0
FF9FF83FE0
FF8FF83FE0
FF8FF83FE0
FF8FFC3FE0
FF87FC3FE0
FF87FC3FE0
FF87FE3FE0
FF83FE3FE0
FF83FE3FE0
FF83FF3FE0
FF81FF3FE0
FF81FF3FE0
FF80FFBFE0
FF80FFFFE0
FF80FFFFE0
FF807FFFE0
FF807FFFE0
FF807FFFE0
FF803FFFE0
FF803FFFE0
FF803FFFE0
FF801FFFE0
FF801FFFE0
FF801FFFE0
FF800FFFE0
FF800FFFE0
FF800FFFE0
FF8007FFE0
FF8007FFE0
FF8007FFE0
FF8003FFE0
0000007FE0
0000007FE0
0000007FE0
0000007FE0
0000007FE0
0000007FE0
007FFFFFE0
007FFFFFE0
007FFFFFE0
007FFFFFC0
007FFFFFC0
007FFFFF80
007FFFFF00
007FFFFC00
007FFFF000
ENDCHAR
STARTCHAR eng
ENCODING 331
SWIDTH 600 0
DWIDTH 45 0
BBX 35 55 5 -15
BITMAP
00001FE000
FFE07FF800
FFE0FFFE00
FFE1FFFF00
FFE3FFFF00
FFE7FFFF80
FFEFFFFFC0
FFEFFFFFC0
FFEFFFFFE0
FFFE07FFE0
FFF803FFE0
FFF001FFE0
FFE000FFE0
FFE000FFE0
FFE000FFE0
FFE000FFE0
FFE000FFE0
FFE000FFE0
FFE000FFE0
FFE000FFE0
FFE000FFE0
FFE000FFE0
FFE000FFE0
FFE000FFE0
FFE000FFE0
FFE000FFE0
FFE000FFE0
FFE000FFE0
FFE000FFE0
FFE000FFE0
FFE000FFE0
FFE000FFE0
FFE000FFE0
FFE000FFE0
FFE000FFE0
FFE000FFE0
FFE000FFE0
FFE000FFE0
FFE000FFE0
FFE000FFE0
000000FFE0
000000FFE0
000000FFE0
000000FFE0
000000FFE0
000000FFE0
001FFFFFE0
001FFFFFE0
001FFFFFE0
001FFFFFC0
001FFFFFC0
001FFFFF80
001FFFFF00
001FFFFC00
001FFFF000
ENDCHAR
STARTCHAR Omacron
ENCODING 332
SWIDTH 600 0
DWIDTH 45 0
BBX 41 68 2 -1
BITMAP
007FFFFF0000
007FFFFF0000
007FFFFF0000
007FFFFF0000
007FFFFF0000
007FFFFF0000
007FFFFF0000
007FFFFF0000
000000000000
000000000000
000000000000
000000000000
000000000000
000000000000
0001FFC00000
000FFFF80000
003FFFFE0000
00FFFFFF8000
01FFFFFFC000
03FFFFFFE000
07FFFFFFF000
07FFFFFFF000
0FFFFFFFF800
0FFF80FFF800
1FFF007FFC00
1FFE003FFC00
3FFC001FFE00
3FF8000FFE00
3FF8000FFE00
7FF8000FFF00
7FF8000FFF00
7FF00007FF00
7FF00007FF00
FFF00007FF00
FFF00007FF80
FFF00007FF80
FFF00007FF80
FFF00007FF80
FFF00007FF80
FFF00007FF80
FFF00007FF80
FFF00007FF80
FFF00007FF80
FFF00007FF80
FFF00007FF80
FFF00007FF80
FFF00007FF80
FFF00007FF80
7FF00007FF00
7FF00007FF00
7FF00007FF00
7FF8000FFF00
7FF8000FFF00
3FF8000FFE00
3FF8000FFE00
3FFC001FFE00
1FFE003FFC00
1FFF007FFC00
0FFF80FFF800
0FFFFFFFF800
07FFFFFFF000
07FFFFFFF000
03FFFFFFE000
01FFFFFFC000
00FFFFFF0000
003FFFFE0000
000FFFF80000
0001FFC00000
ENDCHAR
STARTCHAR omacron
ENCODING 333
SWIDTH 600 0
DWIDTH 45 0
BBX 39 55 3 -1
BITMAP
00FFFFFE00
00FFFFFE00
00FFFFFE00
00FFFFFE00
00FFFFFE00
00FFFFFE00
00FFFFFE00
00FFFFFE00
0000000000
0000000000
0000000000
0000000000
0000000000
0000000000
0001FF8000
001FFFF000
007FFFFC00
00FFFFFE00
03FFFFFF80
07FFFFFFC0
0FFFFFFFE0
0FFFFFFFE0
1FFFFFFFF0
3FFF01FFF8
3FFE00FFF8
3FF8003FF8
7FF8003FFC
7FF0001FFC
7FF0001FFC
FFF0001FFC
FFF0001FFE
FFF0001FFE
FFF0001FFE
FFF0001FFE
FFF0001FFE
FFF0001FFE
FFF0001FFE
FFF0001FFE
FFF0001FFE
FFF0001FFE
7FF0001FFC
7FF0001FFC
7FF8003FFC
3FF8003FF8
3FFC007FF8
3FFF01FFF8
1FFFFFFFF0
0FFFFFFFE0
0FFFFFFFE0
07FFFFFFC0
03FFFFFF80
00FFFFFE00
007FFFFC00
001FFFF000
0001FF0000
ENDCHAR
STARTCHAR Obreve
ENCODING 334
SWIDTH 600 0
DWIDTH 45 0
BBX 41 73 2 -1
BITMAP
0018000C0000
0078000F0000
01FC001FC000
03FE003FE000
03FE003FC000
01FF007FC000
01FF80FFC000
00FFC1FF8000
00FFFFFF8000
007FFFFF0000
003FFFFE0000
001FFFFC0000
000FFFF80000
0007FFF00000
0003FFE00000
00007F000000
000000000000
000000000000
000000000000
0001FFC00000
000FFFF80000
003FFFFE0000
00FFFFFF8000
01FFFFFFC000
03FFFFFFE000
07FFFFFFF000
07FFFFFFF000
0FFFFFFFF800
0FFF80FFF800
1FFF007FFC00
1FFE003FFC00
3FFC001FFE00
3FF8000FFE00
3FF8000FFE00
7FF8000FFF00
7FF8000FFF00
7FF00007FF00
7FF00007FF00
FFF00007FF00
FFF00007FF80
FFF00007FF80
FFF00007FF80
FFF00007FF80
FFF00007FF80
FFF00007FF80
FFF00007FF80
FFF00007FF80
FFF00007FF80
FFF00007FF80
FFF00007FF80
FFF00007FF80
FFF00007FF80
FFF00007FF80
7FF00007FF00
7FF00007FF00
7FF00007FF00
7FF8000FFF00
7FF8000FFF00
3FF8000FFE00
3FF8000FFE00
3FFC001FFE00
1FFE003FFC00
1FFF007FFC00
0FFF80FFF800
0FFFFFFFF800
07FFFFFFF000
07FFFFFFF000
03FFFFFFE000
01FFFFFFC000
00FFFFFF0000
003FFFFE0000
000FFFF80000
0001FFC00000
ENDCHAR
STARTCHAR obreve
ENCODING 335
SWIDTH 600 0
DWIDTH 45 0
BBX 39 60 3 -1
BITMAP
0030001800
00F0001E00
03F8003F80
07FC007FC0
07FC007F80
03FE00FF80
03FF01FF80
01FF83FF00
01FFFFFF00
00FFFFFE00
007FFFFC00
003FFFF800
001FFFF000
000FFFE000
0007FFC000
0000FE0000
0000000000
0000000000
0000000000
0001FF8000
001FFFF000
007FFFFC00
00FFFFFE00
03FFFFFF80
07FFFFFFC0
0FFFFFFFE0
0FFFFFFFE0
1FFFFFFFF0
3FFF01FFF8
3FFE00FFF8
3FF8003FF8
7FF8003FFC
7FF0001FFC
7FF0001FFC
FFF0001FFC
FFF0001FFE
FFF0001FFE
FFF0001FFE
FFF0001FFE
FFF0001FFE
FFF0001FFE
FFF0001FFE
FFF0001FFE
FFF0001FFE
FFF0001FFE
7FF0001FFC
7FF0001FFC
7FF8003FFC
3FF8003FF8
3FFC007FF8
3FFF01FFF8
1FFFFFFFF0
0FFFFFFFE0
0FFFFFFFE0
07FFFFFFC0
03FFFFFF80
00FFFFFE00
007FFFFC00
001FFFF000
0001FF0000
ENDCHAR
STARTCHAR Ohungarumlaut
ENCODING 336
SWIDTH 600 0
DWIDTH 45 0
BBX 41 74 2 -1
BITMAP
000180030000
0003E007E000
0003F807F800
0007FE0FFE00
0007FF0FFE00
000FFE1FFC00
000FFC1FF800
001FF83FF000
001FF03FF000
003FE07FE000
007FE07FC000
007FC0FF8000
00FF80FF8000
00FF01FF0000
007F00FE0000
001E003C0000
0004000C0000
000000000000
000000000000
000000000000
0001FFC00000
000FFFF80000
003FFFFE0000
00FFFFFF8000
01FFFFFFC000
03FFFFFFE000
07FFFFFFF000
07FFFFFFF000
0FFFFFFFF800
0FFF80FFF800
1FFF007FFC00
1FFE003FFC00
3FFC001FFE00
3FF8000FFE00
3FF8000FFE00
7FF8000FFF00
7FF8000FFF00
7FF00007FF00
7FF00007FF00
FFF00007FF00
FFF00007FF80
FFF00007FF80
FFF00007FF80
FFF00007FF80
FFF00007FF80
FFF00007FF80
FFF00007FF80
FFF00007FF80
FFF00007FF80
FFF00007FF80
FFF00007FF80
FFF00007FF80
FFF00007FF80
FFF00007FF80
7FF00007FF00
7FF00007FF00
7FF00007FF00
7FF8000FFF00
7FF8000FFF00
3FF8000FFE00
3FF8000FFE00
3FFC001FFE00
1FFE003FFC00
1FFF007FFC00
0FFF80FFF800
0FFFFFFFF800
07FFFFFFF000
07FFFFFFF000
03FFFFFFE000
01FFFFFFC000
00FFFFFF0000
003FFFFE0000
000FFFF80000
0001FFC00000
ENDCHAR
STARTCHAR ohungarumlaut
ENCODING 337
SWIDTH 600 0
DWIDTH 45 0
BBX 39 61 3 -1
BITMAP
0003000600
0007C00FC0
0007F00FF0
000FFC1FFC
000FFE1FFC
001FFC3FF8
001FF83FF0
003FF07FE0
003FE07FE0
007FC0FFC0
00FFC0FF80
00FF81FF00
01FF01FF00
01FE03FE00
00FE01FC00
003C007800
0008001800
0000000000
0000000000
0000000000
0001FF8000
001FFFF000
007FFFFC00
00FFFFFE00
03FFFFFF80
07FFFFFFC0
0FFFFFFFE0
0FFFFFFFE0
1FFFFFFFF0
3FFF01FFF8
3FFE00FFF8
3FF8003FF8
7FF8003FFC
7FF0001FFC
7FF0001FFC
FFF0001FFC
FFF0001FFE
FFF0001FFE
FFF0001FFE
FFF0001FFE
FFF0001FFE
FFF0001FFE
FFF0001FFE
FFF0001FFE
FFF0001FFE
FFF0001FFE
7FF0001FFC
7FF0001FFC
7FF8003FFC
3FF8003FF8
3FFC007FF8
3FFF01FFF8
1FFFFFFFF0
0FFFFFFFE0
0FFFFFFFE0
07FFFFFFC0
03FFFFFF80
00FFFFFE00
007FFFFC00
001FFFF000
0001FF0000
ENDCHAR
STARTCHAR OE
ENCODING 338
SWIDTH 600 0
DWIDTH 45 0
BBX 43 52 1 0
BITMAP
0001FFFFFFE0
001FFFFFFFE0
007FFFFFFFE0
00FFFFFFFFE0
01FFFFFFFFE0
03FFFFFFFFE0
07FFFFFFFFE0
0FFFFFFFFFE0
0FFFFFFFFFE0
1FFF87FE0000
3FFE07FE0000
3FFC07FE0000
3FF807FE0000
7FF007FE0000
7FF007FE0000
7FE007FE0000
7FE007FE0000
FFE007FE0000
FFE007FE0000
FFE007FE0000
FFE007FE0000
FFE007FFFFC0
FFE007FFFFC0
FFE007FFFFC0
FFE007FFFFC0
FFE007FFFFC0
FFE007FFFFC0
FFE007FFFFC0
FFE007FFFFC0
FFE007FFFFC0
FFE007FE0000
FFE007FE0000
FFE007FE0000
FFE007FE0000
FFE007FE0000
7FE007FE0000
7FE007FE0000
7FF007FE0000
7FF007FE0000
3FF807FE0000
3FFC07FE0000
3FFE07FE0000
1FFF87FE0000
0FFFFFFFFFE0
0FFFFFFFFFE0
07FFFFFFFFE0
03FFFFFFFFE0
01FFFFFFFFE0
00FFFFFFFFE0
007FFFFFFFE0
001FFFFFFFE0
0003FFFFFFE0
ENDCHAR
STARTCHAR oe
ENCODING 339
SWIDTH 600 0
DWIDTH 45 0
BBX 43 41 1 -1
BITMAP
007F001FC000
03FFC07FF000
07FFE0FFF800
0FFFF1FFFC00
1FFFFBFFFE00
1FFFFFFFFF00
3FFFFFFFFF00
3FE3FFF0FF80
7FC0FFE07F80
7F80FFC03FC0
7F807FC03FC0
7F807FC03FC0
FF807FC03FC0
FF007FC01FC0
FF007F801FE0
FF007F801FE0
FF007F801FE0
FF007FFFFFE0
FF007FFFFFE0
FF007FFFFFE0
FF007FFFFFE0
FF007FFFFFE0
FF007FFFFFE0
FF007F800000
FF007F800000
FF007F800000
FF007FC00000
FF007FC00000
FF807FC00000
7F807FC01C00
7F80FFC03FC0
7F80FFE03FC0
7FC0FFF07FC0
3FE1FFF8FF80
3FFFFFFFFF80
1FFFFFFFFF00
1FFFFFFFFF00
0FFFF3FFFE00
07FFE1FFFC00
03FFC07FF800
007E001FC000
ENDCHAR
STARTCHAR Racute
ENCODING 340
SWIDTH 600 0
DWIDTH 45 0
BBX 37 74 6 0
BITMAP
0000200000
0000380000
00003E0000
00007F8000
00007FE000
0000FFF000
0000FFE000
0001FFC000
0001FF8000
0003FF0000
0003FF0000
0007FE0000
0007FC0000
000FF80000
000FF80000
0017F00000
0001E00000
0000400000
0000000000
0000000000
0000000000
0000000000
FFFFFF8000
FFFFFFF000
FFFFFFF800
FFFFFFFE00
FFFFFFFF00
FFFFFFFF80
FFFFFFFF80
FFFFFFFFC0
FFFFFFFFC0
FFE007FFE0
FFE001FFE0
FFE001FFE0
FFE000FFF0
FFE000FFF0
FFE000FFF0
FFE000FFF0
FFE000FFF0
FFE000FFF0
FFE000FFF0
FFE000FFF0
FFE000FFF0
FFE001FFE0
FFE001FFE0
FFE007FFE0
FFFFFFFFC0
FFFFFFFFC0
FFFFFFFF80
FFFFFFFF80
FFFFFFFF00
FFFFFFFE00
FFFFFFF800
FFFFFFE000
FFFFFFE000
FFE0FFF000
FFE07FF000
FFE07FF800
FFE03FF800
FFE03FFC00
FFE01FFC00
FFE01FFE00
FFE01FFE00
FFE00FFF00
FFE00FFF00
FFE007FF80
FFE007FF80
FFE003FFC0
FFE003FFC0
FFE001FFE0
FFE001FFE0
FFE000FFF0
FFE000FFF0
FFE0007FF8
ENDCHAR
STARTCHAR racute
ENCODING 341
SWIDTH 600 0
DWIDTH 45 0
BBX 36 61 6 0
BITMAP
0000080000
00000E0000
00001F8000
00001FE000
00003FF800
00003FFC00
00007FF000
00007FF000
0000FFE000
0000FFC000
0001FF8000
0001FF8000
0003FF0000
0003FE0000
0007FC0000
0003F80000
0000F80000
0000100000
0000000000
0000000000
0000000000
0000000000
FFFFF007F0
FFFFF03FF0
FFFFF07FF0
FFFFF0FFF0
FFFFF1FFF0
FFFFF3FFF0
FFFFF3FFF0
FFFFF7FFF0
FFFFF7FFF0
00FFF7FFF0
00FFFF8000
00FFFE0000
00FFFC0000
00FFF80000
00FFF00000
00FFF00000
00FFF00000
00FFF00000
00FFF00000
00FFF00000
00FFF00000
00FFF00000
00FFF00000
00FFF00000
00FFF00000
00FFF00000
00FFF00000
00FFF00000
00FFF00000
00FFF00000
FFFFFFFF00
FFFFFFFF00
FFFFFFFF00
FFFFFFFF00
FFFFFFFF00
FFFFFFFF00
FFFFFFFF00
FFFFFFFF00
FFFFFFFF00
ENDCHAR
STARTCHAR Rcommaaccent
ENCODING 342
SWIDTH 600 0
DWIDTH 45 0
BBX 37 72 6 -20
BITMAP
FFFFFF8000
FFFFFFF000
FFFFFFF800
FFFFFFFE00
FFFFFFFF00
FFFFFFFF80
FFFFFFFF80
FFFFFFFFC0
FFFFFFFFC0
FFE007FFE0
FFE001FFE0
FFE001FFE0
FFE000FFF0
FFE000FFF0
FFE000FFF0
FFE000FFF0
FFE000FFF0
FFE000FFF0
FFE000FFF0
FFE000FFF0
FFE000FFF0
FFE001FFE0
FFE001FFE0
FFE007FFE0
FFFFFFFFC0
FFFFFFFFC0
FFFFFFFF80
FFFFFFFF80
FFFFFFFF00
FFFFFFFE00
FFFFFFF800
FFFFFFE000
FFFFFFE000
FFE0FFF000
FFE07FF000
FFE07FF800
FFE03FF800
FFE03FFC00
FFE01FFC00
FFE01FFE00
FFE01FFE00
FFE00FFF00
FFE00FFF00
FFE007FF80
FFE007FF80
FFE003FFC0
FFE003FFC0
FFE001FFE0
FFE001FFE0
FFE000FFF0
FFE000FFF0
FFE0007FF8
0000000000
0000000000
0000000000
0000000000
000FFF0000
000FFE0000
000FFE0000
001FFC0000
001FFC0000
001FF80000
001FF80000
001FF80000
001FF00000
001FF00000
001FE00000
001FE00000
001FE00000
001FC00000
001FC00000
003F800000
ENDCHAR
STARTCHAR rcommaaccent
ENCODING 343
SWIDTH 600 0
DWIDTH 45 0
BBX 36 59 6 -20
BITMAP
FFFFF007F0
FFFFF03FF0
FFFFF07FF0
FFFFF0FFF0
FFFFF1FFF0
FFFFF3FFF0
FFFFF3FFF0
FFFFF7FFF0
FFFFF7FFF0
00FFF7FFF0
00FFFF8000
00FFFE0000
00FFFC0000
00FFF80000
00FFF00000
00FFF00000
00FFF00000
00FFF00000
00FFF00000
00FFF00000
00FFF00000
00FFF00000
00FFF00000
00FFF00000
00FFF00000
00FFF00000
00FFF00000
00FFF00000
00FFF00000
00FFF00000
FFFFFFFF00
FFFFFFFF00
FFFFFFFF00
FFFFFFFF00
FFFFFFFF00
FFFFFFFF00
FFFFFFFF00
FFFFFFFF00
FFFFFFFF00
0000000000
0000000000
0000000000
0000000000
00FFF00000
00FFE00000
00FFE00000
00FFE00000
00FFC00000
00FFC00000
00FF800000
00FF800000
01FF800000
01FF000000
01FF000000
01FE000000
01FE000000
01FE000000
01FC000000
01FC000000
ENDCHAR
STARTCHAR Rcaron
ENCODING 344
SWIDTH 600 0
DWIDTH 45 0
BBX 37 72 6 0
BITMAP
0100006000
038000F000
07E001F800
1FF003FC00
3FF807FE00
1FFC0FFC00
0FFE1FF800
07FF3FF800
03FFFFF000
01FFFFE000
01FFFFC000
00FFFF8000
007FFF0000
003FFF0000
001FFE0000
000FFC0000
0000000000
0000000000
0000000000
0000000000
FFFFFF8000
FFFFFFF000
FFFFFFF800
FFFFFFFE00
FFFFFFFF00
FFFFFFFF80
FFFFFFFF80
FFFFFFFFC0
FFFFFFFFC0
FFE007FFE0
FFE001FFE0
FFE001FFE0
FFE000FFF0
FFE000FFF0
FFE000FFF0
FFE000FFF0
FFE000FFF0
FFE000FFF0
FFE000FFF0
FFE000FFF0
FFE000FFF0
FFE001FFE0
FFE001FFE0
FFE007FFE0
FFFFFFFFC0
FFFFFFFFC0
FFFFFFFF80
FFFFFFFF80
FFFFFFFF00
FFFFFFFE00
FFFFFFF800
FFFFFFE000
FFFFFFE000
FFE0FFF000
FFE07FF000
FFE07FF800
FFE03FF800
FFE03FFC00
FFE01FFC00
FFE01FFE00
FFE01FFE00
FFE00FFF00
FFE00FFF00
FFE007FF80
FFE007FF80
FFE003FFC0
FFE003FFC0
FFE001FFE0
FFE001FFE0
FFE000FFF0
FFE000FFF0
FFE0007FF8
ENDCHAR
STARTCHAR rcaron
ENCODING 345
SWIDTH 600 0
DWIDTH 45 0
BBX 36 59 6 0
BITMAP
0040001000
01E0003800
03F0007E00
07F800FF00
0FFC01FF80
07FE03FF00
03FF07FE00
01FF8FFC00
01FFFFF800
00FFFFF800
007FFFF000
003FFFE000
001FFFC000
000FFF8000
000FFF0000
0007FE0000
0000000000
0000000000
0000000000
0000000000
FFFFF007F0
FFFFF03FF0
FFFFF07FF0
FFFFF0FFF0
FFFFF1FFF0
FFFFF3FFF0
FFFFF3FFF0
FFFFF7FFF0
FFFFF7FFF0
00FFF7FFF0
00FFFF8000
00FFFE0000
00FFFC0000
00FFF80000
00FFF00000
00FFF00000
00FFF00000
00FFF00000
00FFF00000
00FFF00000
00FFF00000
00FFF00000
00FFF00000
00FFF00000
00FFF00000
00FFF00000
00FFF00000
00FFF00000
00FFF00000
00FFF00000
FFFFFFFF00
FFFFFFFF00
FFFFFFFF00
FFFFFFFF00
FFFFFFFF00
FFFFFFFF00
FFFFFFFF00
FFFFFFFF00
FFFFFFFF00
ENDCHAR
ENDFONT
